STARTFONT 2.1
FONT -FontForge-Open Sans-Bold-R-Normal-Sans--50-480-75-75-P-311-ISO10646-1
SIZE 48 75 75
FONTBOUNDINGBOX 97 68 -31 -15
COMMENT "Generated by fontforge, http://fontforge.sourceforge.net"
COMMENT "Digitized data copyright (c) 2010-2011, Google Corporation."
STARTPROPERTIES 40
FOUNDRY "FontForge"
FAMILY_NAME "Open Sans"
WEIGHT_NAME "Bold"
SLANT "R"
SETWIDTH_NAME "Normal"
ADD_STYLE_NAME "Sans"
PIXEL_SIZE 50
POINT_SIZE 480
RESOLUTION_X 75
RESOLUTION_Y 75
SPACING "P"
AVERAGE_WIDTH 311
CHARSET_REGISTRY "ISO10646"
CHARSET_ENCODING "1"
FONTNAME_REGISTRY ""
CHARSET_COLLECTIONS "ISO8859-2 ISO8859-5 ISO8859-7 ISO8859-9 ISO8859-4 ISO10646-1"
FONT_NAME "OpenSans-Bold"
FACE_NAME "Open Sans Bold"
COPYRIGHT "Digitized data copyright (c) 2010-2011, Google Corporation."
FONT_VERSION "1.10"
FONT_ASCENT 40
FONT_DESCENT 10
UNDERLINE_POSITION -5
UNDERLINE_THICKNESS 3
X_HEIGHT 26
CAP_HEIGHT 35
RAW_ASCENT 799
RAW_DESCENT 200
NORM_SPACE 13
RELATIVE_WEIGHT 70
RELATIVE_SETWIDTH 50
SUPERSCRIPT_X 0
SUPERSCRIPT_Y 23
SUPERSCRIPT_SIZE 32
SUBSCRIPT_X 0
SUBSCRIPT_Y 7
SUBSCRIPT_SIZE 32
FIGURE_WIDTH 29
AVG_LOWERCASE_WIDTH 311
AVG_UPPERCASE_WIDTH 355
ENDPROPERTIES
CHARS 938
STARTCHAR space
ENCODING 32
SWIDTH 259 0
DWIDTH 13 0
BBX 1 1 0 0
BITMAP
00
ENDCHAR
STARTCHAR exclam
ENCODING 33
SWIDTH 286 0
DWIDTH 14 0
BBX 8 37 3 -1
BITMAP
FF
FF
FF
FF
FF
FF
FF
FF
FF
FF
FF
FF
7F
7F
7F
7F
7F
7E
7E
7E
7E
7E
7E
7E
7E
00
00
00
00
3C
FF
FF
FF
FF
FF
7F
3C
ENDCHAR
STARTCHAR quotedbl
ENCODING 34
SWIDTH 472 0
DWIDTH 24 0
BBX 17 13 3 23
BITMAP
FE3F80
FE3F80
FE3F80
7E1F80
7E1F80
7E1F80
7E1F80
7E1F80
7C1F00
7C1F00
7C1F00
7C1F00
7C1F00
ENDCHAR
STARTCHAR numbersign
ENCODING 35
SWIDTH 645 0
DWIDTH 32 0
BBX 30 36 1 0
BITMAP
001F07C0
003F0FC0
003F0FC0
003E0F80
003E0F80
003E0F80
007E0F80
007E1F80
007C1F00
007C1F00
3FFFFFFC
3FFFFFFC
3FFFFFFC
3FFFFFFC
3FFFFFFC
00F83E00
00F83E00
01F87E00
01F87E00
01F07C00
01F07C00
FFFFFFF0
FFFFFFF0
FFFFFFF0
FFFFFFF0
FFFFFFF0
03E0F800
03E1F800
07E1F800
07E1F000
07C1F000
07C1F000
07C1F000
0FC3F000
0FC3F000
0F83E000
ENDCHAR
STARTCHAR dollar
ENCODING 36
SWIDTH 570 0
DWIDTH 29 0
BBX 25 41 2 -3
BITMAP
001C0000
001C0000
001C0000
001C0000
00FFE000
07FFFE00
1FFFFF00
3FFFFF00
7FFFFF00
7FFFFE00
FF9C7E00
FF1C0400
FF1C0000
FF1C0000
FF9C0000
7FDC0000
7FFC0000
3FFE0000
1FFFC000
0FFFF000
03FFFC00
00FFFE00
003FFF00
001FFF00
001DFF80
001C7F80
001C3F80
801C3F80
E01C7F80
FE1CFF80
FFFFFF00
FFFFFF00
FFFFFE00
FFFFFC00
3FFFF000
03FF8000
001C0000
001C0000
001C0000
001C0000
001C0000
ENDCHAR
STARTCHAR percent
ENCODING 37
SWIDTH 900 0
DWIDTH 45 0
BBX 41 36 2 0
BITMAP
07E0001F8000
1FF8001F0000
3FFC003F0000
7FFE007E0000
7FFE007E0000
FE7F00FC0000
FC3F00FC0000
FC3F01F80000
FC3F01F80000
FC3F03F00000
FC3F03F00000
FC3F07E00000
FC3F07C00000
FC3F0FC00000
FC3F1F83F000
FC3F1F8FFC00
FE7F3F1FFE00
7FFE3F3FFF00
7FFE7E3FFF00
3FFC7E7F3F80
1FF8FC7E1F80
07E0F87E1F80
0001F87E1F80
0003F07E1F80
0003F0FE1F80
0007E0FE1F80
0007E07E1F80
000FC07E1F80
000FC07E1F80
001F807E1F80
001F807F3F80
003F003FFF00
003E003FFF00
007E001FFE00
00FC000FFC00
00FC0003F000
ENDCHAR
STARTCHAR ampersand
ENCODING 38
SWIDTH 750 0
DWIDTH 38 0
BBX 35 36 2 0
BITMAP
003FC00000
01FFF00000
03FFF80000
07FFFC0000
0FFFFE0000
0FFFFE0000
1FE0FF0000
1FC07F0000
1FC07F0000
1FC07F0000
1FC0FE0000
0FE1FE0000
0FF3FC0000
0FFFFC0000
07FFF80000
03FFF00000
03FFC00000
07FF801FC0
1FFFC03FC0
3FFFE03FC0
3FFFF03F80
7FCFF87F80
7F87FC7F80
FF03FEFF00
FF01FFFF00
FF00FFFE00
FF007FFC00
FF003FFC00
FF801FF800
7FE07FF800
7FFFFFFC00
3FFFFFFE00
1FFFFFFF00
0FFFFEFF80
07FFF87FC0
00FFC03FE0
ENDCHAR
STARTCHAR quotesingle
ENCODING 39
SWIDTH 266 0
DWIDTH 13 0
BBX 7 13 3 23
BITMAP
FE
FE
FE
7E
7E
7E
7E
7E
7C
7C
7C
7C
7C
ENDCHAR
STARTCHAR parenleft
ENCODING 40
SWIDTH 338 0
DWIDTH 17 0
BBX 13 44 2 -8
BITMAP
01F8
03F8
03F0
07E0
0FE0
0FC0
1FC0
1F80
3F80
3F80
3F00
7F00
7F00
7F00
7E00
7E00
FE00
FE00
FE00
FE00
FE00
FE00
FE00
FE00
FE00
FE00
FE00
FE00
7E00
7E00
7E00
7F00
7F00
3F00
3F80
3F80
1F80
1FC0
0FC0
0FE0
07E0
07F0
03F0
01F8
ENDCHAR
STARTCHAR parenright
ENCODING 41
SWIDTH 338 0
DWIDTH 17 0
BBX 13 44 2 -8
BITMAP
FC00
FE00
7E00
3F00
3F80
1F80
1FC0
0FC0
0FE0
0FE0
07E0
07F0
07F0
07F0
03F0
03F0
03F8
03F8
03F8
03F8
03F8
03F8
03F8
03F8
03F8
03F8
03F8
03F8
03F0
03F0
03F0
07F0
07F0
07E0
0FE0
0FE0
0FC0
1FC0
1F80
3F80
3F00
7E00
7E00
FC00
ENDCHAR
STARTCHAR asterisk
ENCODING 42
SWIDTH 544 0
DWIDTH 27 0
BBX 23 23 2 15
BITMAP
00FE00
00FE00
007C00
007C00
007C00
007C00
807C02
F87C1E
FF7DFE
FFFFFE
FFFFFE
FFFFFE
FFFFFE
01FF00
01FF00
03FF80
07EFC0
0FEFE0
0FC7E0
1FC7F0
1F83F0
0783C0
010100
ENDCHAR
STARTCHAR plus
ENCODING 43
SWIDTH 570 0
DWIDTH 29 0
BBX 25 25 2 5
BITMAP
003E0000
003E0000
003E0000
003E0000
003E0000
003E0000
003E0000
003E0000
003E0000
003E0000
FFFFFF80
FFFFFF80
FFFFFF80
FFFFFF80
FFFFFF80
003E0000
003E0000
003E0000
003E0000
003E0000
003E0000
003E0000
003E0000
003E0000
003E0000
ENDCHAR
STARTCHAR comma
ENCODING 44
SWIDTH 290 0
DWIDTH 15 0
BBX 9 12 2 -6
BITMAP
3F80
3F80
3F80
7F00
7F00
7F00
7E00
7E00
FC00
FC00
FC00
F800
ENDCHAR
STARTCHAR hyphen
ENCODING 45
SWIDTH 321 0
DWIDTH 16 0
BBX 14 6 1 10
BITMAP
FFFC
FFFC
FFFC
FFFC
FFFC
FFFC
ENDCHAR
STARTCHAR period
ENCODING 46
SWIDTH 285 0
DWIDTH 14 0
BBX 8 8 3 -1
BITMAP
3E
7F
FF
FF
FF
FF
7F
3E
ENDCHAR
STARTCHAR slash
ENCODING 47
SWIDTH 413 0
DWIDTH 21 0
BBX 20 36 1 0
BITMAP
0007F0
000FE0
000FE0
000FC0
001FC0
001FC0
001F80
003F80
003F80
007F00
007F00
007E00
00FE00
00FE00
01FC00
01FC00
01FC00
03F800
03F800
03F000
07F000
07F000
0FE000
0FE000
0FC000
1FC000
1FC000
1F8000
3F8000
3F8000
7F0000
7F0000
7E0000
FE0000
FE0000
FC0000
ENDCHAR
STARTCHAR zero
ENCODING 48
SWIDTH 570 0
DWIDTH 29 0
BBX 25 36 2 0
BITMAP
007F0000
03FFE000
07FFF000
0FFFF800
1FFFFC00
3FFFFE00
3FC3FE00
7F80FF00
7F80FF00
7F007F00
FF007F00
FF007F80
FF007F80
FF007F80
FE003F80
FE003F80
FE003F80
FE003F80
FE003F80
FE003F80
FE003F80
FE003F80
FE007F80
FF007F80
FF007F80
7F007F80
7F007F00
7F80FF00
7F80FF00
3FC3FE00
3FFFFE00
1FFFFC00
0FFFF800
07FFF000
03FFE000
007F8000
ENDCHAR
STARTCHAR one
ENCODING 49
SWIDTH 570 0
DWIDTH 29 0
BBX 18 36 3 0
BITMAP
001FC0
003FC0
007FC0
01FFC0
03FFC0
07FFC0
0FFFC0
3FFFC0
7FFFC0
FFBFC0
7F3FC0
3E3FC0
183FC0
003FC0
003FC0
003FC0
003FC0
003FC0
003FC0
003FC0
003FC0
003FC0
003FC0
003FC0
003FC0
003FC0
003FC0
003FC0
003FC0
003FC0
003FC0
003FC0
003FC0
003FC0
003FC0
003FC0
ENDCHAR
STARTCHAR two
ENCODING 50
SWIDTH 570 0
DWIDTH 29 0
BBX 25 36 2 0
BITMAP
00FF8000
07FFF000
1FFFF800
3FFFFC00
FFFFFE00
FFFFFE00
7F81FF00
3E00FF00
1C007F00
00007F00
00007F00
00007F00
00007F00
0000FF00
0000FE00
0001FE00
0003FC00
0007FC00
000FF800
001FF000
003FE000
003FC000
007F8000
00FF0000
01FE0000
03FC0000
07F80000
0FF00000
1FE00000
3FC00000
7FFFFF80
FFFFFF80
FFFFFF80
FFFFFF80
FFFFFF80
FFFFFF80
ENDCHAR
STARTCHAR three
ENCODING 51
SWIDTH 570 0
DWIDTH 29 0
BBX 25 36 2 0
BITMAP
01FF8000
0FFFE000
3FFFF800
FFFFFC00
7FFFFE00
7FFFFE00
3F03FF00
1C00FF00
1000FF00
00007F00
00007F00
0000FF00
0000FE00
0001FE00
0007FC00
03FFF800
03FFE000
03FF0000
03FFF000
03FFFC00
03FFFE00
0003FF00
0000FF00
00007F80
00007F80
00007F80
00007F80
00007F80
C000FF80
F803FF00
FFFFFF00
FFFFFE00
FFFFFC00
FFFFF800
7FFFE000
07FF0000
ENDCHAR
STARTCHAR four
ENCODING 52
SWIDTH 570 0
DWIDTH 29 0
BBX 27 36 1 0
BITMAP
0001FE00
0001FE00
0003FE00
0007FE00
0007FE00
000FFE00
001FFE00
001FFE00
003FFE00
007EFE00
007EFE00
00FDFE00
01F9FE00
01F9FE00
03F1FE00
07E1FE00
07E1FE00
0FC1FE00
1F81FE00
1F81FE00
3F01FE00
7E01FE00
7E01FE00
FFFFFFE0
FFFFFFE0
FFFFFFE0
FFFFFFE0
FFFFFFE0
FFFFFFE0
0001FE00
0001FE00
0001FE00
0001FE00
0001FE00
0001FE00
0001FE00
ENDCHAR
STARTCHAR five
ENCODING 53
SWIDTH 570 0
DWIDTH 29 0
BBX 25 36 2 0
BITMAP
1FFFFC00
3FFFFC00
3FFFFC00
3FFFFC00
3FFFFC00
3FFFFC00
3F800000
3F800000
3F800000
3F800000
3F800000
3F800000
3F800000
3FFF8000
7FFFF000
7FFFF800
7FFFFC00
7FFFFE00
3FFFFF00
0C07FF00
0001FF00
0000FF80
00007F80
00007F80
00007F80
00007F80
00007F80
0000FF00
C001FF00
FC03FF00
FFFFFE00
FFFFFC00
FFFFF800
FFFFF000
7FFFC000
07FE0000
ENDCHAR
STARTCHAR six
ENCODING 54
SWIDTH 570 0
DWIDTH 29 0
BBX 25 36 2 0
BITMAP
0007FE00
007FFE00
01FFFE00
03FFFE00
07FFFE00
0FFFFE00
1FFC0000
1FE00000
3FC00000
3F800000
7F000000
7F000000
7E000000
FE0FE000
FE7FF800
FEFFFC00
FFFFFE00
FFFFFF00
FFFFFF00
FFC0FF80
FF807F80
FF003F80
FE003F80
FE003F80
FE003F80
FE003F80
FF003F80
7F007F80
7F807F80
3FE1FF00
3FFFFF00
1FFFFE00
0FFFFC00
07FFF800
03FFF000
007F8000
ENDCHAR
STARTCHAR seven
ENCODING 55
SWIDTH 570 0
DWIDTH 29 0
BBX 26 36 1 0
BITMAP
FFFFFFC0
FFFFFFC0
FFFFFFC0
FFFFFFC0
FFFFFFC0
FFFFFFC0
00003FC0
00003F80
00007F80
00007F00
0000FF00
0000FE00
0001FE00
0001FC00
0003FC00
0003FC00
0003F800
0007F800
0007F000
000FF000
000FE000
001FE000
001FE000
003FC000
003FC000
007F8000
007F8000
007F0000
00FF0000
00FE0000
01FE0000
01FE0000
03FC0000
03FC0000
07F80000
07F80000
ENDCHAR
STARTCHAR eight
ENCODING 56
SWIDTH 570 0
DWIDTH 29 0
BBX 25 36 2 0
BITMAP
00FF8000
07FFF000
0FFFF800
1FFFFC00
3FFFFE00
7FC1FF00
7F80FF00
7F007F00
7F007F00
7F007F00
7F007F00
7F80FF00
3FC1FE00
3FF7FC00
1FFFF800
0FFFF000
03FFE000
03FFC000
0FFFF000
1FFFF800
3FFFFE00
7FC3FE00
7F80FF00
FF007F80
FE003F80
FE003F80
FE003F80
FE003F80
FE003F80
FF007F80
7FC1FF00
7FFFFF00
3FFFFE00
1FFFFC00
07FFF000
00FF8000
ENDCHAR
STARTCHAR nine
ENCODING 57
SWIDTH 570 0
DWIDTH 29 0
BBX 25 36 2 0
BITMAP
00FF0000
07FFC000
0FFFF000
1FFFF800
3FFFFC00
7FFFFE00
7FC3FE00
FF00FF00
FF007F00
FE007F00
FE007F80
FE003F80
FE003F80
FE003F80
FE007F80
FF00FF80
FF81FF80
7FFFFF80
7FFFFF80
3FFFFF80
1FFFBF80
0FFF3F80
03FC3F80
00003F00
00007F00
00007F00
0000FE00
0001FE00
0003FC00
001FFC00
3FFFF800
3FFFF000
3FFFE000
3FFFC000
3FFF0000
3FF00000
ENDCHAR
STARTCHAR colon
ENCODING 58
SWIDTH 285 0
DWIDTH 14 0
BBX 8 29 3 -1
BITMAP
3E
7F
FF
FF
FF
FF
7F
3E
00
00
00
00
00
00
00
00
00
00
00
00
00
3E
7F
FF
FF
FF
FF
7F
3E
ENDCHAR
STARTCHAR semicolon
ENCODING 59
SWIDTH 290 0
DWIDTH 15 0
BBX 9 34 2 -6
BITMAP
1F00
3F80
7F80
7F80
7F80
7F80
3F80
1F00
0000
0000
0000
0000
0000
0000
0000
0000
0000
0000
0000
0000
0000
0000
3F80
3F80
3F80
7F00
7F00
7F00
7E00
7E00
FC00
FC00
FC00
F800
ENDCHAR
STARTCHAR less
ENCODING 60
SWIDTH 570 0
DWIDTH 29 0
BBX 25 26 2 5
BITMAP
00000080
00000380
00000F80
00007F80
0001FF80
0007FF80
001FFE00
007FF800
01FFE000
07FF8000
1FFC0000
7FF00000
FFC00000
FF000000
FFC00000
FFF80000
3FFE0000
07FFC000
01FFF000
007FFE00
000FFF80
0003FF80
0000FF80
00001F80
00000780
00000180
ENDCHAR
STARTCHAR equal
ENCODING 61
SWIDTH 570 0
DWIDTH 29 0
BBX 25 15 2 10
BITMAP
FFFFFF80
FFFFFF80
FFFFFF80
FFFFFF80
FFFFFF80
00000000
00000000
00000000
00000000
00000000
FFFFFF80
FFFFFF80
FFFFFF80
FFFFFF80
FFFFFF80
ENDCHAR
STARTCHAR greater
ENCODING 62
SWIDTH 570 0
DWIDTH 29 0
BBX 25 26 2 5
BITMAP
80000000
E0000000
F8000000
FF000000
FFC00000
FFF00000
3FFC0000
0FFF0000
03FFC000
00FFF000
001FFC00
0007FF00
0001FF80
00007F80
0001FF80
000FFF80
003FFE00
01FFF000
07FFC000
3FFF0000
FFF80000
FFE00000
FF800000
FC000000
F0000000
C0000000
ENDCHAR
STARTCHAR question
ENCODING 63
SWIDTH 477 0
DWIDTH 24 0
BBX 23 37 0 -1
BITMAP
01FF00
1FFFC0
7FFFF0
FFFFF8
7FFFFC
7FFFFC
3F03FE
3801FE
0000FE
0000FE
0000FE
0001FC
0003FC
0007F8
000FF8
003FF0
007FC0
00FF80
00FF00
01FE00
01FC00
01F800
01F800
01F800
000000
000000
000000
000000
000000
00F800
01FC00
03FC00
03FE00
03FE00
03FC00
01FC00
00F800
ENDCHAR
STARTCHAR at
ENCODING 64
SWIDTH 896 0
DWIDTH 45 0
BBX 41 40 2 -4
BITMAP
00007FE00000
0003FFFC0000
001FFFFF0000
003FFFFFC000
00FFFFFFE000
01FF001FF000
03FC0007F800
07F00001FC00
0FE00000FC00
0FC03FE07E00
1F81FFFC7E00
1F03FFFC3E00
3F07FFFC3F00
3E0FFBFC1F00
7E1FC07C1F00
7E1F807C1F00
7C3F007C1F00
7C3F007C1F00
7C3F00FC1F80
7C3E00FC1F00
FC3E00FC1F00
FC3E00FC1F00
7C3E00FC1F00
7C3F00FC3F00
7C3F01FC3E00
7C3F83FC3E00
7E1FEFFFFE00
7E0FFFFFFC00
3E0FFF9FF800
3F03FF1FF000
3F00FC07C000
1F8000000000
1FC000000000
0FF000010000
07FC001F0000
03FFFFFF0000
01FFFFFF0000
007FFFFF0000
001FFFFC0000
0001FFC00000
ENDCHAR
STARTCHAR A
ENCODING 65
SWIDTH 689 0
DWIDTH 35 0
BBX 35 36 0 0
BITMAP
0007FC0000
000FFE0000
000FFE0000
000FFE0000
001FFF0000
001FFF0000
001FBF0000
003FBF8000
003FBF8000
007F1FC000
007F1FC000
007F1FC000
00FE0FE000
00FE0FE000
00FE0FE000
01FC07F000
01FC07F000
01FC07F000
03FC03F800
03F803F800
03F803F800
07FFFFFC00
07FFFFFC00
0FFFFFFE00
0FFFFFFE00
0FFFFFFE00
1FFFFFFF00
1FE000FF00
1FC0007F00
3FC0007F80
3FC0007F80
3FC0003F80
7F80003FC0
7F80003FC0
7F80003FC0
FF00001FE0
ENDCHAR
STARTCHAR B
ENCODING 66
SWIDTH 671 0
DWIDTH 34 0
BBX 27 36 4 0
BITMAP
FFFFC000
FFFFFC00
FFFFFE00
FFFFFF80
FFFFFF80
FFFFFFC0
FF00FFC0
FF003FC0
FF003FC0
FF001FC0
FF001FC0
FF003FC0
FF003FC0
FF00FF80
FFFFFF80
FFFFFF00
FFFFFC00
FFFFFE00
FFFFFF80
FFFFFFC0
FF00FFC0
FF003FE0
FF001FE0
FF001FE0
FF001FE0
FF001FE0
FF001FE0
FF001FE0
FF003FE0
FF00FFE0
FFFFFFC0
FFFFFF80
FFFFFF80
FFFFFE00
FFFFFC00
FFFFE000
ENDCHAR
STARTCHAR C
ENCODING 67
SWIDTH 637 0
DWIDTH 32 0
BBX 27 36 3 0
BITMAP
000FF800
007FFF80
01FFFFE0
03FFFFE0
07FFFFC0
0FFFFFC0
1FFC0FC0
3FF00180
3FE00000
7FC00000
7F800000
7F800000
FF000000
FF000000
FF000000
FF000000
FF000000
FF000000
FF000000
FF000000
FF000000
FF000000
FF000000
FF000000
7F800000
7F800000
7FC00000
3FC00000
3FE00040
1FF807C0
1FFFFFC0
0FFFFFC0
07FFFFC0
03FFFFC0
00FFFF80
001FF800
ENDCHAR
STARTCHAR D
ENCODING 68
SWIDTH 740 0
DWIDTH 37 0
BBX 30 36 4 0
BITMAP
FFFF8000
FFFFF000
FFFFFC00
FFFFFF00
FFFFFF80
FFFFFFC0
FF00FFE0
FF003FF0
FF001FF0
FF000FF8
FF0007F8
FF0007F8
FF0003FC
FF0003FC
FF0003FC
FF0003FC
FF0003FC
FF0003FC
FF0003FC
FF0003FC
FF0003FC
FF0003FC
FF0003FC
FF0007F8
FF0007F8
FF0007F8
FF000FF0
FF001FF0
FF003FE0
FF01FFE0
FFFFFFC0
FFFFFF80
FFFFFF00
FFFFFC00
FFFFF000
FFFF0000
ENDCHAR
STARTCHAR E
ENCODING 69
SWIDTH 560 0
DWIDTH 28 0
BBX 21 36 4 0
BITMAP
FFFFF8
FFFFF8
FFFFF8
FFFFF8
FFFFF8
FFFFF8
FF0000
FF0000
FF0000
FF0000
FF0000
FF0000
FF0000
FF0000
FFFFF0
FFFFF0
FFFFF0
FFFFF0
FFFFF0
FFFFF0
FF0000
FF0000
FF0000
FF0000
FF0000
FF0000
FF0000
FF0000
FF0000
FF0000
FFFFF8
FFFFF8
FFFFF8
FFFFF8
FFFFF8
FFFFF8
ENDCHAR
STARTCHAR F
ENCODING 70
SWIDTH 548 0
DWIDTH 27 0
BBX 21 36 4 0
BITMAP
FFFFF8
FFFFF8
FFFFF8
FFFFF8
FFFFF8
FFFFF8
FF0000
FF0000
FF0000
FF0000
FF0000
FF0000
FF0000
FF0000
FF0000
FF0000
FFFFF0
FFFFF0
FFFFF0
FFFFF0
FFFFF0
FFFFF0
FF0000
FF0000
FF0000
FF0000
FF0000
FF0000
FF0000
FF0000
FF0000
FF0000
FF0000
FF0000
FF0000
FF0000
ENDCHAR
STARTCHAR G
ENCODING 71
SWIDTH 724 0
DWIDTH 36 0
BBX 29 36 3 0
BITMAP
0007FF00
003FFFE0
00FFFFF8
03FFFFF0
07FFFFF0
0FFFFFF0
1FFE03E0
1FF80060
3FE00000
7FC00000
7FC00000
7F800000
FF800000
FF000000
FF000000
FF000000
FF01FFF8
FF01FFF8
FF01FFF8
FF01FFF8
FF01FFF8
FF01FFF8
FF0003F8
FF0003F8
7F8003F8
7F8003F8
7FC003F8
3FC003F8
3FF003F8
1FFC03F8
1FFFFFF8
0FFFFFF8
07FFFFF8
01FFFFF8
00FFFFE0
000FFE00
ENDCHAR
STARTCHAR H
ENCODING 72
SWIDTH 765 0
DWIDTH 38 0
BBX 29 36 4 0
BITMAP
FF0003F8
FF0003F8
FF0003F8
FF0003F8
FF0003F8
FF0003F8
FF0003F8
FF0003F8
FF0003F8
FF0003F8
FF0003F8
FF0003F8
FF0003F8
FF0003F8
FFFFFFF8
FFFFFFF8
FFFFFFF8
FFFFFFF8
FFFFFFF8
FFFFFFF8
FF0003F8
FF0003F8
FF0003F8
FF0003F8
FF0003F8
FF0003F8
FF0003F8
FF0003F8
FF0003F8
FF0003F8
FF0003F8
FF0003F8
FF0003F8
FF0003F8
FF0003F8
FF0003F8
ENDCHAR
STARTCHAR I
ENCODING 73
SWIDTH 331 0
DWIDTH 17 0
BBX 7 36 5 0
BITMAP
FE
FE
FE
FE
FE
FE
FE
FE
FE
FE
FE
FE
FE
FE
FE
FE
FE
FE
FE
FE
FE
FE
FE
FE
FE
FE
FE
FE
FE
FE
FE
FE
FE
FE
FE
FE
ENDCHAR
STARTCHAR J
ENCODING 74
SWIDTH 331 0
DWIDTH 17 0
BBX 16 46 -4 -10
BITMAP
00FF
00FF
00FF
00FF
00FF
00FF
00FF
00FF
00FF
00FF
00FF
00FF
00FF
00FF
00FF
00FF
00FF
00FF
00FF
00FF
00FF
00FF
00FF
00FF
00FF
00FF
00FF
00FF
00FF
00FF
00FF
00FF
00FF
00FF
00FF
00FF
00FF
00FF
01FE
03FE
FFFE
FFFC
FFF8
FFF0
FFE0
FF80
ENDCHAR
STARTCHAR K
ENCODING 75
SWIDTH 664 0
DWIDTH 33 0
BBX 29 36 4 0
BITMAP
FF000FF8
FF001FF0
FF001FE0
FF003FC0
FF007F80
FF00FF80
FF01FF00
FF01FE00
FF03FC00
FF07FC00
FF0FF800
FF0FF000
FF1FE000
FF3FE000
FF7FC000
FF7F8000
FFFF8000
FFFFC000
FFFFC000
FFFFE000
FFFFE000
FFCFF000
FF8FF800
FF07F800
FF07FC00
FF03FE00
FF01FE00
FF01FF00
FF00FF00
FF00FF80
FF007FC0
FF003FC0
FF003FE0
FF001FE0
FF001FF0
FF000FF8
ENDCHAR
STARTCHAR L
ENCODING 76
SWIDTH 564 0
DWIDTH 28 0
BBX 22 36 4 0
BITMAP
FF0000
FF0000
FF0000
FF0000
FF0000
FF0000
FF0000
FF0000
FF0000
FF0000
FF0000
FF0000
FF0000
FF0000
FF0000
FF0000
FF0000
FF0000
FF0000
FF0000
FF0000
FF0000
FF0000
FF0000
FF0000
FF0000
FF0000
FF0000
FF0000
FF0000
FFFFFC
FFFFFC
FFFFFC
FFFFFC
FFFFFC
FFFFFC
ENDCHAR
STARTCHAR M
ENCODING 77
SWIDTH 942 0
DWIDTH 47 0
BBX 39 36 4 0
BITMAP
FFE0000FFE
FFE0000FFE
FFF0001FFE
FFF0001FFE
FFF0001FFE
FFF0003FFE
FFF8003FFE
FFF8003FFE
FFF8007EFE
FEFC007EFE
FEFC007EFE
FEFC00FCFE
FEFE00FCFE
FE7E00FCFE
FE7E00F8FE
FE7F01F9FE
FE3F01F9FE
FE3F01F1FE
FE3F03F1FE
FE1F83F1FE
FE1F83E1FE
FE1F87E1FE
FE1FC7E1FE
FE0FC7E1FE
FE0FCFC1FE
FE0FEFC1FE
FE07EFC1FE
FE07FF81FE
FE07FF81FE
FE03FF81FE
FE03FF01FE
FE03FF01FE
FE03FF01FE
FE01FE01FE
FE01FE01FE
FE01FE01FE
ENDCHAR
STARTCHAR N
ENCODING 78
SWIDTH 812 0
DWIDTH 41 0
BBX 33 36 4 0
BITMAP
FFC0003F80
FFE0003F80
FFF0003F80
FFF0003F80
FFF8003F80
FFF8003F80
FFFC003F80
FFFC003F80
FFFE003F80
FFFF003F80
FEFF003F80
FE7F803F80
FE7F803F80
FE3FC03F80
FE3FE03F80
FE1FE03F80
FE1FF03F80
FE0FF03F80
FE07F83F80
FE07FC3F80
FE03FC3F80
FE03FE3F80
FE01FE3F80
FE00FF3F80
FE00FF3F80
FE007FBF80
FE007FFF80
FE003FFF80
FE003FFF80
FE001FFF80
FE000FFF80
FE000FFF80
FE0007FF80
FE0007FF80
FE0003FF80
FE0001FF80
ENDCHAR
STARTCHAR O
ENCODING 79
SWIDTH 795 0
DWIDTH 40 0
BBX 34 36 3 0
BITMAP
000FFC0000
007FFF8000
01FFFFE000
03FFFFF800
0FFFFFFC00
0FFFFFFC00
1FFC0FFE00
3FF003FF00
3FE001FF00
7FC000FF80
7F80007F80
7F80007F80
FF00007FC0
FF00003FC0
FF00003FC0
FF00003FC0
FF00003FC0
FF00003FC0
FF00003FC0
FF00003FC0
FF00003FC0
FF00003FC0
FF00003FC0
FF00007FC0
7F80007F80
7F80007F80
7FC000FF80
3FE001FF00
3FF003FF00
1FFC0FFE00
0FFFFFFC00
0FFFFFFC00
03FFFFF000
01FFFFE000
007FFF8000
000FFC0000
ENDCHAR
STARTCHAR P
ENCODING 80
SWIDTH 627 0
DWIDTH 31 0
BBX 25 36 4 0
BITMAP
FFFF8000
FFFFE000
FFFFF800
FFFFFC00
FFFFFE00
FFFFFF00
FF03FF00
FF00FF00
FF007F80
FF007F80
FF007F80
FF007F80
FF007F80
FF007F80
FF00FF00
FF00FF00
FF03FF00
FFFFFE00
FFFFFE00
FFFFFC00
FFFFF800
FFFFE000
FFFF0000
FF000000
FF000000
FF000000
FF000000
FF000000
FF000000
FF000000
FF000000
FF000000
FF000000
FF000000
FF000000
FF000000
ENDCHAR
STARTCHAR Q
ENCODING 81
SWIDTH 795 0
DWIDTH 40 0
BBX 34 44 3 -8
BITMAP
000FFC0000
007FFF8000
01FFFFE000
03FFFFF800
0FFFFFFC00
0FFFFFFC00
1FFC0FFE00
3FF003FF00
3FE001FF00
7FC000FF80
7F80007F80
7F80007F80
FF00007FC0
FF00003FC0
FF00003FC0
FF00003FC0
FF00003FC0
FF00003FC0
FF00003FC0
FF00003FC0
FF00003FC0
FF00003FC0
FF00003FC0
FF00007FC0
7F80007F80
7F80007F80
7FC000FF80
3FE001FF00
3FF003FF00
1FFC0FFE00
0FFFFFFC00
0FFFFFF800
03FFFFF000
01FFFFE000
007FFF8000
000FFFC000
00003FE000
00001FF000
00000FF800
00000FFC00
000007FE00
000003FF00
000001FF80
000000FF80
ENDCHAR
STARTCHAR R
ENCODING 82
SWIDTH 660 0
DWIDTH 33 0
BBX 29 36 4 0
BITMAP
FFFF0000
FFFFF000
FFFFF800
FFFFFE00
FFFFFE00
FFFFFF00
FF03FF00
FF00FF80
FF007F80
FF007F80
FF007F80
FF007F80
FF007F80
FF007F80
FF00FF00
FF03FF00
FFFFFE00
FFFFFC00
FFFFF800
FFFFF000
FFFFE000
FFFFE000
FF0FF000
FF07F800
FF03F800
FF03FC00
FF01FE00
FF01FE00
FF00FF00
FF007F80
FF007F80
FF003FC0
FF003FE0
FF001FE0
FF000FF0
FF000FF8
ENDCHAR
STARTCHAR S
ENCODING 83
SWIDTH 550 0
DWIDTH 28 0
BBX 24 36 2 0
BITMAP
007FC0
03FFF8
0FFFFF
1FFFFE
3FFFFE
3FFFFC
7FC07C
7F800C
7F0000
7F0000
7F0000
7F8000
7FC000
7FE000
3FF800
1FFF00
1FFFC0
0FFFE0
03FFF8
00FFFC
003FFC
000FFE
0003FE
0001FF
0000FF
0000FF
00007F
8000FF
F000FF
FE03FE
FFFFFE
FFFFFC
FFFFF8
FFFFF0
3FFFC0
07FE00
ENDCHAR
STARTCHAR T
ENCODING 84
SWIDTH 579 0
DWIDTH 29 0
BBX 27 36 1 0
BITMAP
FFFFFFE0
FFFFFFE0
FFFFFFE0
FFFFFFE0
FFFFFFE0
FFFFFFE0
003F8000
003F8000
003F8000
003F8000
003F8000
003F8000
003F8000
003F8000
003F8000
003F8000
003F8000
003F8000
003F8000
003F8000
003F8000
003F8000
003F8000
003F8000
003F8000
003F8000
003F8000
003F8000
003F8000
003F8000
003F8000
003F8000
003F8000
003F8000
003F8000
003F8000
ENDCHAR
STARTCHAR U
ENCODING 85
SWIDTH 755 0
DWIDTH 38 0
BBX 30 36 4 0
BITMAP
FF0003FC
FF0003FC
FF0003FC
FF0003FC
FF0003FC
FF0003FC
FF0003FC
FF0003FC
FF0003FC
FF0003FC
FF0003FC
FF0003FC
FF0003FC
FF0003FC
FF0003FC
FF0003FC
FF0003FC
FF0003FC
FF0003FC
FF0003FC
FF0003FC
FF0003FC
FF0003FC
FF0003FC
FF0003FC
FF0003FC
7F8007F8
7F8007F8
7FC00FF8
3FF03FF0
3FFFFFF0
1FFFFFE0
0FFFFFC0
07FFFF80
01FFFE00
003FF000
ENDCHAR
STARTCHAR V
ENCODING 86
SWIDTH 649 0
DWIDTH 33 0
BBX 33 36 0 0
BITMAP
FF00007F80
7F00007F00
7F00007F00
7F8000FF00
3F8000FE00
3F8000FE00
3FC001FE00
1FC001FC00
1FC001FC00
1FE003FC00
0FE003F800
0FE003F800
0FF007F800
07F007F000
07F007F000
07F80FF000
03F80FE000
03F80FE000
03FC1FE000
01FC1FC000
01FC1FC000
01FE3FC000
00FE3F8000
00FE3F8000
00FE3F8000
007F7F0000
007F7F0000
007F7F0000
003F7E0000
003FFE0000
003FFE0000
001FFC0000
001FFC0000
001FF80000
000FF80000
000FF80000
ENDCHAR
STARTCHAR W
ENCODING 87
SWIDTH 966 0
DWIDTH 48 0
BBX 48 36 0 0
BITMAP
FF000FF000FF
FF000FF000FF
7F000FF000FE
7F000FF000FE
7F001FF800FE
7F801FF801FE
3F801FF801FC
3F801FF801FC
3F803FFC01FC
3FC03FFC03FC
1FC03FFC03F8
1FC03FFE03F8
1FC07E7E03F8
1FE07E7E07F8
0FE07E7E07F0
0FE0FE7F07F0
0FE0FE7F07F0
0FE0FC3F07F0
07F0FC3F0FE0
07F1FC3F8FE0
07F1FC3F8FE0
07F1F81F8FE0
03F9F81F9FC0
03F9F81F9FC0
03FBF81FDFC0
03FBF00FDFC0
01FBF00FDF80
01FBF00FDF80
01FFF00FFF80
01FFE007FF80
00FFE007FF00
00FFE007FF00
00FFE007FF00
00FFC003FF00
007FC003FE00
007FC003FE00
ENDCHAR
STARTCHAR X
ENCODING 88
SWIDTH 666 0
DWIDTH 33 0
BBX 33 36 0 0
BITMAP
7F8000FF00
3FC001FE00
3FE001FE00
1FE003FC00
0FF007F800
0FF007F800
07F80FF000
07F80FF000
03FC1FE000
01FE1FC000
01FE3FC000
00FF7F8000
007F7F0000
007FFF0000
003FFE0000
003FFE0000
001FFC0000
000FF80000
001FFC0000
003FFC0000
003FFE0000
007FFF0000
00FFFF0000
00FF7F8000
01FE3F8000
01FC3FC000
03FC1FE000
07F81FE000
07F80FF000
0FF00FF800
1FE007F800
1FE003FC00
3FC003FE00
3FC001FE00
7F8001FF00
FF0000FF80
ENDCHAR
STARTCHAR Y
ENCODING 89
SWIDTH 624 0
DWIDTH 31 0
BBX 31 36 0 0
BITMAP
FF0001FE
7F8003FC
7F8003FC
3FC007F8
3FC007F8
1FE00FF0
1FE00FF0
0FF01FE0
0FF01FE0
07F83FC0
03F83F80
03FC7F80
01FC7F00
01FEFF00
00FEFE00
00FFFE00
007FFC00
007FFC00
003FF800
003FF800
001FF000
001FF000
000FE000
000FE000
000FE000
000FE000
000FE000
000FE000
000FE000
000FE000
000FE000
000FE000
000FE000
000FE000
000FE000
000FE000
ENDCHAR
STARTCHAR Z
ENCODING 90
SWIDTH 579 0
DWIDTH 29 0
BBX 27 36 1 0
BITMAP
7FFFFFC0
7FFFFFC0
7FFFFFC0
7FFFFFC0
7FFFFFC0
7FFFFFC0
00007F80
0000FF00
0000FF00
0001FE00
0003FC00
0003FC00
0007F800
000FF000
000FF000
001FE000
003FC000
003FC000
007F8000
00FF0000
00FF0000
01FE0000
03FC0000
07FC0000
07F80000
0FF00000
1FF00000
1FE00000
3FC00000
7FC00000
7FFFFFE0
FFFFFFE0
FFFFFFE0
FFFFFFE0
FFFFFFE0
FFFFFFE0
ENDCHAR
STARTCHAR bracketleft
ENCODING 91
SWIDTH 331 0
DWIDTH 17 0
BBX 12 44 4 -8
BITMAP
FFF0
FFF0
FFF0
FFF0
FFF0
FC00
FC00
FC00
FC00
FC00
FC00
FC00
FC00
FC00
FC00
FC00
FC00
FC00
FC00
FC00
FC00
FC00
FC00
FC00
FC00
FC00
FC00
FC00
FC00
FC00
FC00
FC00
FC00
FC00
FC00
FC00
FC00
FC00
FC00
FFF0
FFF0
FFF0
FFF0
FFF0
ENDCHAR
STARTCHAR backslash
ENCODING 92
SWIDTH 413 0
DWIDTH 21 0
BBX 21 36 0 0
BITMAP
FE0000
7F0000
7F0000
3F0000
3F8000
3F8000
1FC000
1FC000
0FC000
0FE000
0FE000
07E000
07F000
07F000
03F800
03F800
01F800
01FC00
01FC00
00FC00
00FE00
00FE00
007F00
007F00
003F00
003F80
003F80
001F80
001FC0
001FC0
000FE0
000FE0
0007E0
0007F0
0007F0
0003F8
ENDCHAR
STARTCHAR bracketright
ENCODING 93
SWIDTH 331 0
DWIDTH 17 0
BBX 12 44 1 -8
BITMAP
FFF0
FFF0
FFF0
FFF0
FFF0
03F0
03F0
03F0
03F0
03F0
03F0
03F0
03F0
03F0
03F0
03F0
03F0
03F0
03F0
03F0
03F0
03F0
03F0
03F0
03F0
03F0
03F0
03F0
03F0
03F0
03F0
03F0
03F0
03F0
03F0
03F0
03F0
03F0
03F0
FFF0
FFF0
FFF0
FFF0
FFF0
ENDCHAR
STARTCHAR asciicircum
ENCODING 94
SWIDTH 532 0
DWIDTH 27 0
BBX 27 23 0 13
BITMAP
001E0000
003E0000
003F0000
007F0000
007F8000
00FFC000
00FFC000
00FFE000
01FFE000
01F3F000
03F1F000
03E1F800
07E0F800
07C0FC00
0FC07C00
0F807E00
1F803E00
1F003F00
3F001F00
3F001F80
7E000FC0
7E000FC0
FC0007E0
ENDCHAR
STARTCHAR underscore
ENCODING 95
SWIDTH 411 0
DWIDTH 21 0
BBX 21 3 0 -8
BITMAP
FFFFF8
FFFFF8
FFFFF8
ENDCHAR
STARTCHAR grave
ENCODING 96
SWIDTH 606 0
DWIDTH 30 0
BBX 14 8 8 30
BITMAP
FF80
7F80
3FC0
1FE0
07F0
03F0
01F8
00FC
ENDCHAR
STARTCHAR a
ENCODING 97
SWIDTH 604 0
DWIDTH 30 0
BBX 24 28 2 0
BITMAP
00FF80
07FFF0
1FFFF8
1FFFFC
1FFFFE
0FFFFF
0F81FF
0400FF
00007F
00007F
00007F
00FFFF
07FFFF
1FFFFF
3FFFFF
7FE07F
7F807F
FF007F
FF007F
FF00FF
FF01FF
FF83FF
FFFFFF
7FFFBF
7FFF3F
3FFF3F
1FFC1F
07F01F
ENDCHAR
STARTCHAR b
ENCODING 98
SWIDTH 632 0
DWIDTH 32 0
BBX 26 38 4 0
BITMAP
FE000000
FE000000
FE000000
FE000000
FE000000
FE000000
FE000000
FE000000
FE000000
FE000000
FE0FE000
FE3FF800
FE7FFC00
FEFFFE00
FFFFFE00
FFFFFF00
FFC1FF00
FF80FF80
FF007F80
FF007F80
FF003FC0
FE003FC0
FE003FC0
FE003FC0
FE003FC0
FE003FC0
FE003FC0
FF003FC0
FF007F80
FF007F80
FF80FF80
FFC1FF80
FFFFFF00
FFFFFE00
FFFFFE00
FEFFFC00
FC7FF000
FC0FC000
ENDCHAR
STARTCHAR c
ENCODING 99
SWIDTH 514 0
DWIDTH 26 0
BBX 22 28 2 0
BITMAP
007FE0
01FFFC
07FFFC
0FFFFC
1FFFF8
3FFFF8
3FE078
7FC000
7F8000
7F8000
7F0000
FF0000
FF0000
FF0000
FF0000
FF0000
FF0000
FF0000
7F0000
7F8000
7FC00C
3FE03C
3FFFFC
1FFFFC
1FFFFC
0FFFFC
03FFF8
007FC0
ENDCHAR
STARTCHAR d
ENCODING 100
SWIDTH 632 0
DWIDTH 32 0
BBX 26 38 2 0
BITMAP
00001FC0
00001FC0
00001FC0
00001FC0
00001FC0
00001FC0
00001FC0
00001FC0
00001FC0
00001FC0
00FC1FC0
07FF1FC0
0FFFDFC0
1FFFFFC0
1FFFFFC0
3FFFFFC0
7FE0FFC0
7FC07FC0
7F803FC0
7F001FC0
FF001FC0
FF001FC0
FF001FC0
FF001FC0
FF001FC0
FF001FC0
FF001FC0
FF001FC0
7F001FC0
7F803FC0
7FC03FC0
7FE0FFC0
3FFFFFC0
3FFFFFC0
1FFFDFC0
0FFF9FC0
07FF0FC0
01FC0FC0
ENDCHAR
STARTCHAR e
ENCODING 101
SWIDTH 590 0
DWIDTH 30 0
BBX 26 28 2 0
BITMAP
007FC000
01FFF000
07FFFC00
0FFFFE00
1FFFFF00
3FE0FF00
3FC07F80
7F803F80
7F003F80
7F001FC0
7F001FC0
FFFFFFC0
FFFFFFC0
FFFFFFC0
FFFFFFC0
FFFFFFC0
FF000000
7F000000
7F000000
7F800000
7FC00100
3FF00F00
3FFFFF00
1FFFFF00
0FFFFF00
07FFFF00
01FFFE00
003FF000
ENDCHAR
STARTCHAR f
ENCODING 102
SWIDTH 387 0
DWIDTH 19 0
BBX 20 38 1 0
BITMAP
007FC0
01FFF0
03FFF0
07FFE0
07FFE0
0FFFE0
0FF800
0FF000
0FE000
0FE000
0FE000
1FFFC0
7FFFC0
FFFFC0
FFFFC0
FFFFC0
FFFFC0
0FE000
0FE000
0FE000
0FE000
0FE000
0FE000
0FE000
0FE000
0FE000
0FE000
0FE000
0FE000
0FE000
0FE000
0FE000
0FE000
0FE000
0FE000
0FE000
0FE000
0FE000
ENDCHAR
STARTCHAR g
ENCODING 103
SWIDTH 564 0
DWIDTH 28 0
BBX 27 40 0 -12
BITMAP
007F0000
03FFFFE0
07FFFFE0
0FFFFFE0
1FE1FFE0
1FC0FF80
1FC07E00
3F807F00
3F807F00
3F807F00
3F807F00
3F807F00
1FC07F00
1FC0FF00
0FE1FE00
0FFFFC00
07FFF800
01FFF000
07FF8000
0FC00000
0F800000
1FC00000
1FFFFC00
0FFFFF00
07FFFF80
03FFFFC0
0FFFFFE0
3FFFFFE0
7F801FE0
7E000FE0
FE000FE0
FE000FE0
FE000FE0
FE001FC0
FF807FC0
7FFFFF80
7FFFFF00
3FFFFE00
0FFFF800
01FF8000
ENDCHAR
STARTCHAR h
ENCODING 104
SWIDTH 657 0
DWIDTH 33 0
BBX 25 38 4 0
BITMAP
FE000000
FE000000
FE000000
FE000000
FE000000
FE000000
FE000000
FE000000
FE000000
FE000000
FE0FE000
FE3FF800
FE7FFE00
FEFFFE00
FFFFFF00
FFFFFF80
FFE1FF80
FF807F80
FF807F80
FF003F80
FF003F80
FF003F80
FE003F80
FE003F80
FE003F80
FE003F80
FE003F80
FE003F80
FE003F80
FE003F80
FE003F80
FE003F80
FE003F80
FE003F80
FE003F80
FE003F80
FE003F80
FE003F80
ENDCHAR
STARTCHAR i
ENCODING 105
SWIDTH 305 0
DWIDTH 15 0
BBX 8 38 4 0
BITMAP
7C
FE
FF
FF
FF
FE
7C
00
00
00
00
FE
FE
FE
FE
FE
FE
FE
FE
FE
FE
FE
FE
FE
FE
FE
FE
FE
FE
FE
FE
FE
FE
FE
FE
FE
FE
FE
ENDCHAR
STARTCHAR j
ENCODING 106
SWIDTH 305 0
DWIDTH 15 0
BBX 15 50 -3 -12
BITMAP
00F8
01FC
01FE
01FE
01FE
01FC
00F8
0000
0000
0000
0000
01FC
01FC
01FC
01FC
01FC
01FC
01FC
01FC
01FC
01FC
01FC
01FC
01FC
01FC
01FC
01FC
01FC
01FC
01FC
01FC
01FC
01FC
01FC
01FC
01FC
01FC
01FC
01FC
01FC
01FC
01FC
03FC
07FC
FFFC
FFF8
FFF8
FFF0
FFE0
FF00
ENDCHAR
STARTCHAR k
ENCODING 107
SWIDTH 620 0
DWIDTH 31 0
BBX 27 38 4 0
BITMAP
FE000000
FE000000
FE000000
FE000000
FE000000
FE000000
FE000000
FE000000
FE000000
FE000000
FE000000
FE007FC0
FE007F80
FE00FF00
FE01FE00
FE03FC00
FE07F800
FE0FF000
FE1FE000
FE3FC000
FE7FC000
FEFF8000
FEFF0000
FFFF0000
FFFF8000
FFFFC000
FFFFC000
FFDFE000
FF8FF000
FF0FF800
FE07F800
FE03FC00
FE03FE00
FE01FF00
FE00FF00
FE007F80
FE007FC0
FE003FE0
ENDCHAR
STARTCHAR l
ENCODING 108
SWIDTH 305 0
DWIDTH 15 0
BBX 7 38 4 0
BITMAP
FE
FE
FE
FE
FE
FE
FE
FE
FE
FE
FE
FE
FE
FE
FE
FE
FE
FE
FE
FE
FE
FE
FE
FE
FE
FE
FE
FE
FE
FE
FE
FE
FE
FE
FE
FE
FE
FE
ENDCHAR
STARTCHAR m
ENCODING 109
SWIDTH 981 0
DWIDTH 49 0
BBX 41 28 4 0
BITMAP
000FE00FF000
FC7FF83FFC00
FCFFFC7FFE00
FDFFFEFFFF00
FFFFFFFFFF00
FFFFFFFFFF80
FFC1FFE0FF80
FF80FFC07F80
FF00FF807F80
FF007F803F80
FF007F803F80
FF007F003F80
FE007F003F80
FE007F003F80
FE007F003F80
FE007F003F80
FE007F003F80
FE007F003F80
FE007F003F80
FE007F003F80
FE007F003F80
FE007F003F80
FE007F003F80
FE007F003F80
FE007F003F80
FE007F003F80
FE007F003F80
FE007F003F80
ENDCHAR
STARTCHAR n
ENCODING 110
SWIDTH 657 0
DWIDTH 33 0
BBX 25 28 4 0
BITMAP
000FE000
FC3FF800
FCFFFE00
FDFFFF00
FFFFFF00
FFFFFF80
FFE0FF80
FF807F80
FF807F80
FF003F80
FF003F80
FF003F80
FE003F80
FE003F80
FE003F80
FE003F80
FE003F80
FE003F80
FE003F80
FE003F80
FE003F80
FE003F80
FE003F80
FE003F80
FE003F80
FE003F80
FE003F80
FE003F80
ENDCHAR
STARTCHAR o
ENCODING 111
SWIDTH 619 0
DWIDTH 31 0
BBX 27 28 2 0
BITMAP
007FC000
01FFF000
07FFFC00
0FFFFE00
1FFFFF00
3FFFFF80
3FE0FF80
7FC07FC0
7F803FC0
7F001FC0
FF001FC0
FF001FE0
FF001FE0
FF001FE0
FF001FE0
FF001FE0
FF001FE0
7F001FC0
7F003FC0
7F803FC0
7FC07FC0
3FE0FF80
3FFFFF80
1FFFFF00
0FFFFE00
07FFFC00
01FFF000
007FC000
ENDCHAR
STARTCHAR p
ENCODING 112
SWIDTH 632 0
DWIDTH 32 0
BBX 26 40 4 -12
BITMAP
000FE000
FC3FF800
FE7FFC00
FEFFFE00
FFFFFE00
FFFFFF00
FFC1FF00
FF80FF80
FF007F80
FF003F80
FF003F80
FE003FC0
FE003FC0
FE003FC0
FE003FC0
FE003FC0
FF003FC0
FF003F80
FF003F80
FF007F80
FF80FF80
FFC1FF00
FFFFFF00
FFFFFE00
FFFFFE00
FEFFFC00
FE3FF800
FE0FC000
FE000000
FE000000
FE000000
FE000000
FE000000
FE000000
FE000000
FE000000
FE000000
FE000000
FE000000
FE000000
ENDCHAR
STARTCHAR q
ENCODING 113
SWIDTH 632 0
DWIDTH 32 0
BBX 26 40 2 -12
BITMAP
00FC0000
07FF0FC0
0FFFDFC0
1FFFFFC0
1FFFFFC0
3FFFFFC0
7FE0FFC0
7FC07FC0
7F803FC0
7F001FC0
FF001FC0
FF001FC0
FF001FC0
FF001FC0
FF001FC0
FF001FC0
FF001FC0
FF001FC0
7F001FC0
7F803FC0
7FC03FC0
7FE0FFC0
3FFFFFC0
3FFFFFC0
1FFFDFC0
0FFF9FC0
07FF1FC0
01FC1FC0
00001FC0
00001FC0
00001FC0
00001FC0
00001FC0
00001FC0
00001FC0
00001FC0
00001FC0
00001FC0
00001FC0
00001FC0
ENDCHAR
STARTCHAR r
ENCODING 114
SWIDTH 454 0
DWIDTH 23 0
BBX 18 28 4 0
BITMAP
000FC0
FC3FC0
FC7FC0
FCFFC0
FFFFC0
FFFFC0
FFFF80
FFF000
FFC000
FF8000
FF0000
FF0000
FE0000
FE0000
FE0000
FE0000
FE0000
FE0000
FE0000
FE0000
FE0000
FE0000
FE0000
FE0000
FE0000
FE0000
FE0000
FE0000
ENDCHAR
STARTCHAR s
ENCODING 115
SWIDTH 497 0
DWIDTH 25 0
BBX 21 28 2 0
BITMAP
01FF00
0FFFE0
1FFFF8
3FFFF0
7FFFF0
7FFFF0
FF03E0
FF0060
FF0000
FF8000
7FF000
7FFC00
3FFF00
1FFFC0
07FFE0
01FFF0
007FF8
000FF8
0007F8
0003F8
C003F8
FC07F8
FFFFF8
FFFFF0
FFFFE0
FFFFC0
7FFF80
0FFC00
ENDCHAR
STARTCHAR t
ENCODING 116
SWIDTH 434 0
DWIDTH 22 0
BBX 19 33 1 0
BITMAP
03E000
03E000
03E000
07E000
07E000
0FE000
1FFFE0
3FFFE0
FFFFE0
FFFFE0
FFFFE0
FFFFE0
0FE000
0FE000
0FE000
0FE000
0FE000
0FE000
0FE000
0FE000
0FE000
0FE000
0FE000
0FE000
0FE000
0FE000
0FF020
0FFFE0
0FFFE0
07FFE0
03FFE0
01FFE0
007F80
ENDCHAR
STARTCHAR u
ENCODING 117
SWIDTH 657 0
DWIDTH 33 0
BBX 25 27 4 0
BITMAP
FE003F80
FE003F80
FE003F80
FE003F80
FE003F80
FE003F80
FE003F80
FE003F80
FE003F80
FE003F80
FE003F80
FE003F80
FE003F80
FE003F80
FE003F80
FE007F80
FE007F80
FE007F80
FF007F80
FF00FF80
FF83FF80
FFFFFF80
7FFFFF80
7FFFDF80
3FFF9F80
1FFE1F80
03F81F80
ENDCHAR
STARTCHAR v
ENCODING 118
SWIDTH 568 0
DWIDTH 28 0
BBX 28 27 0 0
BITMAP
FF000FF0
7F000FE0
7F801FE0
7F801FE0
3F801FC0
3FC03FC0
3FC03FC0
1FC03F80
1FE07F80
0FE07F00
0FE07F00
0FF0FF00
07F0FE00
07F0FE00
07F9FE00
03F9FC00
03F9FC00
01F9F800
01FFF800
01FFF800
00FFF000
00FFF000
00FFF000
007FE000
007FE000
003FC000
003FC000
ENDCHAR
STARTCHAR w
ENCODING 119
SWIDTH 855 0
DWIDTH 43 0
BBX 41 27 1 0
BITMAP
FE00FF803F80
FE00FF803F80
FF00FF803F80
FF00FFC07F80
7F01FFC07F00
7F01FFC07F00
7F81F7C0FF00
3F83F7E0FE00
3F83F7E0FE00
3F83E7E0FE00
1FC3E3E1FC00
1FC7E3F1FC00
1FC7E3F1FC00
1FC7E3F1FC00
0FE7C1F3F800
0FE7C1F3F800
0FEFC1FBF800
07EFC1FBF000
07EF80FBF000
07EF80FFF000
07FF80FFF000
03FF80FFE000
03FF00FFE000
03FF007FE000
01FF007FC000
01FF007FC000
01FE007FC000
ENDCHAR
STARTCHAR x
ENCODING 120
SWIDTH 578 0
DWIDTH 29 0
BBX 27 27 1 0
BITMAP
FF001FE0
7F803FC0
7FC07FC0
3FC07F80
1FE0FF00
1FF1FF00
0FF1FE00
07FBFC00
07FBFC00
03FFF800
01FFF000
01FFF000
00FFE000
00FFE000
00FFE000
01FFF000
03FFF800
03FFF800
07FBFC00
0FF1FE00
0FF1FE00
1FE0FF00
3FE0FF80
3FC07F80
7F803FC0
FF803FE0
FF001FE0
ENDCHAR
STARTCHAR y
ENCODING 121
SWIDTH 568 0
DWIDTH 28 0
BBX 28 39 0 -12
BITMAP
FF000FF0
7F800FE0
7F801FE0
7F801FE0
3FC01FC0
3FC03FC0
1FC03FC0
1FE03F80
1FE07F80
0FE07F00
0FF07F00
07F0FF00
07F0FE00
07F8FE00
03F9FE00
03F9FC00
03F9FC00
01FDFC00
01FFF800
00FFF800
00FFF000
00FFF000
007FF000
007FE000
003FE000
003FE000
003FC000
003FC000
003F8000
003F8000
007F8000
00FF0000
01FF0000
3FFE0000
3FFE0000
3FFC0000
3FF80000
3FE00000
3F800000
ENDCHAR
STARTCHAR z
ENCODING 122
SWIDTH 487 0
DWIDTH 24 0
BBX 22 27 1 0
BITMAP
7FFFF8
7FFFF8
7FFFF8
7FFFF8
7FFFF8
7FFFF8
000FF0
001FE0
001FE0
003FC0
007F80
00FF00
00FF00
01FE00
03FC00
07F800
07F800
0FF000
1FE000
3FC000
3FC000
7FFFFC
FFFFFC
FFFFFC
FFFFFC
FFFFFC
FFFFFC
ENDCHAR
STARTCHAR braceleft
ENCODING 123
SWIDTH 394 0
DWIDTH 20 0
BBX 17 44 1 -8
BITMAP
001F80
007F80
00FF80
01FF80
01FF80
03FF80
03FC00
03F800
03F800
03F800
03F800
03F800
03F800
03F800
03F800
03F800
03F800
07F800
0FF000
FFF000
FFE000
FF0000
FF8000
FFE000
FFF000
1FF000
07F800
03F800
03F800
03F800
03F800
03F800
03F800
03F800
03F800
03F800
03F800
03FC00
03FF80
01FF80
01FF80
00FF80
007F80
001F80
ENDCHAR
STARTCHAR bar
ENCODING 124
SWIDTH 550 0
DWIDTH 28 0
BBX 6 49 11 -11
BITMAP
FC
FC
FC
FC
FC
FC
FC
FC
FC
FC
FC
FC
FC
FC
FC
FC
FC
FC
FC
FC
FC
FC
FC
FC
FC
FC
FC
FC
FC
FC
FC
FC
FC
FC
FC
FC
FC
FC
FC
FC
FC
FC
FC
FC
FC
FC
FC
FC
FC
ENDCHAR
STARTCHAR braceright
ENCODING 125
SWIDTH 394 0
DWIDTH 20 0
BBX 17 44 2 -8
BITMAP
FC0000
FF0000
FFC000
FFC000
FFE000
FFE000
1FE000
0FE000
0FE000
0FE000
0FE000
0FE000
0FE000
0FE000
0FE000
0FE000
0FE000
0FF000
07F800
07FF80
03FF80
00FF80
00FF80
03FF80
07FF80
07F800
0FF000
0FE000
0FE000
0FE000
0FE000
0FE000
0FE000
0FE000
0FE000
0FE000
0FE000
1FE000
FFE000
FFE000
FFC000
FFC000
FF0000
FC0000
ENDCHAR
STARTCHAR asciitilde
ENCODING 126
SWIDTH 570 0
DWIDTH 29 0
BBX 25 9 2 13
BITMAP
0FC00080
3FF00180
7FFE0380
FFFFCF80
FFFFFF80
F9FFFF80
E03FFF00
C00FFE00
8001F800
ENDCHAR
STARTCHAR nonbreakingspace
ENCODING 160
SWIDTH 259 0
DWIDTH 13 0
BBX 1 1 0 0
BITMAP
00
ENDCHAR
STARTCHAR exclamdown
ENCODING 161
SWIDTH 286 0
DWIDTH 14 0
BBX 8 36 3 -9
BITMAP
3C
FE
FF
FF
FF
FF
FE
7C
00
00
00
00
7E
7E
7E
7E
7E
7E
7E
FE
FE
FE
FE
FE
FE
FE
FF
FF
FF
FF
FF
FF
FF
FF
FF
FF
ENDCHAR
STARTCHAR cent
ENCODING 162
SWIDTH 570 0
DWIDTH 29 0
BBX 22 36 4 0
BITMAP
003C00
003C00
003C00
003C00
00FFC0
03FFF8
0FFFFC
1FFFF8
3FFFF8
7FFFF0
7FC0F0
FF8010
FF0000
FF0000
FE0000
FE0000
FE0000
FE0000
FE0000
FE0000
FE0000
FF0000
FF0000
FF8008
7FC078
7FFFF8
3FFFF8
1FFFF8
0FFFF8
07FFF8
00FFC0
003C00
003C00
003C00
003C00
003C00
ENDCHAR
STARTCHAR sterling
ENCODING 163
SWIDTH 570 0
DWIDTH 29 0
BBX 26 36 2 0
BITMAP
001FF000
007FFF00
01FFFF80
01FFFF00
03FFFF00
07FFFF00
07FC1E00
07F80200
07F00000
0FF00000
0FF00000
0FF00000
0FF00000
0FF00000
0FF00000
FFFFF800
FFFFF800
FFFFF800
FFFFF800
FFFFF800
0FF00000
0FF00000
0FF00000
0FF00000
0FF00000
0FF00000
0FE00000
0FE00000
1FC00000
3F800000
FFFFFFC0
FFFFFFC0
FFFFFFC0
FFFFFFC0
FFFFFFC0
FFFFFFC0
ENDCHAR
STARTCHAR currency
ENCODING 164
SWIDTH 570 0
DWIDTH 29 0
BBX 23 23 3 6
BITMAP
100010
380038
7CFE7C
FFFFFE
7FFFFC
3FFFF8
1FFFF0
1F83F0
3F01F8
3E00F8
3E00F8
3E00F8
3E00F8
3E00F8
3F01F8
1F83F0
1FFFF0
3FFFF8
7FFFFC
FFFFFE
7CFE7C
380038
100010
ENDCHAR
STARTCHAR yen
ENCODING 165
SWIDTH 570 0
DWIDTH 29 0
BBX 29 36 0 0
BITMAP
FF0007F8
7F800FF0
7F800FE0
3F800FE0
3FC01FC0
1FC01FC0
0FE03F80
0FE03F80
07F07F00
07F07F00
03F8FE00
03F8FE00
01FDFC00
01FDFC00
00FFF800
00FFF800
007FF000
007FF000
07FFFF00
07FFFF00
07FFFF00
07FFFF00
001FC000
001FC000
001FC000
001FC000
07FFFF00
07FFFF00
07FFFF00
07FFFF00
001FC000
001FC000
001FC000
001FC000
001FC000
001FC000
ENDCHAR
STARTCHAR brokenbar
ENCODING 166
SWIDTH 550 0
DWIDTH 28 0
BBX 6 49 11 -11
BITMAP
FC
FC
FC
FC
FC
FC
FC
FC
FC
FC
FC
FC
FC
FC
FC
FC
FC
FC
FC
FC
00
00
00
00
00
00
00
00
00
FC
FC
FC
FC
FC
FC
FC
FC
FC
FC
FC
FC
FC
FC
FC
FC
FC
FC
FC
FC
ENDCHAR
STARTCHAR section
ENCODING 167
SWIDTH 485 0
DWIDTH 24 0
BBX 19 38 3 0
BITMAP
03FC00
1FFFC0
3FFFC0
7FFFC0
FE0780
FC0180
FC0000
FC0000
FE0000
7F8000
7FE000
3FF800
1FFE00
3FFF00
7EFF80
FC3FC0
FC0FC0
F80FC0
F807E0
FC07E0
FE07C0
7F07C0
7FCFC0
3FFF80
1FFF80
07FF00
01FF80
007FC0
001FC0
000FE0
0007E0
0007E0
C00FC0
F81FC0
FFFF80
FFFF00
FFFE00
1FF000
ENDCHAR
STARTCHAR dieresis
ENCODING 168
SWIDTH 606 0
DWIDTH 30 0
BBX 17 6 7 31
BITMAP
FC3F00
FC3F00
FE3F80
FE3F80
FC3F00
781E00
ENDCHAR
STARTCHAR copyright
ENCODING 169
SWIDTH 832 0
DWIDTH 42 0
BBX 38 36 2 0
BITMAP
0001FE0000
000FFFC000
003FFFF000
00FFFFFC00
01F800FE00
03E0001F00
07C0000F80
0F80FF07C0
1F03FFC3E0
1E0FFFE1E0
3C0FFFE0F0
3C1FFFC0F0
783F80C078
783F000078
703F000038
707E000038
707E000038
F07E00003C
F07E00003C
707E000038
703E000038
703F000038
783F000078
783F804078
3C1FFFC0F0
3C0FFFC0F0
1E07FFC1E0
1F03FFC3E0
0F80FF07C0
07C0000F80
03E0001F00
01F8007E00
00FFDFFC00
003FFFF000
001FFFE000
0003FF0000
ENDCHAR
STARTCHAR ordfeminine
ENCODING 170
SWIDTH 382 0
DWIDTH 19 0
BBX 16 18 1 18
BITMAP
07F0
3FFC
7FFE
3FFE
383F
001F
001F
0FFF
3FFF
7FFF
FC1F
F81F
F81F
F83F
FFFF
7FEF
3FCF
1F8F
ENDCHAR
STARTCHAR guillemotleft
ENCODING 171
SWIDTH 615 0
DWIDTH 31 0
BBX 26 23 3 2
BITMAP
00C00C00
01E01E00
01F81F80
03FC3FC0
07F87F80
0FF0FF00
1FE1FE00
1FC1FC00
3FC3FC00
7F87F800
FF0FF000
FE0FE000
FF0FF000
7F87F800
3FC3FC00
1FC1FC00
1FE1FE00
0FF0FF00
07F87F80
03FC3FC0
01F81F80
01E01E00
00C00C00
ENDCHAR
STARTCHAR logicalnot
ENCODING 172
SWIDTH 570 0
DWIDTH 29 0
BBX 25 14 2 6
BITMAP
FFFFFF80
FFFFFF80
FFFFFF80
FFFFFF80
FFFFFF80
00001F80
00001F80
00001F80
00001F80
00001F80
00001F80
00001F80
00001F80
00001F80
ENDCHAR
STARTCHAR uni00AD
ENCODING 173
SWIDTH 321 0
DWIDTH 16 0
BBX 14 6 1 10
BITMAP
FFFC
FFFC
FFFC
FFFC
FFFC
FFFC
ENDCHAR
STARTCHAR registered
ENCODING 174
SWIDTH 832 0
DWIDTH 42 0
BBX 38 36 2 0
BITMAP
0001FE0000
000FFFC000
003FFFF000
00FFFFFC00
01F800FE00
03E0001F00
07C0000F80
0F9FFC07C0
1F1FFF03E0
1E1FFF81E0
3C1FFFC0F0
3C1F8FC0F0
781F87C078
781F87C078
701F87C038
701F87C038
701F8FC038
F01FFF803C
F01FFF803C
701FFE0038
701FFF0038
701FBF0038
781F9F8078
781F8F8078
3C1F8FC0F0
3C1F87E0F0
1E1F87E1E0
1F1F83F3E0
0F9F83FFC0
07C0000F80
03E0001F00
01F8007E00
00FFDFFC00
003FFFF000
001FFFE000
0003FF0000
ENDCHAR
STARTCHAR overscore
ENCODING 175
SWIDTH 500 0
DWIDTH 25 0
BBX 25 5 0 38
BITMAP
FFFFFF80
FFFFFF80
FFFFFF80
FFFFFF80
FFFFFF80
ENDCHAR
STARTCHAR degree
ENCODING 176
SWIDTH 428 0
DWIDTH 21 0
BBX 17 17 2 19
BITMAP
03E000
0FF800
1FFE00
3FFE00
7FFF00
7C1F00
F80F80
F80F80
F80F80
F80F80
F80F80
7C1F00
7FFF00
3FFE00
1FFE00
0FF800
03E000
ENDCHAR
STARTCHAR plusminus
ENCODING 177
SWIDTH 570 0
DWIDTH 29 0
BBX 25 32 2 0
BITMAP
003E0000
003E0000
003E0000
003E0000
003E0000
003E0000
003E0000
003E0000
003E0000
003E0000
FFFFFF80
FFFFFF80
FFFFFF80
FFFFFF80
FFFFFF80
003E0000
003E0000
003E0000
003E0000
003E0000
003E0000
003E0000
003E0000
003E0000
003E0000
00000000
00000000
FFFFFF80
FFFFFF80
FFFFFF80
FFFFFF80
FFFFFF80
ENDCHAR
STARTCHAR twosuperior
ENCODING 178
SWIDTH 378 0
DWIDTH 19 0
BBX 16 22 1 14
BITMAP
07F0
3FF8
7FFC
FFFE
7FFE
387F
103F
003E
007E
007E
00FC
01F8
03F0
07F0
0FC0
1F80
3F00
7FFF
FFFF
FFFF
FFFF
FFFF
ENDCHAR
STARTCHAR threesuperior
ENCODING 179
SWIDTH 378 0
DWIDTH 19 0
BBX 16 22 1 14
BITMAP
07E0
3FF8
7FFC
7FFE
3C7E
103E
003E
003E
007C
0FF8
0FE0
0FF8
0FFE
007E
003F
001F
C03F
F87F
FFFE
FFFE
7FFC
1FF0
ENDCHAR
STARTCHAR acute
ENCODING 180
SWIDTH 606 0
DWIDTH 30 0
BBX 14 8 8 30
BITMAP
07FC
07F8
0FF0
1FE0
3FC0
3F00
7E00
FC00
ENDCHAR
STARTCHAR mu
ENCODING 181
SWIDTH 660 0
DWIDTH 33 0
BBX 25 39 4 -12
BITMAP
FE003F80
FE003F80
FE003F80
FE003F80
FE003F80
FE003F80
FE003F80
FE003F80
FE003F80
FE003F80
FE003F80
FE003F80
FE003F80
FE003F80
FE003F80
FE007F80
FE007F80
FF007F80
FF007F80
FF00FF80
FFC3FF80
FFFFFF80
FFFFFF80
FFFFDF80
FFFF9F80
FEFF1F80
FE7E1F80
FE000000
FE000000
FE000000
FE000000
FE000000
FE000000
FE000000
FE000000
FE000000
FE000000
FE000000
FE000000
ENDCHAR
STARTCHAR paragraph
ENCODING 182
SWIDTH 654 0
DWIDTH 33 0
BBX 26 44 3 -6
BITMAP
01FFFFC0
0FFFFFC0
1FFFFFC0
3FFFFFC0
7FFFFFC0
7FFFC3C0
7FFFC3C0
FFFFC3C0
FFFFC3C0
FFFFC3C0
FFFFC3C0
FFFFC3C0
FFFFC3C0
FFFFC3C0
FFFFC3C0
FFFFC3C0
FFFFC3C0
FFFFC3C0
7FFFC3C0
7FFFC3C0
7FFFC3C0
3FFFC3C0
1FFFC3C0
0FFFC3C0
03FFC3C0
0003C3C0
0003C3C0
0003C3C0
0003C3C0
0003C3C0
0003C3C0
0003C3C0
0003C3C0
0003C3C0
0003C3C0
0003C3C0
0003C3C0
0003C3C0
0003C3C0
0003C3C0
0003C3C0
0003C3C0
0003C3C0
0003C3C0
ENDCHAR
STARTCHAR periodcentered
ENCODING 183
SWIDTH 285 0
DWIDTH 14 0
BBX 8 8 3 14
BITMAP
3E
7F
FF
FF
FF
FF
7F
3E
ENDCHAR
STARTCHAR cedilla
ENCODING 184
SWIDTH 205 0
DWIDTH 10 0
BBX 11 12 -1 -12
BITMAP
1F00
3E00
3F00
7FC0
0FE0
07E0
07E0
87E0
FFE0
FFC0
FF80
FE00
ENDCHAR
STARTCHAR onesuperior
ENCODING 185
SWIDTH 378 0
DWIDTH 19 0
BBX 11 22 3 14
BITMAP
03E0
07E0
1FE0
3FE0
7FE0
FFE0
FBE0
73E0
23E0
07E0
07E0
07E0
07E0
07E0
07E0
07E0
07E0
07E0
07E0
07E0
07E0
07E0
ENDCHAR
STARTCHAR ordmasculine
ENCODING 186
SWIDTH 388 0
DWIDTH 19 0
BBX 17 18 1 18
BITMAP
07F000
1FF800
3FFC00
3FFE00
7E3F00
7C1F00
7C1F00
F80F80
F80F80
F80F80
F81F80
7C1F00
7C1F00
7E3F00
3FFE00
3FFE00
0FF800
03E000
ENDCHAR
STARTCHAR guillemotright
ENCODING 187
SWIDTH 615 0
DWIDTH 31 0
BBX 26 23 2 2
BITMAP
0C00C000
1E01E000
7E07E000
FF0FF000
7F87F800
3FC3FC00
1FE1FE00
0FE0FE00
0FF0FF00
07F87F80
03FC3FC0
01FC1FC0
03FC3FC0
07F87F80
0FF0FF00
0FE0FE00
1FE1FE00
3FC3FC00
7F87F800
FF0FF000
7E07E000
1E01E000
0C00C000
ENDCHAR
STARTCHAR onequarter
ENCODING 188
SWIDTH 880 0
DWIDTH 44 0
BBX 39 36 2 0
BITMAP
03E0007E00
07E0007E00
1FE000FC00
3FE000FC00
7FE001F800
FFE001F000
FFE003F000
77E007E000
47E007E000
07E00FC000
07E00FC000
07E01F8000
07E01F8000
07E03F0000
07E03E03F0
07E07E07F0
07E07C07F0
07E0FC0FF0
07E1F81FF0
07E1F81FF0
07E3F03FF0
07E3F07BF0
0007E07BF0
0007E0F3F0
000FC1F3F0
000F81E3F0
001F83C3F0
003F07C3F0
003F07FFFE
007E07FFFE
007E07FFFE
00FC07FFFE
00FC0003F0
01F80003F0
01F00003F0
03F00003F0
ENDCHAR
STARTCHAR onehalf
ENCODING 189
SWIDTH 880 0
DWIDTH 44 0
BBX 40 36 2 0
BITMAP
03E0007E00
07E0007E00
1FE000FC00
3FE000FC00
7FE001F800
FFE001F000
FFE003F000
77E007E000
47E007E000
07E00FC000
07E00FC000
07E01F8000
07E01F8000
07E03F0000
07E03E07E0
07E07E3FF8
07E07C7FFC
07E0FCFFFE
07E1F87FFE
07E1F8387E
07E3F0007E
07E3F0007E
0007E0007E
0007E000FE
000FC000FC
000F8001F8
001F8003F0
003F0007E0
003F000FC0
007E001F80
007E003F00
00FC00FFFF
00FC00FFFF
01F800FFFF
01F000FFFF
03F000FFFF
ENDCHAR
STARTCHAR threequarters
ENCODING 190
SWIDTH 880 0
DWIDTH 44 0
BBX 40 36 2 0
BITMAP
0FE0001F80
3FF8001F00
FFFC003F00
7FFE007E00
3C7E007E00
303E00FC00
003E00FC00
003E01F800
00FC01F800
0FF803F000
0FE003E000
0FF807E000
0FFC0FC000
007E0FC000
003F1F81F8
003F1F83F8
C03F3F07F8
F07F3F07F8
FFFE7E0FF8
FFFE7C1FF8
7FF8FC1FF8
1FE0F83DF8
0001F87DF8
0003F079F8
0003F0F1F8
0007E1F1F8
0007E1E1F8
000FC3C1F8
000FC3FFFF
001F83FFFF
001F03FFFF
003F03FFFF
007E0001F8
007E0001F8
00FC0001F8
00FC0001F8
ENDCHAR
STARTCHAR questiondown
ENCODING 191
SWIDTH 477 0
DWIDTH 24 0
BBX 23 37 1 -10
BITMAP
001E00
007F80
007F80
007F80
007F80
007F80
007F80
001E00
000000
000000
000000
000000
003F80
003F80
003F00
003F00
007F00
00FF00
01FE00
07FC00
0FF800
1FF000
3FE000
3FC000
7F8000
7F0000
7F0000
FF0000
7F0000
7F0038
7F81FC
7FFFFC
3FFFFC
3FFFFE
1FFFFC
07FFF0
00FF00
ENDCHAR
STARTCHAR Agrave
ENCODING 192
SWIDTH 689 0
DWIDTH 35 0
BBX 35 46 0 0
BITMAP
00FF800000
007F800000
003FC00000
001FE00000
0007F00000
0003F80000
0001F80000
00007C0000
0000000000
0000000000
0007FC0000
000FFE0000
000FFE0000
000FFE0000
001FFF0000
001FFF0000
001FBF0000
003FBF8000
003FBF8000
007F1FC000
007F1FC000
007F1FC000
00FE0FE000
00FE0FE000
00FE0FE000
01FC07F000
01FC07F000
01FC07F000
03FC03F800
03F803F800
03F803F800
07FFFFFC00
07FFFFFC00
0FFFFFFE00
0FFFFFFE00
0FFFFFFE00
1FFFFFFF00
1FE000FF00
1FC0007F00
3FC0007F80
3FC0007F80
3FC0003F80
7F80003FC0
7F80003FC0
7F80003FC0
FF00001FE0
ENDCHAR
STARTCHAR Aacute
ENCODING 193
SWIDTH 689 0
DWIDTH 35 0
BBX 35 46 0 0
BITMAP
00001FE000
00003FC000
00007F8000
0000FF0000
0001FE0000
0001F80000
0003F00000
0007E00000
0000000000
0000000000
0007FC0000
000FFE0000
000FFE0000
000FFE0000
001FFF0000
001FFF0000
001FBF0000
003FBF8000
003FBF8000
007F1FC000
007F1FC000
007F1FC000
00FE0FE000
00FE0FE000
00FE0FE000
01FC07F000
01FC07F000
01FC07F000
03FC03F800
03F803F800
03F803F800
07FFFFFC00
07FFFFFC00
0FFFFFFE00
0FFFFFFE00
0FFFFFFE00
1FFFFFFF00
1FE000FF00
1FC0007F00
3FC0007F80
3FC0007F80
3FC0003F80
7F80003FC0
7F80003FC0
7F80003FC0
FF00001FE0
ENDCHAR
STARTCHAR Acircumflex
ENCODING 194
SWIDTH 689 0
DWIDTH 35 0
BBX 35 46 0 0
BITMAP
000FFC0000
000FFC0000
001FFE0000
003FFF0000
007F3F8000
00FE1FC000
01FC0FE000
03F003F000
0000000000
0000000000
0007FC0000
000FFE0000
000FFE0000
000FFE0000
001FFF0000
001FFF0000
001FBF0000
003FBF8000
003FBF8000
007F1FC000
007F1FC000
007F1FC000
00FE0FE000
00FE0FE000
00FE0FE000
01FC07F000
01FC07F000
01FC07F000
03FC03F800
03F803F800
03F803F800
07FFFFFC00
07FFFFFC00
0FFFFFFE00
0FFFFFFE00
0FFFFFFE00
1FFFFFFF00
1FE000FF00
1FC0007F00
3FC0007F80
3FC0007F80
3FC0003F80
7F80003FC0
7F80003FC0
7F80003FC0
FF00001FE0
ENDCHAR
STARTCHAR Atilde
ENCODING 195
SWIDTH 689 0
DWIDTH 35 0
BBX 35 46 0 0
BITMAP
001F00E000
003FC1E000
007FE3E000
00FFFFE000
00FFFFC000
01F1FFC000
01E07F8000
01E01E0000
0000000000
0000000000
0007FC0000
000FFE0000
000FFE0000
000FFE0000
001FFF0000
001FFF0000
001FBF0000
003FBF8000
003FBF8000
007F1FC000
007F1FC000
007F1FC000
00FE0FE000
00FE0FE000
00FE0FE000
01FC07F000
01FC07F000
01FC07F000
03FC03F800
03F803F800
03F803F800
07FFFFFC00
07FFFFFC00
0FFFFFFE00
0FFFFFFE00
0FFFFFFE00
1FFFFFFF00
1FE000FF00
1FC0007F00
3FC0007F80
3FC0007F80
3FC0003F80
7F80003FC0
7F80003FC0
7F80003FC0
FF00001FE0
ENDCHAR
STARTCHAR Adieresis
ENCODING 196
SWIDTH 689 0
DWIDTH 35 0
BBX 35 45 0 0
BITMAP
003E0F8000
007E1FC000
007F1FC000
007F1FC000
007E1F8000
003C0F0000
0000000000
0000000000
0000000000
0007FC0000
000FFE0000
000FFE0000
000FFE0000
001FFF0000
001FFF0000
001FBF0000
003FBF8000
003FBF8000
007F1FC000
007F1FC000
007F1FC000
00FE0FE000
00FE0FE000
00FE0FE000
01FC07F000
01FC07F000
01FC07F000
03FC03F800
03F803F800
03F803F800
07FFFFFC00
07FFFFFC00
0FFFFFFE00
0FFFFFFE00
0FFFFFFE00
1FFFFFFF00
1FE000FF00
1FC0007F00
3FC0007F80
3FC0007F80
3FC0003F80
7F80003FC0
7F80003FC0
7F80003FC0
FF00001FE0
ENDCHAR
STARTCHAR Aring
ENCODING 197
SWIDTH 689 0
DWIDTH 35 0
BBX 35 45 0 0
BITMAP
0000400000
0003F80000
000FFC0000
000FFE0000
001F1E0000
001E1E0000
001E0E0000
001E1E0000
001F1E0000
000FFE0000
000FFE0000
000FFE0000
000FFE0000
001FFF0000
001FFF0000
001FBF0000
003FBF8000
003FBF8000
007F1FC000
007F1FC000
007F1FC000
00FE0FE000
00FE0FE000
00FE0FE000
01FC07F000
01FC07F000
01FC07F000
03FC03F800
03F803F800
03F803F800
07FFFFFC00
07FFFFFC00
0FFFFFFE00
0FFFFFFE00
0FFFFFFE00
1FFFFFFF00
1FE000FF00
1FC0007F00
3FC0007F80
3FC0007F80
3FC0003F80
7F80003FC0
7F80003FC0
7F80003FC0
FF00001FE0
ENDCHAR
STARTCHAR AE
ENCODING 198
SWIDTH 952 0
DWIDTH 48 0
BBX 45 36 0 0
BITMAP
0000FFFFFFF8
0001FFFFFFF8
0001FFFFFFF8
0001FFFFFFF8
0003FFFFFFF8
0003FFFFFFF8
0007F0FE0000
0007F0FE0000
000FE0FE0000
000FE0FE0000
001FE0FE0000
001FC0FE0000
001FC0FE0000
003F80FE0000
003F80FFFFF0
007F80FFFFF0
007F00FFFFF0
00FF00FFFFF0
00FE00FFFFF0
01FE00FFFFF0
01FC00FE0000
03FFFFFE0000
03FFFFFE0000
03FFFFFE0000
07FFFFFE0000
07FFFFFE0000
0FFFFFFE0000
0FE000FE0000
1FE000FE0000
1FC000FE0000
3FC000FFFFF8
3FC000FFFFF8
3F8000FFFFF8
7F8000FFFFF8
7F0000FFFFF8
FF0000FFFFF8
ENDCHAR
STARTCHAR Ccedilla
ENCODING 199
SWIDTH 637 0
DWIDTH 32 0
BBX 27 48 3 -12
BITMAP
000FF800
007FFF80
01FFFFE0
03FFFFE0
07FFFFC0
0FFFFFC0
1FFC0FC0
3FF00180
3FE00000
7FC00000
7F800000
7F800000
FF000000
FF000000
FF000000
FF000000
FF000000
FF000000
FF000000
FF000000
FF000000
FF000000
FF000000
FF000000
7F800000
7F800000
7FC00000
3FC00000
3FE00040
1FF807C0
1FFFFFC0
0FFFFFC0
07FFFFC0
03FFFFC0
00FFFF80
001FF800
000F8000
000F8000
001FC000
001FE000
0007F000
0003F000
0003F000
0043F000
007FF000
007FF000
007FE000
007F8000
ENDCHAR
STARTCHAR Egrave
ENCODING 200
SWIDTH 560 0
DWIDTH 28 0
BBX 21 46 4 0
BITMAP
3FE000
1FE000
0FF000
07F800
01FC00
00FE00
007E00
001F00
000000
000000
FFFFF8
FFFFF8
FFFFF8
FFFFF8
FFFFF8
FFFFF8
FF0000
FF0000
FF0000
FF0000
FF0000
FF0000
FF0000
FF0000
FFFFF0
FFFFF0
FFFFF0
FFFFF0
FFFFF0
FFFFF0
FF0000
FF0000
FF0000
FF0000
FF0000
FF0000
FF0000
FF0000
FF0000
FF0000
FFFFF8
FFFFF8
FFFFF8
FFFFF8
FFFFF8
FFFFF8
ENDCHAR
STARTCHAR Eacute
ENCODING 201
SWIDTH 560 0
DWIDTH 28 0
BBX 21 46 4 0
BITMAP
000FF0
001FE0
003FC0
007F80
007F00
00FC00
01F800
03F000
000000
000000
FFFFF8
FFFFF8
FFFFF8
FFFFF8
FFFFF8
FFFFF8
FF0000
FF0000
FF0000
FF0000
FF0000
FF0000
FF0000
FF0000
FFFFF0
FFFFF0
FFFFF0
FFFFF0
FFFFF0
FFFFF0
FF0000
FF0000
FF0000
FF0000
FF0000
FF0000
FF0000
FF0000
FF0000
FF0000
FFFFF8
FFFFF8
FFFFF8
FFFFF8
FFFFF8
FFFFF8
ENDCHAR
STARTCHAR Ecircumflex
ENCODING 202
SWIDTH 560 0
DWIDTH 28 0
BBX 21 46 4 0
BITMAP
03FE00
07FF00
07FF80
0FFFC0
1FDFE0
3F87F0
7E03F0
FC01F8
000000
000000
FFFFF8
FFFFF8
FFFFF8
FFFFF8
FFFFF8
FFFFF8
FF0000
FF0000
FF0000
FF0000
FF0000
FF0000
FF0000
FF0000
FFFFF0
FFFFF0
FFFFF0
FFFFF0
FFFFF0
FFFFF0
FF0000
FF0000
FF0000
FF0000
FF0000
FF0000
FF0000
FF0000
FF0000
FF0000
FFFFF8
FFFFF8
FFFFF8
FFFFF8
FFFFF8
FFFFF8
ENDCHAR
STARTCHAR Edieresis
ENCODING 203
SWIDTH 560 0
DWIDTH 28 0
BBX 21 46 4 0
BITMAP
060080
1F87E0
1F87E0
1F87E0
1F87E0
1F87E0
0F03C0
000000
000000
000000
FFFFF8
FFFFF8
FFFFF8
FFFFF8
FFFFF8
FFFFF8
FF0000
FF0000
FF0000
FF0000
FF0000
FF0000
FF0000
FF0000
FFFFF0
FFFFF0
FFFFF0
FFFFF0
FFFFF0
FFFFF0
FF0000
FF0000
FF0000
FF0000
FF0000
FF0000
FF0000
FF0000
FF0000
FF0000
FFFFF8
FFFFF8
FFFFF8
FFFFF8
FFFFF8
FFFFF8
ENDCHAR
STARTCHAR Igrave
ENCODING 204
SWIDTH 331 0
DWIDTH 17 0
BBX 14 46 -2 0
BITMAP
FF80
7FC0
1FE0
0FE0
07F0
03F8
00FC
007C
0000
0000
01FC
01FC
01FC
01FC
01FC
01FC
01FC
01FC
01FC
01FC
01FC
01FC
01FC
01FC
01FC
01FC
01FC
01FC
01FC
01FC
01FC
01FC
01FC
01FC
01FC
01FC
01FC
01FC
01FC
01FC
01FC
01FC
01FC
01FC
01FC
01FC
ENDCHAR
STARTCHAR Iacute
ENCODING 205
SWIDTH 331 0
DWIDTH 17 0
BBX 14 46 4 0
BITMAP
07FC
07F8
0FF0
1FE0
3F80
3F00
7E00
FC00
0000
0000
7F00
7F00
7F00
7F00
7F00
7F00
7F00
7F00
7F00
7F00
7F00
7F00
7F00
7F00
7F00
7F00
7F00
7F00
7F00
7F00
7F00
7F00
7F00
7F00
7F00
7F00
7F00
7F00
7F00
7F00
7F00
7F00
7F00
7F00
7F00
7F00
ENDCHAR
STARTCHAR Icircumflex
ENCODING 206
SWIDTH 331 0
DWIDTH 17 0
BBX 22 46 -3 0
BITMAP
03FF00
03FF00
07FF80
0FFFC0
1FCFE0
3F87F0
7F03F8
FC00FC
000000
000000
00FE00
00FE00
00FE00
00FE00
00FE00
00FE00
00FE00
00FE00
00FE00
00FE00
00FE00
00FE00
00FE00
00FE00
00FE00
00FE00
00FE00
00FE00
00FE00
00FE00
00FE00
00FE00
00FE00
00FE00
00FE00
00FE00
00FE00
00FE00
00FE00
00FE00
00FE00
00FE00
00FE00
00FE00
00FE00
00FE00
ENDCHAR
STARTCHAR Idieresis
ENCODING 207
SWIDTH 331 0
DWIDTH 17 0
BBX 17 45 0 0
BITMAP
7C1F00
FC3F80
FE3F80
FE3F80
FC3F00
781E00
000000
000000
000000
07F000
07F000
07F000
07F000
07F000
07F000
07F000
07F000
07F000
07F000
07F000
07F000
07F000
07F000
07F000
07F000
07F000
07F000
07F000
07F000
07F000
07F000
07F000
07F000
07F000
07F000
07F000
07F000
07F000
07F000
07F000
07F000
07F000
07F000
07F000
07F000
ENDCHAR
STARTCHAR Eth
ENCODING 208
SWIDTH 740 0
DWIDTH 37 0
BBX 33 36 1 0
BITMAP
1FFFF00000
1FFFFE0000
1FFFFF8000
1FFFFFE000
1FFFFFF000
1FFFFFF800
1FE01FFC00
1FE007FE00
1FE003FE00
1FE001FF00
1FE000FF00
1FE000FF00
1FE0007F80
1FE0007F80
1FE0007F80
FFFF807F80
FFFF807F80
FFFF807F80
FFFF807F80
FFFF807F80
FFFF807F80
1FE0007F80
1FE0007F80
1FE000FF00
1FE000FF00
1FE000FF00
1FE001FE00
1FE003FE00
1FE007FC00
1FE03FFC00
1FFFFFF800
1FFFFFF000
1FFFFFE000
1FFFFF8000
1FFFFE0000
1FFFE00000
ENDCHAR
STARTCHAR Ntilde
ENCODING 209
SWIDTH 812 0
DWIDTH 41 0
BBX 33 46 4 0
BITMAP
003E01C000
007F83C000
00FFC7C000
01FFFFC000
01FFFF8000
03E3FF8000
03C0FF0000
03C03C0000
0000000000
0000000000
FFC0003F80
FFE0003F80
FFF0003F80
FFF0003F80
FFF8003F80
FFF8003F80
FFFC003F80
FFFC003F80
FFFE003F80
FFFF003F80
FEFF003F80
FE7F803F80
FE7F803F80
FE3FC03F80
FE3FE03F80
FE1FE03F80
FE1FF03F80
FE0FF03F80
FE07F83F80
FE07FC3F80
FE03FC3F80
FE03FE3F80
FE01FE3F80
FE00FF3F80
FE00FF3F80
FE007FBF80
FE007FFF80
FE003FFF80
FE003FFF80
FE001FFF80
FE000FFF80
FE000FFF80
FE0007FF80
FE0007FF80
FE0003FF80
FE0001FF80
ENDCHAR
STARTCHAR Ograve
ENCODING 210
SWIDTH 795 0
DWIDTH 40 0
BBX 34 46 3 0
BITMAP
00FF000000
007F800000
003FC00000
001FE00000
000FE00000
0003F00000
0001F80000
0000FC0000
0000000000
0000000000
000FFC0000
007FFF8000
01FFFFE000
03FFFFF800
0FFFFFFC00
0FFFFFFC00
1FFC0FFE00
3FF003FF00
3FE001FF00
7FC000FF80
7F80007F80
7F80007F80
FF00007FC0
FF00003FC0
FF00003FC0
FF00003FC0
FF00003FC0
FF00003FC0
FF00003FC0
FF00003FC0
FF00003FC0
FF00003FC0
FF00003FC0
FF00007FC0
7F80007F80
7F80007F80
7FC000FF80
3FE001FF00
3FF003FF00
1FFC0FFE00
0FFFFFFC00
0FFFFFFC00
03FFFFF000
01FFFFE000
007FFF8000
000FFC0000
ENDCHAR
STARTCHAR Oacute
ENCODING 211
SWIDTH 795 0
DWIDTH 40 0
BBX 34 46 3 0
BITMAP
00003FE000
00003FC000
00007F8000
0000FF0000
0001FC0000
0001F80000
0003F00000
0007E00000
0000000000
0000000000
000FFC0000
007FFF8000
01FFFFE000
03FFFFF800
0FFFFFFC00
0FFFFFFC00
1FFC0FFE00
3FF003FF00
3FE001FF00
7FC000FF80
7F80007F80
7F80007F80
FF00007FC0
FF00003FC0
FF00003FC0
FF00003FC0
FF00003FC0
FF00003FC0
FF00003FC0
FF00003FC0
FF00003FC0
FF00003FC0
FF00003FC0
FF00007FC0
7F80007F80
7F80007F80
7FC000FF80
3FE001FF00
3FF003FF00
1FFC0FFE00
0FFFFFFC00
0FFFFFFC00
03FFFFF000
01FFFFE000
007FFF8000
000FFC0000
ENDCHAR
STARTCHAR Ocircumflex
ENCODING 212
SWIDTH 795 0
DWIDTH 40 0
BBX 34 46 3 0
BITMAP
000FF80000
001FFC0000
001FFE0000
003FFF0000
007F7F8000
00FE1FC000
01F80FE000
03F003E000
0000000000
0000000000
000FFC0000
007FFF8000
01FFFFE000
03FFFFF800
0FFFFFFC00
0FFFFFFC00
1FFC0FFE00
3FF003FF00
3FE001FF00
7FC000FF80
7F80007F80
7F80007F80
FF00007FC0
FF00003FC0
FF00003FC0
FF00003FC0
FF00003FC0
FF00003FC0
FF00003FC0
FF00003FC0
FF00003FC0
FF00003FC0
FF00003FC0
FF00007FC0
7F80007F80
7F80007F80
7FC000FF80
3FE001FF00
3FF003FF00
1FFC0FFE00
0FFFFFFC00
0FFFFFFC00
03FFFFF000
01FFFFE000
007FFF8000
000FFC0000
ENDCHAR
STARTCHAR Otilde
ENCODING 213
SWIDTH 795 0
DWIDTH 40 0
BBX 34 46 3 0
BITMAP
001E01E000
007F81E000
00FFE3E000
00FFFFC000
01FFFFC000
01F1FF8000
01E0FF0000
01C03E0000
0000000000
0000000000
000FFC0000
007FFF8000
01FFFFE000
03FFFFF800
0FFFFFFC00
0FFFFFFC00
1FFC0FFE00
3FF003FF00
3FE001FF00
7FC000FF80
7F80007F80
7F80007F80
FF00007FC0
FF00003FC0
FF00003FC0
FF00003FC0
FF00003FC0
FF00003FC0
FF00003FC0
FF00003FC0
FF00003FC0
FF00003FC0
FF00003FC0
FF00007FC0
7F80007F80
7F80007F80
7FC000FF80
3FE001FF00
3FF003FF00
1FFC0FFE00
0FFFFFFC00
0FFFFFFC00
03FFFFF000
01FFFFE000
007FFF8000
000FFC0000
ENDCHAR
STARTCHAR Odieresis
ENCODING 214
SWIDTH 795 0
DWIDTH 40 0
BBX 34 46 3 0
BITMAP
0008060000
007E1F8000
007E1F8000
00FE3F8000
007E1F8000
007E1F8000
003C0F0000
0000000000
0000000000
0000000000
000FFC0000
007FFF8000
01FFFFE000
03FFFFF800
0FFFFFFC00
0FFFFFFC00
1FFC0FFE00
3FF003FF00
3FE001FF00
7FC000FF80
7F80007F80
7F80007F80
FF00007FC0
FF00003FC0
FF00003FC0
FF00003FC0
FF00003FC0
FF00003FC0
FF00003FC0
FF00003FC0
FF00003FC0
FF00003FC0
FF00003FC0
FF00007FC0
7F80007F80
7F80007F80
7FC000FF80
3FE001FF00
3FF003FF00
1FFC0FFE00
0FFFFFFC00
0FFFFFFC00
03FFFFF000
01FFFFE000
007FFF8000
000FFC0000
ENDCHAR
STARTCHAR multiply
ENCODING 215
SWIDTH 570 0
DWIDTH 29 0
BBX 21 21 4 7
BITMAP
300060
7800F0
FC01F8
FE03F8
7F07F0
3F8FE0
1FDFC0
0FFF80
07FF00
03FE00
01FC00
03FE00
07FF00
0FFF80
1FDFC0
3F8FE0
7F07F0
FE03F8
FC01F8
7800F0
300060
ENDCHAR
STARTCHAR Oslash
ENCODING 216
SWIDTH 795 0
DWIDTH 40 0
BBX 34 39 3 -2
BITMAP
0000001800
000FFC3C00
007FFFBE00
01FFFFFE00
03FFFFFC00
0FFFFFFC00
0FFFFFFC00
1FFC0FFE00
3FF007FF00
3FE007FF00
7FC00FFF80
7F801FFF80
7F801F7F80
FF803F7FC0
FF007E3FC0
FF007C3FC0
FF00FC3FC0
FF01F83FC0
FF01F03FC0
FF03F03FC0
FF07E03FC0
FF07C03FC0
FF0FC03FC0
FF1F803FC0
FF1F007FC0
7FBF007F80
7FFE007F80
7FFC00FF80
3FFC01FF00
3FF803FF00
1FFC0FFE00
0FFFFFFC00
0FFFFFF800
0FFFFFF000
0FFFFFE000
1FFFFF8000
1F0FFC0000
0600000000
0200000000
ENDCHAR
STARTCHAR Ugrave
ENCODING 217
SWIDTH 755 0
DWIDTH 38 0
BBX 30 46 4 0
BITMAP
07FC0000
03FC0000
01FE0000
00FF0000
003F8000
001F8000
000FC000
0007E000
00000000
00000000
FF0003FC
FF0003FC
FF0003FC
FF0003FC
FF0003FC
FF0003FC
FF0003FC
FF0003FC
FF0003FC
FF0003FC
FF0003FC
FF0003FC
FF0003FC
FF0003FC
FF0003FC
FF0003FC
FF0003FC
FF0003FC
FF0003FC
FF0003FC
FF0003FC
FF0003FC
FF0003FC
FF0003FC
FF0003FC
FF0003FC
7F8007F8
7F8007F8
7FC00FF8
3FF03FF0
3FFFFFF0
1FFFFFE0
0FFFFFC0
07FFFF80
01FFFE00
003FF000
ENDCHAR
STARTCHAR Uacute
ENCODING 218
SWIDTH 755 0
DWIDTH 38 0
BBX 30 46 4 0
BITMAP
0000FF80
0001FF00
0001FC00
0003F800
0007F000
000FE000
001FC000
001F0000
00000000
00000000
FF0003FC
FF0003FC
FF0003FC
FF0003FC
FF0003FC
FF0003FC
FF0003FC
FF0003FC
FF0003FC
FF0003FC
FF0003FC
FF0003FC
FF0003FC
FF0003FC
FF0003FC
FF0003FC
FF0003FC
FF0003FC
FF0003FC
FF0003FC
FF0003FC
FF0003FC
FF0003FC
FF0003FC
FF0003FC
FF0003FC
7F8007F8
7F8007F8
7FC00FF8
3FF03FF0
3FFFFFF0
1FFFFFE0
0FFFFFC0
07FFFF80
01FFFE00
003FF000
ENDCHAR
STARTCHAR Ucircumflex
ENCODING 219
SWIDTH 755 0
DWIDTH 38 0
BBX 30 46 4 0
BITMAP
003FE000
007FF000
007FF800
00FFFC00
01FDFE00
03F87F00
07E03F80
0FC00F80
00000000
00000000
FF0003FC
FF0003FC
FF0003FC
FF0003FC
FF0003FC
FF0003FC
FF0003FC
FF0003FC
FF0003FC
FF0003FC
FF0003FC
FF0003FC
FF0003FC
FF0003FC
FF0003FC
FF0003FC
FF0003FC
FF0003FC
FF0003FC
FF0003FC
FF0003FC
FF0003FC
FF0003FC
FF0003FC
FF0003FC
FF0003FC
7F8007F8
7F8007F8
7FC00FF8
3FF03FF0
3FFFFFF0
1FFFFFE0
0FFFFFC0
07FFFF80
01FFFE00
003FF000
ENDCHAR
STARTCHAR Udieresis
ENCODING 220
SWIDTH 755 0
DWIDTH 38 0
BBX 30 46 4 0
BITMAP
00201800
01F87E00
01F87E00
03F8FE00
01F87E00
01F87E00
00F03C00
00000000
00000000
00000000
FF0003FC
FF0003FC
FF0003FC
FF0003FC
FF0003FC
FF0003FC
FF0003FC
FF0003FC
FF0003FC
FF0003FC
FF0003FC
FF0003FC
FF0003FC
FF0003FC
FF0003FC
FF0003FC
FF0003FC
FF0003FC
FF0003FC
FF0003FC
FF0003FC
FF0003FC
FF0003FC
FF0003FC
FF0003FC
FF0003FC
7F8007F8
7F8007F8
7FC00FF8
3FF03FF0
3FFFFFF0
1FFFFFE0
0FFFFFC0
07FFFF80
01FFFE00
003FF000
ENDCHAR
STARTCHAR Yacute
ENCODING 221
SWIDTH 624 0
DWIDTH 31 0
BBX 31 46 0 0
BITMAP
00007F80
0000FF00
0001FE00
0003FC00
0003F800
0007E000
000FC000
001F8000
00000000
00000000
FF0001FE
7F8003FC
7F8003FC
3FC007F8
3FC007F8
1FE00FF0
1FE00FF0
0FF01FE0
0FF01FE0
07F83FC0
03F83F80
03FC7F80
01FC7F00
01FEFF00
00FEFE00
00FFFE00
007FFC00
007FFC00
003FF800
003FF800
001FF000
001FF000
000FE000
000FE000
000FE000
000FE000
000FE000
000FE000
000FE000
000FE000
000FE000
000FE000
000FE000
000FE000
000FE000
000FE000
ENDCHAR
STARTCHAR Thorn
ENCODING 222
SWIDTH 627 0
DWIDTH 31 0
BBX 25 36 4 0
BITMAP
FF000000
FF000000
FF000000
FF000000
FF000000
FF000000
FFFF8000
FFFFF000
FFFFF800
FFFFFC00
FFFFFE00
FFFFFF00
FF03FF00
FF00FF00
FF007F80
FF007F80
FF007F80
FF007F80
FF007F80
FF007F80
FF00FF00
FF00FF00
FF03FF00
FFFFFE00
FFFFFE00
FFFFFC00
FFFFF800
FFFFE000
FFFF0000
FF000000
FF000000
FF000000
FF000000
FF000000
FF000000
FF000000
ENDCHAR
STARTCHAR germandbls
ENCODING 223
SWIDTH 710 0
DWIDTH 36 0
BBX 30 38 4 0
BITMAP
007FE000
03FFFC00
0FFFFF00
1FFFFF80
3FFFFFC0
7FFFFFC0
7FC07FE0
FF803FE0
FF001FE0
FF001FE0
FE001FC0
FE003FC0
FE007F80
FE00FF00
FE01FE00
FE03FC00
FE07F800
FE0FF000
FE0FF000
FE0FF800
FE0FFC00
FE07FF00
FE03FFC0
FE01FFE0
FE00FFF0
FE003FF8
FE000FFC
FE0007FC
FE0003FC
FE0001FC
FE0001FC
FE1003FC
FE1E07FC
FE1FFFFC
FE1FFFF8
FE1FFFF0
FE1FFFC0
FE03FF00
ENDCHAR
STARTCHAR agrave
ENCODING 224
SWIDTH 604 0
DWIDTH 30 0
BBX 24 38 2 0
BITMAP
0FF000
07F800
03FC00
01FE00
00FE00
007F00
001F80
000FC0
000000
000000
00FF80
07FFF0
1FFFF8
1FFFFC
1FFFFE
0FFFFF
0F81FF
0400FF
00007F
00007F
00007F
00FFFF
07FFFF
1FFFFF
3FFFFF
7FE07F
7F807F
FF007F
FF007F
FF00FF
FF01FF
FF83FF
FFFFFF
7FFFBF
7FFF3F
3FFF3F
1FFC1F
07F01F
ENDCHAR
STARTCHAR aacute
ENCODING 225
SWIDTH 604 0
DWIDTH 30 0
BBX 24 38 2 0
BITMAP
0003FE
0007FC
0007F8
000FE0
001FC0
003F80
007F00
007C00
000000
000000
00FF80
07FFF0
1FFFF8
1FFFFC
1FFFFE
0FFFFF
0F81FF
0400FF
00007F
00007F
00007F
00FFFF
07FFFF
1FFFFF
3FFFFF
7FE07F
7F807F
FF007F
FF007F
FF00FF
FF01FF
FF83FF
FFFFFF
7FFFBF
7FFF3F
3FFF3F
1FFC1F
07F01F
ENDCHAR
STARTCHAR acircumflex
ENCODING 226
SWIDTH 604 0
DWIDTH 30 0
BBX 24 38 2 0
BITMAP
00FF80
01FFC0
01FFE0
03FFF0
07F7F8
0FE1FC
1F80FE
3F003E
000000
000000
00FF80
07FFF0
1FFFF8
1FFFFC
1FFFFE
0FFFFF
0F81FF
0400FF
00007F
00007F
00007F
00FFFF
07FFFF
1FFFFF
3FFFFF
7FE07F
7F807F
FF007F
FF007F
FF00FF
FF01FF
FF83FF
FFFFFF
7FFFBF
7FFF3F
3FFF3F
1FFC1F
07F01F
ENDCHAR
STARTCHAR atilde
ENCODING 227
SWIDTH 604 0
DWIDTH 30 0
BBX 24 38 2 0
BITMAP
01F00E
03FC1E
07FE1E
0FFFFE
0FFFFC
0F1FFC
1E07F8
1E01E0
000000
000000
00FF80
07FFF0
1FFFF8
1FFFFC
1FFFFE
0FFFFF
0F81FF
0400FF
00007F
00007F
00007F
00FFFF
07FFFF
1FFFFF
3FFFFF
7FE07F
7F807F
FF007F
FF007F
FF00FF
FF01FF
FF83FF
FFFFFF
7FFFBF
7FFF3F
3FFF3F
1FFC1F
07F01F
ENDCHAR
STARTCHAR adieresis
ENCODING 228
SWIDTH 604 0
DWIDTH 30 0
BBX 24 38 2 0
BITMAP
000020
03E0F8
07E1FC
07F1FC
07F1FC
07E1F8
03C0F0
000000
000000
000000
00FF80
07FFF0
1FFFF8
1FFFFC
1FFFFE
0FFFFF
0F81FF
0400FF
00007F
00007F
00007F
00FFFF
07FFFF
1FFFFF
3FFFFF
7FE07F
7F807F
FF007F
FF007F
FF00FF
FF01FF
FF83FF
FFFFFF
7FFFBF
7FFF3F
3FFF3F
1FFC1F
07F01F
ENDCHAR
STARTCHAR aring
ENCODING 229
SWIDTH 604 0
DWIDTH 30 0
BBX 24 42 2 0
BITMAP
001F00
007FC0
00FFE0
00FBE0
01E1E0
01E0F0
01E0F0
01E1E0
00FBE0
00FFE0
007FC0
001F00
000000
000000
00FF80
07FFF0
1FFFF8
1FFFFC
1FFFFE
0FFFFF
0F81FF
0400FF
00007F
00007F
00007F
00FFFF
07FFFF
1FFFFF
3FFFFF
7FE07F
7F807F
FF007F
FF007F
FF00FF
FF01FF
FF83FF
FFFFFF
7FFFBF
7FFF3F
3FFF3F
1FFC1F
07F01F
ENDCHAR
STARTCHAR ae
ENCODING 230
SWIDTH 916 0
DWIDTH 46 0
BBX 42 28 2 0
BITMAP
00FF803FC000
07FFE0FFF000
1FFFFBFFFC00
1FFFFFFFFE00
1FFFFFFFFF00
0FFFFFE0FF00
0F81FFC07F80
0400FF803F80
00007F803F80
00007F001FC0
00007F001FC0
00FFFFFFFFC0
07FFFFFFFFC0
1FFFFFFFFFC0
3FFFFFFFFFC0
7FE07FFFFFC0
7F807F000000
FF007F000000
FF00FF800000
FF00FF800000
FF01FFC00100
FF83FFF00F00
FFFFFFFFFF00
7FFFFFFFFF00
7FFFE7FFFF00
3FFF83FFFF00
1FFF00FFFE00
07FC001FF000
ENDCHAR
STARTCHAR ccedilla
ENCODING 231
SWIDTH 514 0
DWIDTH 26 0
BBX 22 40 2 -12
BITMAP
007FE0
01FFFC
07FFFC
0FFFFC
1FFFF8
3FFFF8
3FE078
7FC000
7F8000
7F8000
7F0000
FF0000
FF0000
FF0000
FF0000
FF0000
FF0000
FF0000
7F0000
7F8000
7FC00C
3FE03C
3FFFFC
1FFFFC
1FFFFC
0FFFFC
03FFF8
007FC0
007C00
007C00
00FE00
00FF00
003F80
001F80
000FC0
021F80
03FF80
03FF80
03FF00
01FC00
ENDCHAR
STARTCHAR egrave
ENCODING 232
SWIDTH 590 0
DWIDTH 30 0
BBX 26 38 2 0
BITMAP
0FF00000
07F80000
03FC0000
01FE0000
00FE0000
003F0000
001F8000
000FC000
00000000
00000000
007FC000
01FFF000
07FFFC00
0FFFFE00
1FFFFF00
3FE0FF00
3FC07F80
7F803F80
7F003F80
7F001FC0
7F001FC0
FFFFFFC0
FFFFFFC0
FFFFFFC0
FFFFFFC0
FFFFFFC0
FF000000
7F000000
7F000000
7F800000
7FC00100
3FF00F00
3FFFFF00
1FFFFF00
0FFFFF00
07FFFF00
01FFFE00
003FF000
ENDCHAR
STARTCHAR eacute
ENCODING 233
SWIDTH 590 0
DWIDTH 30 0
BBX 26 38 2 0
BITMAP
0003FE00
0003FC00
0007F800
000FF000
001FC000
003F8000
003F0000
007C0000
00000000
00000000
007FC000
01FFF000
07FFFC00
0FFFFE00
1FFFFF00
3FE0FF00
3FC07F80
7F803F80
7F003F80
7F001FC0
7F001FC0
FFFFFFC0
FFFFFFC0
FFFFFFC0
FFFFFFC0
FFFFFFC0
FF000000
7F000000
7F000000
7F800000
7FC00100
3FF00F00
3FFFFF00
1FFFFF00
0FFFFF00
07FFFF00
01FFFE00
003FF000
ENDCHAR
STARTCHAR ecircumflex
ENCODING 234
SWIDTH 590 0
DWIDTH 30 0
BBX 26 38 2 0
BITMAP
00FFC000
00FFE000
01FFE000
03FFF000
07F3F800
0FE1FC00
1FC0FE00
1F003F00
00000000
00000000
007FC000
01FFF000
07FFFC00
0FFFFE00
1FFFFF00
3FE0FF00
3FC07F80
7F803F80
7F003F80
7F001FC0
7F001FC0
FFFFFFC0
FFFFFFC0
FFFFFFC0
FFFFFFC0
FFFFFFC0
FF000000
7F000000
7F000000
7F800000
7FC00100
3FF00F00
3FFFFF00
1FFFFF00
0FFFFF00
07FFFF00
01FFFE00
003FF000
ENDCHAR
STARTCHAR edieresis
ENCODING 235
SWIDTH 590 0
DWIDTH 30 0
BBX 26 38 2 0
BITMAP
00802000
03E0F800
07F1FC00
07F1FC00
07F1FC00
03F0FC00
01E07800
00000000
00000000
00000000
007FC000
01FFF000
07FFFC00
0FFFFE00
1FFFFF00
3FE0FF00
3FC07F80
7F803F80
7F003F80
7F001FC0
7F001FC0
FFFFFFC0
FFFFFFC0
FFFFFFC0
FFFFFFC0
FFFFFFC0
FF000000
7F000000
7F000000
7F800000
7FC00100
3FF00F00
3FFFFF00
1FFFFF00
0FFFFF00
07FFFF00
01FFFE00
003FF000
ENDCHAR
STARTCHAR igrave
ENCODING 236
SWIDTH 305 0
DWIDTH 15 0
BBX 14 38 -3 0
BITMAP
FF80
7FC0
1FC0
0FE0
07F0
03F8
01FC
007C
0000
0000
0000
01FC
01FC
01FC
01FC
01FC
01FC
01FC
01FC
01FC
01FC
01FC
01FC
01FC
01FC
01FC
01FC
01FC
01FC
01FC
01FC
01FC
01FC
01FC
01FC
01FC
01FC
01FC
ENDCHAR
STARTCHAR iacute
ENCODING 237
SWIDTH 305 0
DWIDTH 15 0
BBX 15 38 3 0
BITMAP
03FE
07F8
0FF0
0FE0
1FC0
3F80
7E00
FC00
0000
0000
0000
7F00
7F00
7F00
7F00
7F00
7F00
7F00
7F00
7F00
7F00
7F00
7F00
7F00
7F00
7F00
7F00
7F00
7F00
7F00
7F00
7F00
7F00
7F00
7F00
7F00
7F00
7F00
ENDCHAR
STARTCHAR icircumflex
ENCODING 238
SWIDTH 305 0
DWIDTH 15 0
BBX 21 38 -3 0
BITMAP
03FE00
07FF00
0FFF80
1FFF80
1FDFC0
3F0FE0
7E03F0
FC01F8
000000
000000
000000
01FC00
01FC00
01FC00
01FC00
01FC00
01FC00
01FC00
01FC00
01FC00
01FC00
01FC00
01FC00
01FC00
01FC00
01FC00
01FC00
01FC00
01FC00
01FC00
01FC00
01FC00
01FC00
01FC00
01FC00
01FC00
01FC00
01FC00
ENDCHAR
STARTCHAR idieresis
ENCODING 239
SWIDTH 305 0
DWIDTH 15 0
BBX 17 38 -1 0
BITMAP
100400
7C1F00
FE3F80
FE3F80
FE3F80
7E1F80
3C0F00
000000
000000
000000
000000
07F000
07F000
07F000
07F000
07F000
07F000
07F000
07F000
07F000
07F000
07F000
07F000
07F000
07F000
07F000
07F000
07F000
07F000
07F000
07F000
07F000
07F000
07F000
07F000
07F000
07F000
07F000
ENDCHAR
STARTCHAR eth
ENCODING 240
SWIDTH 619 0
DWIDTH 31 0
BBX 27 38 2 0
BITMAP
00400800
00F01C00
00FC7E00
01FFFE00
00FFFC00
007FF800
003FE000
007FF800
01FFF800
03FFFC00
01F1FE00
00E0FF00
00807F00
00007F80
00FF3F80
03FFFF80
0FFFFFC0
1FFFFFC0
3FFFFFC0
3FFFFFC0
7FE0FFE0
7F803FE0
7F001FE0
FF001FE0
FF001FE0
FF001FE0
FF001FE0
FF001FC0
FF001FC0
7F803FC0
7F803FC0
7FE0FF80
3FFFFF80
1FFFFF00
0FFFFE00
07FFFC00
03FFF000
007FC000
ENDCHAR
STARTCHAR ntilde
ENCODING 241
SWIDTH 657 0
DWIDTH 33 0
BBX 25 38 4 0
BITMAP
03E01C00
07F83C00
0FFC3C00
1FFFFC00
1FFFF800
1E3FF800
3C0FF000
3C03C000
00000000
00000000
000FE000
FC3FF800
FCFFFE00
FDFFFF00
FFFFFF00
FFFFFF80
FFE0FF80
FF807F80
FF807F80
FF003F80
FF003F80
FF003F80
FE003F80
FE003F80
FE003F80
FE003F80
FE003F80
FE003F80
FE003F80
FE003F80
FE003F80
FE003F80
FE003F80
FE003F80
FE003F80
FE003F80
FE003F80
FE003F80
ENDCHAR
STARTCHAR ograve
ENCODING 242
SWIDTH 619 0
DWIDTH 31 0
BBX 27 38 2 0
BITMAP
0FF00000
07F80000
03FC0000
01FC0000
00FE0000
007F0000
001F8000
000FC000
00000000
00000000
007FC000
01FFF000
07FFFC00
0FFFFE00
1FFFFF00
3FFFFF80
3FE0FF80
7FC07FC0
7F803FC0
7F001FC0
FF001FC0
FF001FE0
FF001FE0
FF001FE0
FF001FE0
FF001FE0
FF001FE0
7F001FC0
7F003FC0
7F803FC0
7FC07FC0
3FE0FF80
3FFFFF80
1FFFFF00
0FFFFE00
07FFFC00
01FFF000
007FC000
ENDCHAR
STARTCHAR oacute
ENCODING 243
SWIDTH 619 0
DWIDTH 31 0
BBX 27 38 2 0
BITMAP
0001FE00
0003FC00
0007F800
0007F000
000FE000
001FC000
003F0000
007E0000
00000000
00000000
007FC000
01FFF000
07FFFC00
0FFFFE00
1FFFFF00
3FFFFF80
3FE0FF80
7FC07FC0
7F803FC0
7F001FC0
FF001FC0
FF001FE0
FF001FE0
FF001FE0
FF001FE0
FF001FE0
FF001FE0
7F001FC0
7F003FC0
7F803FC0
7FC07FC0
3FE0FF80
3FFFFF80
1FFFFF00
0FFFFE00
07FFFC00
01FFF000
007FC000
ENDCHAR
STARTCHAR ocircumflex
ENCODING 244
SWIDTH 619 0
DWIDTH 31 0
BBX 27 38 2 0
BITMAP
007FC000
00FFE000
01FFE000
03FFF000
07F3F800
0FE1FC00
1FC07E00
1F003F00
00000000
00000000
007FC000
01FFF000
07FFFC00
0FFFFE00
1FFFFF00
3FFFFF80
3FE0FF80
7FC07FC0
7F803FC0
7F001FC0
FF001FC0
FF001FE0
FF001FE0
FF001FE0
FF001FE0
FF001FE0
FF001FE0
7F001FC0
7F003FC0
7F803FC0
7FC07FC0
3FE0FF80
3FFFFF80
1FFFFF00
0FFFFE00
07FFFC00
01FFF000
007FC000
ENDCHAR
STARTCHAR otilde
ENCODING 245
SWIDTH 619 0
DWIDTH 31 0
BBX 27 38 2 0
BITMAP
01F00E00
03FC1E00
07FE1E00
0FFFFE00
0FFFFC00
0F1FFC00
1E07F800
1E01E000
00000000
00000000
007FC000
01FFF000
07FFFC00
0FFFFE00
1FFFFF00
3FFFFF80
3FE0FF80
7FC07FC0
7F803FC0
7F001FC0
FF001FC0
FF001FE0
FF001FE0
FF001FE0
FF001FE0
FF001FE0
FF001FE0
7F001FC0
7F003FC0
7F803FC0
7FC07FC0
3FE0FF80
3FFFFF80
1FFFFF00
0FFFFE00
07FFFC00
01FFF000
007FC000
ENDCHAR
STARTCHAR odieresis
ENCODING 246
SWIDTH 619 0
DWIDTH 31 0
BBX 27 38 2 0
BITMAP
00802000
03E0F800
07F1FC00
07F1FC00
07F1FC00
07E1F800
03C0F800
00000000
00000000
00000000
007FC000
01FFF000
07FFFC00
0FFFFE00
1FFFFF00
3FFFFF80
3FE0FF80
7FC07FC0
7F803FC0
7F001FC0
FF001FC0
FF001FE0
FF001FE0
FF001FE0
FF001FE0
FF001FE0
FF001FE0
7F001FC0
7F003FC0
7F803FC0
7FC07FC0
3FE0FF80
3FFFFF80
1FFFFF00
0FFFFE00
07FFFC00
01FFF000
007FC000
ENDCHAR
STARTCHAR divide
ENCODING 247
SWIDTH 570 0
DWIDTH 29 0
BBX 25 25 2 5
BITMAP
003C0000
007E0000
007F0000
007F0000
007F0000
007E0000
003E0000
00000000
00000000
00000000
FFFFFF80
FFFFFF80
FFFFFF80
FFFFFF80
FFFFFF80
00000000
00000000
00000000
003C0000
007E0000
007F0000
007F0000
007F0000
007E0000
003E0000
ENDCHAR
STARTCHAR oslash
ENCODING 248
SWIDTH 619 0
DWIDTH 31 0
BBX 27 29 2 -1
BITMAP
007F8E00
01FFFF00
07FFFF00
0FFFFF00
1FFFFF00
3FFFFF80
3FE0FF80
7FC1FFC0
7F81FFC0
7F03FFC0
FF07FFC0
FF07DFE0
FF0FDFE0
FF1F9FE0
FF1F1FE0
FF3E1FE0
FF7E1FE0
7F7C1FC0
7FF83FC0
7FF83FC0
7FF07FC0
3FE0FF80
3FFFFF80
1FFFFF00
0FFFFE00
1FFFFC00
1FFFF000
1E7FC000
06000000
ENDCHAR
STARTCHAR ugrave
ENCODING 249
SWIDTH 657 0
DWIDTH 33 0
BBX 25 38 4 0
BITMAP
3FC00000
1FE00000
0FF00000
07F80000
03F80000
00FC0000
007E0000
003F0000
00000000
00000000
00000000
FE003F80
FE003F80
FE003F80
FE003F80
FE003F80
FE003F80
FE003F80
FE003F80
FE003F80
FE003F80
FE003F80
FE003F80
FE003F80
FE003F80
FE003F80
FE007F80
FE007F80
FE007F80
FF007F80
FF00FF80
FF83FF80
FFFFFF80
7FFFFF80
7FFFDF80
3FFF9F80
1FFE1F80
03F81F80
ENDCHAR
STARTCHAR uacute
ENCODING 250
SWIDTH 657 0
DWIDTH 33 0
BBX 25 38 4 0
BITMAP
0007FC00
0007F800
000FF000
001FE000
003FC000
003F0000
007E0000
00FC0000
00000000
00000000
00000000
FE003F80
FE003F80
FE003F80
FE003F80
FE003F80
FE003F80
FE003F80
FE003F80
FE003F80
FE003F80
FE003F80
FE003F80
FE003F80
FE003F80
FE003F80
FE007F80
FE007F80
FE007F80
FF007F80
FF00FF80
FF83FF80
FFFFFF80
7FFFFF80
7FFFDF80
3FFF9F80
1FFE1F80
03F81F80
ENDCHAR
STARTCHAR ucircumflex
ENCODING 251
SWIDTH 657 0
DWIDTH 33 0
BBX 25 38 4 0
BITMAP
01FF8000
01FFC000
03FFC000
07FFE000
0FE7F000
1FC3F800
3F81FC00
3E007E00
00000000
00000000
00000000
FE003F80
FE003F80
FE003F80
FE003F80
FE003F80
FE003F80
FE003F80
FE003F80
FE003F80
FE003F80
FE003F80
FE003F80
FE003F80
FE003F80
FE003F80
FE007F80
FE007F80
FE007F80
FF007F80
FF00FF80
FF83FF80
FFFFFF80
7FFFFF80
7FFFDF80
3FFF9F80
1FFE1F80
03F81F80
ENDCHAR
STARTCHAR udieresis
ENCODING 252
SWIDTH 657 0
DWIDTH 33 0
BBX 25 38 4 0
BITMAP
00004000
07C1F000
0FC3F800
0FE3F800
0FE3F800
0FC3F000
0781E000
00000000
00000000
00000000
00000000
FE003F80
FE003F80
FE003F80
FE003F80
FE003F80
FE003F80
FE003F80
FE003F80
FE003F80
FE003F80
FE003F80
FE003F80
FE003F80
FE003F80
FE003F80
FE007F80
FE007F80
FE007F80
FF007F80
FF00FF80
FF83FF80
FFFFFF80
7FFFFF80
7FFFDF80
3FFF9F80
1FFE1F80
03F81F80
ENDCHAR
STARTCHAR yacute
ENCODING 253
SWIDTH 568 0
DWIDTH 28 0
BBX 28 50 0 -12
BITMAP
0001FF00
0003FE00
0007F800
0007F000
000FE000
001FC000
003F0000
007E0000
00000000
00000000
00000000
FF000FF0
7F800FE0
7F801FE0
7F801FE0
3FC01FC0
3FC03FC0
1FC03FC0
1FE03F80
1FE07F80
0FE07F00
0FF07F00
07F0FF00
07F0FE00
07F8FE00
03F9FE00
03F9FC00
03F9FC00
01FDFC00
01FFF800
00FFF800
00FFF000
00FFF000
007FF000
007FE000
003FE000
003FE000
003FC000
003FC000
003F8000
003F8000
007F8000
00FF0000
01FF0000
3FFE0000
3FFE0000
3FFC0000
3FF80000
3FE00000
3F800000
ENDCHAR
STARTCHAR thorn
ENCODING 254
SWIDTH 632 0
DWIDTH 32 0
BBX 26 50 4 -12
BITMAP
FE000000
FE000000
FE000000
FE000000
FE000000
FE000000
FE000000
FE000000
FE000000
FE000000
FE0FE000
FE3FF800
FE7FFC00
FEFFFE00
FFFFFE00
FFFFFF00
FFC1FF00
FF80FF80
FF007F80
FF003F80
FF003FC0
FE003FC0
FE003FC0
FE003FC0
FE003FC0
FE003FC0
FE003FC0
FF003FC0
FF003F80
FF007F80
FF80FF80
FFC1FF80
FFFFFF00
FFFFFF00
FFFFFE00
FEFFFC00
FE7FF800
FE1FE000
FE000000
FE000000
FE000000
FE000000
FE000000
FE000000
FE000000
FE000000
FE000000
FE000000
FE000000
FE000000
ENDCHAR
STARTCHAR ydieresis
ENCODING 255
SWIDTH 568 0
DWIDTH 28 0
BBX 28 50 0 -12
BITMAP
00001000
01F07C00
03F0FE00
03F8FE00
03F8FE00
03F0FC00
01E07800
00000000
00000000
00000000
00000000
FF000FF0
7F800FE0
7F801FE0
7F801FE0
3FC01FC0
3FC03FC0
1FC03FC0
1FE03F80
1FE07F80
0FE07F00
0FF07F00
07F0FF00
07F0FE00
07F8FE00
03F9FE00
03F9FC00
03F9FC00
01FDFC00
01FFF800
00FFF800
00FFF000
00FFF000
007FF000
007FE000
003FE000
003FE000
003FC000
003FC000
003F8000
003F8000
007F8000
00FF0000
01FF0000
3FFE0000
3FFE0000
3FFC0000
3FF80000
3FE00000
3F800000
ENDCHAR
STARTCHAR Amacron
ENCODING 256
SWIDTH 689 0
DWIDTH 35 0
BBX 35 43 0 0
BITMAP
007FFFC000
007FFFC000
007FFFC000
007FFFC000
007FFFC000
0000000000
0000000000
0007FC0000
000FFE0000
000FFE0000
000FFE0000
001FFF0000
001FFF0000
001FBF0000
003FBF8000
003FBF8000
007F1FC000
007F1FC000
007F1FC000
00FE0FE000
00FE0FE000
00FE0FE000
01FC07F000
01FC07F000
01FC07F000
03FC03F800
03F803F800
03F803F800
07FFFFFC00
07FFFFFC00
0FFFFFFE00
0FFFFFFE00
0FFFFFFE00
1FFFFFFF00
1FE000FF00
1FC0007F00
3FC0007F80
3FC0007F80
3FC0003F80
7F80003FC0
7F80003FC0
7F80003FC0
FF00001FE0
ENDCHAR
STARTCHAR amacron
ENCODING 257
SWIDTH 604 0
DWIDTH 30 0
BBX 24 35 2 0
BITMAP
07FFFC
07FFFC
07FFFC
07FFFC
07FFFC
000000
000000
00FF80
07FFF0
1FFFF8
1FFFFC
1FFFFE
0FFFFF
0F81FF
0400FF
00007F
00007F
00007F
00FFFF
07FFFF
1FFFFF
3FFFFF
7FE07F
7F807F
FF007F
FF007F
FF00FF
FF01FF
FF83FF
FFFFFF
7FFFBF
7FFF3F
3FFF3F
1FFC1F
07F01F
ENDCHAR
STARTCHAR Abreve
ENCODING 258
SWIDTH 689 0
DWIDTH 35 0
BBX 35 46 0 0
BITMAP
00F003E000
00F003C000
00FC0FC000
00FFFFC000
007FFF8000
003FFF0000
001FFE0000
0007F80000
0000000000
0000000000
0007FC0000
000FFE0000
000FFE0000
000FFE0000
001FFF0000
001FFF0000
001FBF0000
003FBF8000
003FBF8000
007F1FC000
007F1FC000
007F1FC000
00FE0FE000
00FE0FE000
00FE0FE000
01FC07F000
01FC07F000
01FC07F000
03FC03F800
03F803F800
03F803F800
07FFFFFC00
07FFFFFC00
0FFFFFFE00
0FFFFFFE00
0FFFFFFE00
1FFFFFFF00
1FE000FF00
1FC0007F00
3FC0007F80
3FC0007F80
3FC0003F80
7F80003FC0
7F80003FC0
7F80003FC0
FF00001FE0
ENDCHAR
STARTCHAR abreve
ENCODING 259
SWIDTH 604 0
DWIDTH 30 0
BBX 24 38 2 0
BITMAP
0F001E
0F003E
0FC0FC
07FFFC
07FFF8
03FFF0
01FFE0
007F80
000000
000000
00FF80
07FFF0
1FFFF8
1FFFFC
1FFFFE
0FFFFF
0F81FF
0400FF
00007F
00007F
00007F
00FFFF
07FFFF
1FFFFF
3FFFFF
7FE07F
7F807F
FF007F
FF007F
FF00FF
FF01FF
FF83FF
FFFFFF
7FFFBF
7FFF3F
3FFF3F
1FFC1F
07F01F
ENDCHAR
STARTCHAR Aogonek
ENCODING 260
SWIDTH 689 0
DWIDTH 35 0
BBX 35 48 0 -12
BITMAP
0007FC0000
000FFE0000
000FFE0000
000FFE0000
001FFF0000
001FFF0000
001FBF0000
003FBF8000
003FBF8000
007F1FC000
007F1FC000
007F1FC000
00FE0FE000
00FE0FE000
00FE0FE000
01FC07F000
01FC07F000
01FC07F000
03FC03F800
03F803F800
03F803F800
07FFFFFC00
07FFFFFC00
0FFFFFFE00
0FFFFFFE00
0FFFFFFE00
1FFFFFFF00
1FE000FF00
1FC0007F00
3FC0007F80
3FC0007F80
3FC0003F80
7F80003FC0
7F80003FC0
7F80003FC0
FF00001FE0
0000003C00
000000F800
000001F000
000001F000
000003E000
000003E000
000003E000
000003FF00
000003FF00
000001FF00
000000FF00
0000007E00
ENDCHAR
STARTCHAR aogonek
ENCODING 261
SWIDTH 604 0
DWIDTH 30 0
BBX 25 40 2 -12
BITMAP
00FF8000
07FFF000
1FFFF800
1FFFFC00
1FFFFE00
0FFFFF00
0F81FF00
0400FF00
00007F00
00007F00
00007F00
00FFFF00
07FFFF00
1FFFFF00
3FFFFF00
7FE07F00
7F807F00
FF007F00
FF007F00
FF00FF00
FF01FF00
FF83FF00
FFFFFF00
7FFFBF00
7FFF3F00
3FFF3F00
1FFC1F00
07F01F00
00001E00
00007C00
0000F800
0000F800
0001F000
0001F000
0001F000
0001FF80
0001FF80
0000FF80
00007F80
00003F00
ENDCHAR
STARTCHAR Cacute
ENCODING 262
SWIDTH 637 0
DWIDTH 32 0
BBX 27 46 3 0
BITMAP
00007FC0
0000FF80
0001FE00
0001FC00
0003F800
0007F000
000FE000
000F8000
00000000
00000000
000FF800
007FFF80
01FFFFE0
03FFFFE0
07FFFFC0
0FFFFFC0
1FFC0FC0
3FF00180
3FE00000
7FC00000
7F800000
7F800000
FF000000
FF000000
FF000000
FF000000
FF000000
FF000000
FF000000
FF000000
FF000000
FF000000
FF000000
FF000000
7F800000
7F800000
7FC00000
3FC00000
3FE00040
1FF807C0
1FFFFFC0
0FFFFFC0
07FFFFC0
03FFFFC0
00FFFF80
001FF800
ENDCHAR
STARTCHAR cacute
ENCODING 263
SWIDTH 514 0
DWIDTH 26 0
BBX 23 38 2 0
BITMAP
0003FE
0007FC
0007F8
000FE0
001FC0
003F80
007F00
007C00
000000
000000
007FE0
01FFFC
07FFFC
0FFFFC
1FFFF8
3FFFF8
3FE078
7FC000
7F8000
7F8000
7F0000
FF0000
FF0000
FF0000
FF0000
FF0000
FF0000
FF0000
7F0000
7F8000
7FC00C
3FE03C
3FFFFC
1FFFFC
1FFFFC
0FFFFC
03FFF8
007FC0
ENDCHAR
STARTCHAR Ccircumflex
ENCODING 264
SWIDTH 637 0
DWIDTH 32 0
BBX 27 46 3 0
BITMAP
001FF800
001FFC00
003FFC00
007FFE00
00FE7F00
01FC3F80
03F81FC0
03E007E0
00000000
00000000
000FF800
007FFF80
01FFFFE0
03FFFFE0
07FFFFC0
0FFFFFC0
1FFC0FC0
3FF00180
3FE00000
7FC00000
7F800000
7F800000
FF000000
FF000000
FF000000
FF000000
FF000000
FF000000
FF000000
FF000000
FF000000
FF000000
FF000000
FF000000
7F800000
7F800000
7FC00000
3FC00000
3FE00040
1FF807C0
1FFFFFC0
0FFFFFC0
07FFFFC0
03FFFFC0
00FFFF80
001FF800
ENDCHAR
STARTCHAR ccircumflex
ENCODING 265
SWIDTH 514 0
DWIDTH 26 0
BBX 23 38 2 0
BITMAP
00FF80
01FFC0
03FFE0
03FFF0
07F7F0
0FC3F8
1F80FC
3F007E
000000
000000
007FE0
01FFFC
07FFFC
0FFFFC
1FFFF8
3FFFF8
3FE078
7FC000
7F8000
7F8000
7F0000
FF0000
FF0000
FF0000
FF0000
FF0000
FF0000
FF0000
7F0000
7F8000
7FC00C
3FE03C
3FFFFC
1FFFFC
1FFFFC
0FFFFC
03FFF8
007FC0
ENDCHAR
STARTCHAR Cdot
ENCODING 266
SWIDTH 637 0
DWIDTH 32 0
BBX 27 46 3 0
BITMAP
0007E000
000FF000
000FF000
000FF000
000FF000
0007F000
0003C000
00000000
00000000
00000000
000FF800
007FFF80
01FFFFE0
03FFFFE0
07FFFFC0
0FFFFFC0
1FFC0FC0
3FF00180
3FE00000
7FC00000
7F800000
7F800000
FF000000
FF000000
FF000000
FF000000
FF000000
FF000000
FF000000
FF000000
FF000000
FF000000
FF000000
FF000000
7F800000
7F800000
7FC00000
3FC00000
3FE00040
1FF807C0
1FFFFFC0
0FFFFFC0
07FFFFC0
03FFFFC0
00FFFF80
001FF800
ENDCHAR
STARTCHAR cdot
ENCODING 267
SWIDTH 514 0
DWIDTH 26 0
BBX 22 38 2 0
BITMAP
003F00
003F80
007F80
007F80
007F80
003F80
001F00
000000
000000
000000
007FE0
01FFFC
07FFFC
0FFFFC
1FFFF8
3FFFF8
3FE078
7FC000
7F8000
7F8000
7F0000
FF0000
FF0000
FF0000
FF0000
FF0000
FF0000
FF0000
7F0000
7F8000
7FC00C
3FE03C
3FFFFC
1FFFFC
1FFFFC
0FFFFC
03FFF8
007FC0
ENDCHAR
STARTCHAR Ccaron
ENCODING 268
SWIDTH 637 0
DWIDTH 32 0
BBX 27 46 3 0
BITMAP
03E007E0
03F81FC0
01FC3F80
00FE7F00
007FFE00
003FFC00
001FFC00
001FF800
00000000
00000000
000FF800
007FFF80
01FFFFE0
03FFFFE0
07FFFFC0
0FFFFFC0
1FFC0FC0
3FF00180
3FE00000
7FC00000
7F800000
7F800000
FF000000
FF000000
FF000000
FF000000
FF000000
FF000000
FF000000
FF000000
FF000000
FF000000
FF000000
FF000000
7F800000
7F800000
7FC00000
3FC00000
3FE00040
1FF807C0
1FFFFFC0
0FFFFFC0
07FFFFC0
03FFFFC0
00FFFF80
001FF800
ENDCHAR
STARTCHAR ccaron
ENCODING 269
SWIDTH 514 0
DWIDTH 26 0
BBX 24 38 2 0
BITMAP
3F003F
1FC0FE
0FE1FC
07F3F8
03FFF0
01FFE0
00FFC0
00FFC0
000000
000000
007FE0
01FFFC
07FFFC
0FFFFC
1FFFF8
3FFFF8
3FE078
7FC000
7F8000
7F8000
7F0000
FF0000
FF0000
FF0000
FF0000
FF0000
FF0000
FF0000
7F0000
7F8000
7FC00C
3FE03C
3FFFFC
1FFFFC
1FFFFC
0FFFFC
03FFF8
007FC0
ENDCHAR
STARTCHAR Dcaron
ENCODING 270
SWIDTH 740 0
DWIDTH 37 0
BBX 30 46 4 0
BITMAP
1F803F00
0FC07E00
07E1FC00
03FBF800
03FFF800
01FFF000
00FFE000
007FC000
00000000
00000000
FFFF8000
FFFFF000
FFFFFC00
FFFFFF00
FFFFFF80
FFFFFFC0
FF00FFE0
FF003FF0
FF001FF0
FF000FF8
FF0007F8
FF0007F8
FF0003FC
FF0003FC
FF0003FC
FF0003FC
FF0003FC
FF0003FC
FF0003FC
FF0003FC
FF0003FC
FF0003FC
FF0003FC
FF0007F8
FF0007F8
FF0007F8
FF000FF0
FF001FF0
FF003FE0
FF01FFE0
FFFFFFC0
FFFFFF80
FFFFFF00
FFFFFC00
FFFFF000
FFFF0000
ENDCHAR
STARTCHAR dcaron
ENCODING 271
SWIDTH 632 0
DWIDTH 32 0
BBX 36 38 2 0
BITMAP
00001FC7F0
00001FC7F0
00001FC7E0
00001FC7E0
00001FC7C0
00001FCFC0
00001FCF80
00001FCF80
00001FC000
00001FC000
00FC1FC000
07FF1FC000
0FFFDFC000
1FFFFFC000
1FFFFFC000
3FFFFFC000
7FE0FFC000
7FC07FC000
7F803FC000
7F001FC000
FF001FC000
FF001FC000
FF001FC000
FF001FC000
FF001FC000
FF001FC000
FF001FC000
FF001FC000
7F001FC000
7F803FC000
7FC03FC000
7FE0FFC000
3FFFFFC000
3FFFFFC000
1FFFDFC000
0FFF9FC000
07FF0FC000
01FC0FC000
ENDCHAR
STARTCHAR Dcroat
ENCODING 272
SWIDTH 740 0
DWIDTH 37 0
BBX 33 36 1 0
BITMAP
1FFFF00000
1FFFFE0000
1FFFFF8000
1FFFFFE000
1FFFFFF000
1FFFFFF800
1FE01FFC00
1FE007FE00
1FE003FE00
1FE001FF00
1FE000FF00
1FE000FF00
1FE0007F80
1FE0007F80
1FE0007F80
FFFF807F80
FFFF807F80
FFFF807F80
FFFF807F80
FFFF807F80
FFFF807F80
1FE0007F80
1FE0007F80
1FE000FF00
1FE000FF00
1FE000FF00
1FE001FE00
1FE003FE00
1FE007FC00
1FE03FFC00
1FFFFFF800
1FFFFFF000
1FFFFFE000
1FFFFF8000
1FFFFE0000
1FFFE00000
ENDCHAR
STARTCHAR dcroat
ENCODING 273
SWIDTH 648 0
DWIDTH 32 0
BBX 29 38 2 0
BITMAP
00003F80
00003F80
00003F80
00003F80
003FFFF8
003FFFF8
003FFFF8
003FFFF8
003FFFF8
00003F80
00003F80
00003F80
01FC3F80
0FFF3F80
1FFFBF80
3FFFFF80
3FFFFF80
7FFFFF80
7FC0FF80
7F807F80
7F803F80
FF803F80
FF003F80
FF003F80
FF003F80
FF003F80
FF003F80
FF803F80
FF803F80
7F803F80
7FC07F80
7FE0FF80
3FFFFF80
3FFFFF80
1FFFBF80
0FFF3F80
07FE1F80
01F81F80
ENDCHAR
STARTCHAR Emacron
ENCODING 274
SWIDTH 560 0
DWIDTH 28 0
BBX 21 43 4 0
BITMAP
1FFFE0
1FFFE0
1FFFE0
1FFFE0
1FFFE0
000000
000000
FFFFF8
FFFFF8
FFFFF8
FFFFF8
FFFFF8
FFFFF8
FF0000
FF0000
FF0000
FF0000
FF0000
FF0000
FF0000
FF0000
FFFFF0
FFFFF0
FFFFF0
FFFFF0
FFFFF0
FFFFF0
FF0000
FF0000
FF0000
FF0000
FF0000
FF0000
FF0000
FF0000
FF0000
FF0000
FFFFF8
FFFFF8
FFFFF8
FFFFF8
FFFFF8
FFFFF8
ENDCHAR
STARTCHAR emacron
ENCODING 275
SWIDTH 590 0
DWIDTH 30 0
BBX 26 35 2 0
BITMAP
07FFF800
07FFF800
07FFF800
07FFF800
07FFF800
00000000
00000000
007FC000
01FFF000
07FFFC00
0FFFFE00
1FFFFF00
3FE0FF00
3FC07F80
7F803F80
7F003F80
7F001FC0
7F001FC0
FFFFFFC0
FFFFFFC0
FFFFFFC0
FFFFFFC0
FFFFFFC0
FF000000
7F000000
7F000000
7F800000
7FC00100
3FF00F00
3FFFFF00
1FFFFF00
0FFFFF00
07FFFF00
01FFFE00
003FF000
ENDCHAR
STARTCHAR Ebreve
ENCODING 276
SWIDTH 560 0
DWIDTH 28 0
BBX 21 46 4 0
BITMAP
7800F0
7C01F0
7E07F0
3FFFE0
3FFFC0
1FFF80
0FFF00
01FC00
000000
000000
FFFFF8
FFFFF8
FFFFF8
FFFFF8
FFFFF8
FFFFF8
FF0000
FF0000
FF0000
FF0000
FF0000
FF0000
FF0000
FF0000
FFFFF0
FFFFF0
FFFFF0
FFFFF0
FFFFF0
FFFFF0
FF0000
FF0000
FF0000
FF0000
FF0000
FF0000
FF0000
FF0000
FF0000
FF0000
FFFFF8
FFFFF8
FFFFF8
FFFFF8
FFFFF8
FFFFF8
ENDCHAR
STARTCHAR ebreve
ENCODING 277
SWIDTH 590 0
DWIDTH 30 0
BBX 26 38 2 0
BITMAP
1F003E00
0F003C00
0FC0FC00
0FFFFC00
07FFF800
03FFF000
01FFE000
007F8000
00000000
00000000
007FC000
01FFF000
07FFFC00
0FFFFE00
1FFFFF00
3FE0FF00
3FC07F80
7F803F80
7F003F80
7F001FC0
7F001FC0
FFFFFFC0
FFFFFFC0
FFFFFFC0
FFFFFFC0
FFFFFFC0
FF000000
7F000000
7F000000
7F800000
7FC00100
3FF00F00
3FFFFF00
1FFFFF00
0FFFFF00
07FFFF00
01FFFE00
003FF000
ENDCHAR
STARTCHAR Edotaccent
ENCODING 278
SWIDTH 560 0
DWIDTH 28 0
BBX 21 46 4 0
BITMAP
00FC00
01FE00
01FE00
01FE00
01FE00
01FC00
00F800
000000
000000
000000
FFFFF8
FFFFF8
FFFFF8
FFFFF8
FFFFF8
FFFFF8
FF0000
FF0000
FF0000
FF0000
FF0000
FF0000
FF0000
FF0000
FFFFF0
FFFFF0
FFFFF0
FFFFF0
FFFFF0
FFFFF0
FF0000
FF0000
FF0000
FF0000
FF0000
FF0000
FF0000
FF0000
FF0000
FF0000
FFFFF8
FFFFF8
FFFFF8
FFFFF8
FFFFF8
FFFFF8
ENDCHAR
STARTCHAR edotaccent
ENCODING 279
SWIDTH 590 0
DWIDTH 30 0
BBX 26 38 2 0
BITMAP
003F0000
003F8000
007F8000
007F8000
007F8000
003F8000
001F0000
00000000
00000000
00000000
007FC000
01FFF000
07FFFC00
0FFFFE00
1FFFFF00
3FE0FF00
3FC07F80
7F803F80
7F003F80
7F001FC0
7F001FC0
FFFFFFC0
FFFFFFC0
FFFFFFC0
FFFFFFC0
FFFFFFC0
FF000000
7F000000
7F000000
7F800000
7FC00100
3FF00F00
3FFFFF00
1FFFFF00
0FFFFF00
07FFFF00
01FFFE00
003FF000
ENDCHAR
STARTCHAR Eogonek
ENCODING 280
SWIDTH 560 0
DWIDTH 28 0
BBX 21 48 4 -12
BITMAP
FFFFF8
FFFFF8
FFFFF8
FFFFF8
FFFFF8
FFFFF8
FF0000
FF0000
FF0000
FF0000
FF0000
FF0000
FF0000
FF0000
FFFFF0
FFFFF0
FFFFF0
FFFFF0
FFFFF0
FFFFF0
FF0000
FF0000
FF0000
FF0000
FF0000
FF0000
FF0000
FF0000
FF0000
FF0000
FFFFF8
FFFFF8
FFFFF8
FFFFF8
FFFFF8
FFFFF8
0003C0
000F80
000F00
001F00
003E00
003E00
003E00
003FF0
003FF0
001FF0
000FF0
0007E0
ENDCHAR
STARTCHAR eogonek
ENCODING 281
SWIDTH 590 0
DWIDTH 30 0
BBX 26 40 2 -12
BITMAP
007FC000
01FFF000
07FFFC00
0FFFFE00
1FFFFF00
3FE0FF00
3FC07F80
7F803F80
7F003F80
7F001FC0
7F001FC0
FFFFFFC0
FFFFFFC0
FFFFFFC0
FFFFFFC0
FFFFFFC0
FF000000
7F000000
7F000000
7F800000
7FC00100
3FF00F00
3FFFFF00
1FFFFF00
0FFFFF00
07FFFF00
01FFFE00
003FF000
0000F000
0001E000
0003E000
0007C000
00078000
000F8000
000F8000
000FFC00
0007FC00
0007FC00
0003FC00
0000FC00
ENDCHAR
STARTCHAR Ecaron
ENCODING 282
SWIDTH 560 0
DWIDTH 28 0
BBX 21 46 4 0
BITMAP
FC00F8
7E03F8
3F87F0
1FDFE0
0FFFC0
07FF80
07FF00
03FE00
000000
000000
FFFFF8
FFFFF8
FFFFF8
FFFFF8
FFFFF8
FFFFF8
FF0000
FF0000
FF0000
FF0000
FF0000
FF0000
FF0000
FF0000
FFFFF0
FFFFF0
FFFFF0
FFFFF0
FFFFF0
FFFFF0
FF0000
FF0000
FF0000
FF0000
FF0000
FF0000
FF0000
FF0000
FF0000
FF0000
FFFFF8
FFFFF8
FFFFF8
FFFFF8
FFFFF8
FFFFF8
ENDCHAR
STARTCHAR ecaron
ENCODING 283
SWIDTH 590 0
DWIDTH 30 0
BBX 26 38 2 0
BITMAP
3F003F00
1FC0FE00
0FE1FC00
07F3F800
03FFF000
01FFE000
00FFC000
00FFC000
00000000
00000000
007FC000
01FFF000
07FFFC00
0FFFFE00
1FFFFF00
3FE0FF00
3FC07F80
7F803F80
7F003F80
7F001FC0
7F001FC0
FFFFFFC0
FFFFFFC0
FFFFFFC0
FFFFFFC0
FFFFFFC0
FF000000
7F000000
7F000000
7F800000
7FC00100
3FF00F00
3FFFFF00
1FFFFF00
0FFFFF00
07FFFF00
01FFFE00
003FF000
ENDCHAR
STARTCHAR Gcircumflex
ENCODING 284
SWIDTH 724 0
DWIDTH 36 0
BBX 29 46 3 0
BITMAP
000FF800
001FFC00
003FFE00
007FFF00
007F7F00
00FC3F80
01F80FC0
03F007E0
00000000
00000000
0007FF00
003FFFE0
00FFFFF8
03FFFFF0
07FFFFF0
0FFFFFF0
1FFE03E0
1FF80060
3FE00000
7FC00000
7FC00000
7F800000
FF800000
FF000000
FF000000
FF000000
FF01FFF8
FF01FFF8
FF01FFF8
FF01FFF8
FF01FFF8
FF01FFF8
FF0003F8
FF0003F8
7F8003F8
7F8003F8
7FC003F8
3FC003F8
3FF003F8
1FFC03F8
1FFFFFF8
0FFFFFF8
07FFFFF8
01FFFFF8
00FFFFE0
000FFE00
ENDCHAR
STARTCHAR gcircumflex
ENCODING 285
SWIDTH 564 0
DWIDTH 28 0
BBX 27 50 0 -12
BITMAP
007FE000
007FE000
00FFF000
01FFF800
03F9FC00
07F0FE00
0FE07F00
1F801F80
00000000
00000000
007F0000
03FFFFE0
07FFFFE0
0FFFFFE0
1FE1FFE0
1FC0FF80
1FC07E00
3F807F00
3F807F00
3F807F00
3F807F00
3F807F00
1FC07F00
1FC0FF00
0FE1FE00
0FFFFC00
07FFF800
01FFF000
07FF8000
0FC00000
0F800000
1FC00000
1FFFFC00
0FFFFF00
07FFFF80
03FFFFC0
0FFFFFE0
3FFFFFE0
7F801FE0
7E000FE0
FE000FE0
FE000FE0
FE000FE0
FE001FC0
FF807FC0
7FFFFF80
7FFFFF00
3FFFFE00
0FFFF800
01FF8000
ENDCHAR
STARTCHAR Gbreve
ENCODING 286
SWIDTH 724 0
DWIDTH 36 0
BBX 29 46 3 0
BITMAP
01E003C0
01F007C0
00F81FC0
00FFFF80
007FFF80
007FFF00
001FFC00
0007F000
00000000
00000000
0007FF00
003FFFE0
00FFFFF8
03FFFFF0
07FFFFF0
0FFFFFF0
1FFE03E0
1FF80060
3FE00000
7FC00000
7FC00000
7F800000
FF800000
FF000000
FF000000
FF000000
FF01FFF8
FF01FFF8
FF01FFF8
FF01FFF8
FF01FFF8
FF01FFF8
FF0003F8
FF0003F8
7F8003F8
7F8003F8
7FC003F8
3FC003F8
3FF003F8
1FFC03F8
1FFFFFF8
0FFFFFF8
07FFFFF8
01FFFFF8
00FFFFE0
000FFE00
ENDCHAR
STARTCHAR gbreve
ENCODING 287
SWIDTH 564 0
DWIDTH 28 0
BBX 27 50 0 -12
BITMAP
07800F00
07801F00
07E07E00
03FFFE00
03FFFC00
01FFF800
00FFF000
003FC000
00000000
00000000
007F0000
03FFFFE0
07FFFFE0
0FFFFFE0
1FE1FFE0
1FC0FF80
1FC07E00
3F807F00
3F807F00
3F807F00
3F807F00
3F807F00
1FC07F00
1FC0FF00
0FE1FE00
0FFFFC00
07FFF800
01FFF000
07FF8000
0FC00000
0F800000
1FC00000
1FFFFC00
0FFFFF00
07FFFF80
03FFFFC0
0FFFFFE0
3FFFFFE0
7F801FE0
7E000FE0
FE000FE0
FE000FE0
FE000FE0
FE001FC0
FF807FC0
7FFFFF80
7FFFFF00
3FFFFE00
0FFFF800
01FF8000
ENDCHAR
STARTCHAR Gdot
ENCODING 288
SWIDTH 724 0
DWIDTH 36 0
BBX 29 46 3 0
BITMAP
0003F000
0007F800
0007F800
0007F800
0007F800
0007F000
0003E000
00000000
00000000
00000000
0007FF00
003FFFE0
00FFFFF8
03FFFFF0
07FFFFF0
0FFFFFF0
1FFE03E0
1FF80060
3FE00000
7FC00000
7FC00000
7F800000
FF800000
FF000000
FF000000
FF000000
FF01FFF8
FF01FFF8
FF01FFF8
FF01FFF8
FF01FFF8
FF01FFF8
FF0003F8
FF0003F8
7F8003F8
7F8003F8
7FC003F8
3FC003F8
3FF003F8
1FFC03F8
1FFFFFF8
0FFFFFF8
07FFFFF8
01FFFFF8
00FFFFE0
000FFE00
ENDCHAR
STARTCHAR gdot
ENCODING 289
SWIDTH 564 0
DWIDTH 28 0
BBX 27 50 0 -12
BITMAP
001F8000
003FC000
003FC000
003FC000
003FC000
003FC000
000F0000
00000000
00000000
00000000
007F0000
03FFFFE0
07FFFFE0
0FFFFFE0
1FE1FFE0
1FC0FF80
1FC07E00
3F807F00
3F807F00
3F807F00
3F807F00
3F807F00
1FC07F00
1FC0FF00
0FE1FE00
0FFFFC00
07FFF800
01FFF000
07FF8000
0FC00000
0F800000
1FC00000
1FFFFC00
0FFFFF00
07FFFF80
03FFFFC0
0FFFFFE0
3FFFFFE0
7F801FE0
7E000FE0
FE000FE0
FE000FE0
FE000FE0
FE001FC0
FF807FC0
7FFFFF80
7FFFFF00
3FFFFE00
0FFFF800
01FF8000
ENDCHAR
STARTCHAR Gcommaaccent
ENCODING 290
SWIDTH 724 0
DWIDTH 36 0
BBX 29 47 3 -11
BITMAP
0007FF00
003FFFE0
00FFFFF8
03FFFFF0
07FFFFF0
0FFFFFF0
1FFE03E0
1FF80060
3FE00000
7FC00000
7FC00000
7F800000
FF800000
FF000000
FF000000
FF000000
FF01FFF8
FF01FFF8
FF01FFF8
FF01FFF8
FF01FFF8
FF01FFF8
FF0003F8
FF0003F8
7F8003F8
7F8003F8
7FC003F8
3FC003F8
3FF003F8
1FFC03F8
1FFFFFF8
0FFFFFF8
07FFFFF8
01FFFFF8
00FFFFE0
000FFE00
00000000
00000000
00000000
0003F800
0003F000
0007F000
0007E000
0007E000
0007C000
0007C000
000F8000
ENDCHAR
STARTCHAR gcommaaccent
ENCODING 291
SWIDTH 564 0
DWIDTH 28 0
BBX 27 50 0 -12
BITMAP
0003E000
0007E000
0007C000
000FC000
000FC000
001FC000
001F8000
003F8000
00000000
00000000
007F0000
03FFFFE0
07FFFFE0
0FFFFFE0
1FE1FFE0
1FC0FF80
1FC07E00
3F807F00
3F807F00
3F807F00
3F807F00
3F807F00
1FC07F00
1FC0FF00
0FE1FE00
0FFFFC00
07FFF800
01FFF000
07FF8000
0FC00000
0F800000
1FC00000
1FFFFC00
0FFFFF00
07FFFF80
03FFFFC0
0FFFFFE0
3FFFFFE0
7F801FE0
7E000FE0
FE000FE0
FE000FE0
FE000FE0
FE001FC0
FF807FC0
7FFFFF80
7FFFFF00
3FFFFE00
0FFFF800
01FF8000
ENDCHAR
STARTCHAR Hcircumflex
ENCODING 292
SWIDTH 765 0
DWIDTH 38 0
BBX 29 46 4 0
BITMAP
003FF000
003FF000
007FF800
00FFFC00
01FCFE00
03F87F00
07E03F80
0FC00F80
00000000
00000000
FF0003F8
FF0003F8
FF0003F8
FF0003F8
FF0003F8
FF0003F8
FF0003F8
FF0003F8
FF0003F8
FF0003F8
FF0003F8
FF0003F8
FF0003F8
FF0003F8
FFFFFFF8
FFFFFFF8
FFFFFFF8
FFFFFFF8
FFFFFFF8
FFFFFFF8
FF0003F8
FF0003F8
FF0003F8
FF0003F8
FF0003F8
FF0003F8
FF0003F8
FF0003F8
FF0003F8
FF0003F8
FF0003F8
FF0003F8
FF0003F8
FF0003F8
FF0003F8
FF0003F8
ENDCHAR
STARTCHAR hcircumflex
ENCODING 293
SWIDTH 657 0
DWIDTH 33 0
BBX 25 48 4 0
BITMAP
00FF8000
01FFC000
03FFC000
07FFE000
0FE7F000
1FC3F800
3F80FC00
3E007E00
00000000
00000000
FE000000
FE000000
FE000000
FE000000
FE000000
FE000000
FE000000
FE000000
FE000000
FE000000
FE0FE000
FE3FF800
FE7FFE00
FEFFFE00
FFFFFF00
FFFFFF80
FFE1FF80
FF807F80
FF807F80
FF003F80
FF003F80
FF003F80
FE003F80
FE003F80
FE003F80
FE003F80
FE003F80
FE003F80
FE003F80
FE003F80
FE003F80
FE003F80
FE003F80
FE003F80
FE003F80
FE003F80
FE003F80
FE003F80
ENDCHAR
STARTCHAR Hbar
ENCODING 294
SWIDTH 765 0
DWIDTH 38 0
BBX 38 36 0 0
BITMAP
0FF0003F80
0FF0003F80
0FF0003F80
0FF0003F80
0FF0003F80
FFFFFFFFFC
FFFFFFFFFC
FFFFFFFFFC
FFFFFFFFFC
FFFFFFFFFC
0FF0003F80
0FF0003F80
0FF0003F80
0FF0003F80
0FFFFFFF80
0FFFFFFF80
0FFFFFFF80
0FFFFFFF80
0FFFFFFF80
0FFFFFFF80
0FF0003F80
0FF0003F80
0FF0003F80
0FF0003F80
0FF0003F80
0FF0003F80
0FF0003F80
0FF0003F80
0FF0003F80
0FF0003F80
0FF0003F80
0FF0003F80
0FF0003F80
0FF0003F80
0FF0003F80
0FF0003F80
ENDCHAR
STARTCHAR hbar
ENCODING 295
SWIDTH 657 0
DWIDTH 33 0
BBX 29 38 0 0
BITMAP
0FE00000
0FE00000
0FE00000
0FE00000
FFFFE000
FFFFE000
FFFFE000
FFFFE000
FFFFE000
0FE00000
0FE00000
0FE00000
0FE0FE00
0FE3FF80
0FE7FFE0
0FEFFFF0
0FFFFFF0
0FFFFFF8
0FFE1FF8
0FF807F8
0FF807F8
0FF003F8
0FF003F8
0FF003F8
0FE003F8
0FE003F8
0FE003F8
0FE003F8
0FE003F8
0FE003F8
0FE003F8
0FE003F8
0FE003F8
0FE003F8
0FE003F8
0FE003F8
0FE003F8
0FE003F8
ENDCHAR
STARTCHAR Itilde
ENCODING 296
SWIDTH 331 0
DWIDTH 17 0
BBX 20 46 -2 0
BITMAP
0F8070
1FE0F0
3FF1F0
7FFFF0
7FFFE0
F8FFE0
F03FC0
F00F00
000000
000000
01FC00
01FC00
01FC00
01FC00
01FC00
01FC00
01FC00
01FC00
01FC00
01FC00
01FC00
01FC00
01FC00
01FC00
01FC00
01FC00
01FC00
01FC00
01FC00
01FC00
01FC00
01FC00
01FC00
01FC00
01FC00
01FC00
01FC00
01FC00
01FC00
01FC00
01FC00
01FC00
01FC00
01FC00
01FC00
01FC00
ENDCHAR
STARTCHAR itilde
ENCODING 297
SWIDTH 305 0
DWIDTH 15 0
BBX 21 38 -3 0
BITMAP
078078
1FE078
3FF8F0
3FFFF0
7FFFF0
78FFE0
783FC0
F00F80
000000
000000
000000
01FC00
01FC00
01FC00
01FC00
01FC00
01FC00
01FC00
01FC00
01FC00
01FC00
01FC00
01FC00
01FC00
01FC00
01FC00
01FC00
01FC00
01FC00
01FC00
01FC00
01FC00
01FC00
01FC00
01FC00
01FC00
01FC00
01FC00
ENDCHAR
STARTCHAR Imacron
ENCODING 298
SWIDTH 331 0
DWIDTH 17 0
BBX 17 43 0 0
BITMAP
FFFF80
FFFF80
FFFF80
FFFF80
FFFF80
000000
000000
07F000
07F000
07F000
07F000
07F000
07F000
07F000
07F000
07F000
07F000
07F000
07F000
07F000
07F000
07F000
07F000
07F000
07F000
07F000
07F000
07F000
07F000
07F000
07F000
07F000
07F000
07F000
07F000
07F000
07F000
07F000
07F000
07F000
07F000
07F000
07F000
ENDCHAR
STARTCHAR imacron
ENCODING 299
SWIDTH 305 0
DWIDTH 15 0
BBX 17 35 -1 0
BITMAP
FFFF80
FFFF80
FFFF80
FFFF80
FFFF80
000000
000000
000000
07F000
07F000
07F000
07F000
07F000
07F000
07F000
07F000
07F000
07F000
07F000
07F000
07F000
07F000
07F000
07F000
07F000
07F000
07F000
07F000
07F000
07F000
07F000
07F000
07F000
07F000
07F000
ENDCHAR
STARTCHAR Ibreve
ENCODING 300
SWIDTH 331 0
DWIDTH 17 0
BBX 19 46 -1 0
BITMAP
F003E0
F003E0
FC0FC0
FFFFC0
7FFF80
3FFF00
1FFE00
07F800
000000
000000
03F800
03F800
03F800
03F800
03F800
03F800
03F800
03F800
03F800
03F800
03F800
03F800
03F800
03F800
03F800
03F800
03F800
03F800
03F800
03F800
03F800
03F800
03F800
03F800
03F800
03F800
03F800
03F800
03F800
03F800
03F800
03F800
03F800
03F800
03F800
03F800
ENDCHAR
STARTCHAR ibreve
ENCODING 301
SWIDTH 305 0
DWIDTH 15 0
BBX 19 38 -2 0
BITMAP
F001E0
F803E0
FC0FE0
7FFFC0
7FFF80
3FFF00
1FFE00
03F800
000000
000000
000000
03F800
03F800
03F800
03F800
03F800
03F800
03F800
03F800
03F800
03F800
03F800
03F800
03F800
03F800
03F800
03F800
03F800
03F800
03F800
03F800
03F800
03F800
03F800
03F800
03F800
03F800
03F800
ENDCHAR
STARTCHAR Iogonek
ENCODING 302
SWIDTH 331 0
DWIDTH 17 0
BBX 9 48 3 -12
BITMAP
3F80
3F80
3F80
3F80
3F80
3F80
3F80
3F80
3F80
3F80
3F80
3F80
3F80
3F80
3F80
3F80
3F80
3F80
3F80
3F80
3F80
3F80
3F80
3F80
3F80
3F80
3F80
3F80
3F80
3F80
3F80
3F80
3F80
3F80
3F80
3F80
1F00
3E00
7C00
F800
F800
F800
F800
FD80
FF80
7F80
7F80
1F80
ENDCHAR
STARTCHAR iogonek
ENCODING 303
SWIDTH 305 0
DWIDTH 15 0
BBX 11 50 1 -12
BITMAP
0F80
1FC0
1FE0
1FE0
1FE0
1FC0
0F80
0000
0000
0000
0000
1FC0
1FC0
1FC0
1FC0
1FC0
1FC0
1FC0
1FC0
1FC0
1FC0
1FC0
1FC0
1FC0
1FC0
1FC0
1FC0
1FC0
1FC0
1FC0
1FC0
1FC0
1FC0
1FC0
1FC0
1FC0
1FC0
1FC0
0F00
1E00
3C00
7C00
F800
F800
F800
FFC0
FFC0
7FC0
3FC0
1F80
ENDCHAR
STARTCHAR Idotaccent
ENCODING 304
SWIDTH 331 0
DWIDTH 17 0
BBX 8 46 4 0
BITMAP
7E
FF
FF
FF
FF
7F
3E
00
00
00
7F
7F
7F
7F
7F
7F
7F
7F
7F
7F
7F
7F
7F
7F
7F
7F
7F
7F
7F
7F
7F
7F
7F
7F
7F
7F
7F
7F
7F
7F
7F
7F
7F
7F
7F
7F
ENDCHAR
STARTCHAR dotlessi
ENCODING 305
SWIDTH 305 0
DWIDTH 15 0
BBX 7 27 4 0
BITMAP
FE
FE
FE
FE
FE
FE
FE
FE
FE
FE
FE
FE
FE
FE
FE
FE
FE
FE
FE
FE
FE
FE
FE
FE
FE
FE
FE
ENDCHAR
STARTCHAR IJ
ENCODING 306
SWIDTH 720 0
DWIDTH 36 0
BBX 27 46 5 -10
BITMAP
FE001FE0
FE001FE0
FE001FE0
FE001FE0
FE001FE0
FE001FE0
FE001FE0
FE001FE0
FE001FE0
FE001FE0
FE001FE0
FE001FE0
FE001FE0
FE001FE0
FE001FE0
FE001FE0
FE001FE0
FE001FE0
FE001FE0
FE001FE0
FE001FE0
FE001FE0
FE001FE0
FE001FE0
FE001FE0
FE001FE0
FE001FE0
FE001FE0
FE001FE0
FE001FE0
FE001FE0
FE001FE0
FE001FE0
FE001FE0
FE001FC0
FE001FC0
00001FC0
00003FC0
00003FC0
00007FC0
001FFF80
001FFF80
001FFF00
001FFE00
001FFC00
001FE000
ENDCHAR
STARTCHAR ij
ENCODING 307
SWIDTH 590 0
DWIDTH 30 0
BBX 22 50 4 -12
BITMAP
7C01F0
FE03FC
FF03FC
FF03FC
FF03FC
FE03F8
7C01F0
000000
000000
000000
000000
FE03FC
FE03FC
FE03FC
FE03FC
FE03FC
FE03FC
FE03FC
FE03FC
FE03FC
FE03FC
FE03FC
FE03FC
FE03FC
FE03FC
FE03FC
FE03FC
FE03FC
FE03FC
FE03FC
FE03FC
FE03FC
FE03FC
FE03FC
FE03FC
FE03FC
FE03FC
FE03FC
0003FC
0003FC
0003FC
0003FC
0003FC
0007F8
01FFF8
01FFF8
01FFF0
01FFE0
01FFC0
00FF00
ENDCHAR
STARTCHAR Jcircumflex
ENCODING 308
SWIDTH 331 0
DWIDTH 17 0
BBX 23 56 -4 -10
BITMAP
00FF80
01FFC0
03FFC0
07FFE0
0FE7F0
1FC3F8
3F81FC
3E007E
000000
000000
00FF00
00FF00
00FF00
00FF00
00FF00
00FF00
00FF00
00FF00
00FF00
00FF00
00FF00
00FF00
00FF00
00FF00
00FF00
00FF00
00FF00
00FF00
00FF00
00FF00
00FF00
00FF00
00FF00
00FF00
00FF00
00FF00
00FF00
00FF00
00FF00
00FF00
00FF00
00FF00
00FF00
00FF00
00FF00
00FF00
00FF00
00FF00
01FE00
03FE00
FFFE00
FFFC00
FFF800
FFF000
FFE000
FF8000
ENDCHAR
STARTCHAR jcircumflex
ENCODING 309
SWIDTH 305 0
DWIDTH 15 0
BBX 21 50 -3 -12
BITMAP
03FE00
07FF00
0FFF80
1FFF80
3FDFC0
3F0FE0
7E03F0
FC01F8
000000
000000
000000
01FC00
01FC00
01FC00
01FC00
01FC00
01FC00
01FC00
01FC00
01FC00
01FC00
01FC00
01FC00
01FC00
01FC00
01FC00
01FC00
01FC00
01FC00
01FC00
01FC00
01FC00
01FC00
01FC00
01FC00
01FC00
01FC00
01FC00
01FC00
01FC00
01FC00
01FC00
03FC00
07FC00
FFFC00
FFF800
FFF800
FFF000
FFE000
FF0000
ENDCHAR
STARTCHAR Kcommaaccent
ENCODING 310
SWIDTH 664 0
DWIDTH 33 0
BBX 29 47 4 -11
BITMAP
FF000FF8
FF001FF0
FF001FE0
FF003FC0
FF007F80
FF00FF80
FF01FF00
FF01FE00
FF03FC00
FF07FC00
FF0FF800
FF0FF000
FF1FE000
FF3FE000
FF7FC000
FF7F8000
FFFF8000
FFFFC000
FFFFC000
FFFFE000
FFFFE000
FFCFF000
FF8FF800
FF07F800
FF07FC00
FF03FE00
FF01FE00
FF01FF00
FF00FF00
FF00FF80
FF007FC0
FF003FC0
FF003FE0
FF001FE0
FF001FF0
FF000FF8
00000000
00000000
00000000
003F8000
003F0000
007F0000
007E0000
007E0000
007C0000
007C0000
00F80000
ENDCHAR
STARTCHAR kcommaaccent
ENCODING 311
SWIDTH 620 0
DWIDTH 31 0
BBX 27 49 4 -11
BITMAP
FE000000
FE000000
FE000000
FE000000
FE000000
FE000000
FE000000
FE000000
FE000000
FE000000
FE000000
FE007FC0
FE007F80
FE00FF00
FE01FE00
FE03FC00
FE07F800
FE0FF000
FE1FE000
FE3FC000
FE7FC000
FEFF8000
FEFF0000
FFFF0000
FFFF8000
FFFFC000
FFFFC000
FFDFE000
FF8FF000
FF0FF800
FE07F800
FE03FC00
FE03FE00
FE01FF00
FE00FF00
FE007F80
FE007FC0
FE003FE0
00000000
00000000
00000000
007F0000
007E0000
007E0000
00FC0000
00FC0000
00F80000
00F80000
01F00000
ENDCHAR
STARTCHAR kgreenlandic
ENCODING 312
SWIDTH 620 0
DWIDTH 31 0
BBX 27 27 4 0
BITMAP
FE003FC0
FE007F80
FE00FF00
FE01FE00
FE03FC00
FE03FC00
FE07F800
FE0FF000
FE1FE000
FE3FC000
FE7F8000
FEFF0000
FEFF0000
FFFF0000
FFFF8000
FFFFC000
FFFFE000
FFDFF000
FF0FF000
FE07F800
FE03FC00
FE03FE00
FE01FF00
FE00FF00
FE007F80
FE007FC0
FE003FE0
ENDCHAR
STARTCHAR Lacute
ENCODING 313
SWIDTH 564 0
DWIDTH 28 0
BBX 22 46 4 0
BITMAP
00FF80
01FE00
03FC00
03F800
07F000
0FE000
1F8000
3F0000
000000
000000
FF0000
FF0000
FF0000
FF0000
FF0000
FF0000
FF0000
FF0000
FF0000
FF0000
FF0000
FF0000
FF0000
FF0000
FF0000
FF0000
FF0000
FF0000
FF0000
FF0000
FF0000
FF0000
FF0000
FF0000
FF0000
FF0000
FF0000
FF0000
FF0000
FF0000
FFFFFC
FFFFFC
FFFFFC
FFFFFC
FFFFFC
FFFFFC
ENDCHAR
STARTCHAR lacute
ENCODING 314
SWIDTH 305 0
DWIDTH 15 0
BBX 14 48 4 0
BITMAP
03FC
07F8
0FF0
1FE0
1FC0
3F80
7E00
FC00
0000
0000
FE00
FE00
FE00
FE00
FE00
FE00
FE00
FE00
FE00
FE00
FE00
FE00
FE00
FE00
FE00
FE00
FE00
FE00
FE00
FE00
FE00
FE00
FE00
FE00
FE00
FE00
FE00
FE00
FE00
FE00
FE00
FE00
FE00
FE00
FE00
FE00
FE00
FE00
ENDCHAR
STARTCHAR Lcommaaccent
ENCODING 315
SWIDTH 564 0
DWIDTH 28 0
BBX 22 47 4 -11
BITMAP
FF0000
FF0000
FF0000
FF0000
FF0000
FF0000
FF0000
FF0000
FF0000
FF0000
FF0000
FF0000
FF0000
FF0000
FF0000
FF0000
FF0000
FF0000
FF0000
FF0000
FF0000
FF0000
FF0000
FF0000
FF0000
FF0000
FF0000
FF0000
FF0000
FF0000
FFFFFC
FFFFFC
FFFFFC
FFFFFC
FFFFFC
FFFFFC
000000
000000
000000
00FE00
00FC00
01FC00
01F800
01F800
01F000
01F000
03E000
ENDCHAR
STARTCHAR lcommaaccent
ENCODING 316
SWIDTH 305 0
DWIDTH 15 0
BBX 9 49 2 -11
BITMAP
3F80
3F80
3F80
3F80
3F80
3F80
3F80
3F80
3F80
3F80
3F80
3F80
3F80
3F80
3F80
3F80
3F80
3F80
3F80
3F80
3F80
3F80
3F80
3F80
3F80
3F80
3F80
3F80
3F80
3F80
3F80
3F80
3F80
3F80
3F80
3F80
3F80
3F80
0000
0000
0000
3F80
3F00
3F00
7E00
7E00
7C00
7C00
F800
ENDCHAR
STARTCHAR Lcaron
ENCODING 317
SWIDTH 564 0
DWIDTH 28 0
BBX 22 36 4 0
BITMAP
FF01FC
FF01FC
FF01F8
FF01F8
FF03F0
FF03F0
FF03E0
FF03C0
FF0000
FF0000
FF0000
FF0000
FF0000
FF0000
FF0000
FF0000
FF0000
FF0000
FF0000
FF0000
FF0000
FF0000
FF0000
FF0000
FF0000
FF0000
FF0000
FF0000
FF0000
FF0000
FFFFFC
FFFFFC
FFFFFC
FFFFFC
FFFFFC
FFFFFC
ENDCHAR
STARTCHAR lcaron
ENCODING 318
SWIDTH 305 0
DWIDTH 15 0
BBX 18 38 4 0
BITMAP
FE1FC0
FE1FC0
FE1F80
FE3F80
FE3F00
FE3E00
FE3E00
FE3C00
FE0000
FE0000
FE0000
FE0000
FE0000
FE0000
FE0000
FE0000
FE0000
FE0000
FE0000
FE0000
FE0000
FE0000
FE0000
FE0000
FE0000
FE0000
FE0000
FE0000
FE0000
FE0000
FE0000
FE0000
FE0000
FE0000
FE0000
FE0000
FE0000
FE0000
ENDCHAR
STARTCHAR Ldot
ENCODING 319
SWIDTH 564 0
DWIDTH 28 0
BBX 22 36 4 0
BITMAP
FF0000
FF0000
FF0000
FF0000
FF0000
FF0000
FF0000
FF0000
FF0000
FF0000
FF0000
FF0000
FF0000
FF0000
FF03F0
FF03F8
FF07F8
FF07F8
FF07F8
FF03F8
FF01F0
FF0000
FF0000
FF0000
FF0000
FF0000
FF0000
FF0000
FF0000
FF0000
FFFFFC
FFFFFC
FFFFFC
FFFFFC
FFFFFC
FFFFFC
ENDCHAR
STARTCHAR ldot
ENCODING 320
SWIDTH 428 0
DWIDTH 21 0
BBX 18 38 4 0
BITMAP
FE0000
FE0000
FE0000
FE0000
FE0000
FE0000
FE0000
FE0000
FE0000
FE0000
FE0000
FE0000
FE0000
FE0000
FE0000
FE0000
FE0000
FE1F80
FE1FC0
FE3FC0
FE3FC0
FE3FC0
FE1FC0
FE0F80
FE0000
FE0000
FE0000
FE0000
FE0000
FE0000
FE0000
FE0000
FE0000
FE0000
FE0000
FE0000
FE0000
FE0000
ENDCHAR
STARTCHAR Lslash
ENCODING 321
SWIDTH 564 0
DWIDTH 28 0
BBX 26 36 0 0
BITMAP
0FF00000
0FF00000
0FF00000
0FF00000
0FF00000
0FF00000
0FF00000
0FF00000
0FF00000
0FF00000
0FF00000
0FF30000
0FFF8000
0FFF8000
0FFFC000
0FFFC000
0FFF8000
0FFE0000
1FF80000
7FF00000
FFF00000
7FF00000
7FF00000
3FF00000
0FF00000
0FF00000
0FF00000
0FF00000
0FF00000
0FF00000
0FFFFFC0
0FFFFFC0
0FFFFFC0
0FFFFFC0
0FFFFFC0
0FFFFFC0
ENDCHAR
STARTCHAR lslash
ENCODING 322
SWIDTH 330 0
DWIDTH 17 0
BBX 16 38 0 0
BITMAP
07F0
07F0
07F0
07F0
07F0
07F0
07F0
07F0
07F0
07F0
07F0
07F0
07F0
07F0
07F4
07FE
07FE
07FF
07FF
07FE
1FFC
7FF0
FFF0
7FF0
7FF0
3FF0
17F0
07F0
07F0
07F0
07F0
07F0
07F0
07F0
07F0
07F0
07F0
07F0
ENDCHAR
STARTCHAR Nacute
ENCODING 323
SWIDTH 812 0
DWIDTH 41 0
BBX 33 46 4 0
BITMAP
00007FC000
00007F8000
0000FF0000
0001FE0000
0003F80000
0007F00000
0007E00000
000FC00000
0000000000
0000000000
FFC0003F80
FFE0003F80
FFF0003F80
FFF0003F80
FFF8003F80
FFF8003F80
FFFC003F80
FFFC003F80
FFFE003F80
FFFF003F80
FEFF003F80
FE7F803F80
FE7F803F80
FE3FC03F80
FE3FE03F80
FE1FE03F80
FE1FF03F80
FE0FF03F80
FE07F83F80
FE07FC3F80
FE03FC3F80
FE03FE3F80
FE01FE3F80
FE00FF3F80
FE00FF3F80
FE007FBF80
FE007FFF80
FE003FFF80
FE003FFF80
FE001FFF80
FE000FFF80
FE000FFF80
FE0007FF80
FE0007FF80
FE0003FF80
FE0001FF80
ENDCHAR
STARTCHAR nacute
ENCODING 324
SWIDTH 657 0
DWIDTH 33 0
BBX 25 38 4 0
BITMAP
0003FC00
0007F800
000FF000
001FE000
001FC000
003F0000
007E0000
00FC0000
00000000
00000000
000FE000
FC3FF800
FCFFFE00
FDFFFF00
FFFFFF00
FFFFFF80
FFE0FF80
FF807F80
FF807F80
FF003F80
FF003F80
FF003F80
FE003F80
FE003F80
FE003F80
FE003F80
FE003F80
FE003F80
FE003F80
FE003F80
FE003F80
FE003F80
FE003F80
FE003F80
FE003F80
FE003F80
FE003F80
FE003F80
ENDCHAR
STARTCHAR Ncommaaccent
ENCODING 325
SWIDTH 812 0
DWIDTH 41 0
BBX 33 47 4 -11
BITMAP
FFC0003F80
FFE0003F80
FFF0003F80
FFF0003F80
FFF8003F80
FFF8003F80
FFFC003F80
FFFC003F80
FFFE003F80
FFFF003F80
FEFF003F80
FE7F803F80
FE7F803F80
FE3FC03F80
FE3FE03F80
FE1FE03F80
FE1FF03F80
FE0FF03F80
FE07F83F80
FE07FC3F80
FE03FC3F80
FE03FE3F80
FE01FE3F80
FE00FF3F80
FE00FF3F80
FE007FBF80
FE007FFF80
FE003FFF80
FE003FFF80
FE001FFF80
FE000FFF80
FE000FFF80
FE0007FF80
FE0007FF80
FE0003FF80
FE0001FF80
0000000000
0000000000
0000000000
000FE00000
000FE00000
000FC00000
000FC00000
001F800000
001F000000
001F000000
001E000000
ENDCHAR
STARTCHAR ncommaaccent
ENCODING 326
SWIDTH 657 0
DWIDTH 33 0
BBX 25 39 4 -11
BITMAP
000FE000
FC3FF800
FCFFFE00
FDFFFF00
FFFFFF00
FFFFFF80
FFE0FF80
FF807F80
FF807F80
FF003F80
FF003F80
FF003F80
FE003F80
FE003F80
FE003F80
FE003F80
FE003F80
FE003F80
FE003F80
FE003F80
FE003F80
FE003F80
FE003F80
FE003F80
FE003F80
FE003F80
FE003F80
FE003F80
00000000
00000000
00000000
007F0000
007E0000
007E0000
00FC0000
00FC0000
00F80000
00F80000
01F00000
ENDCHAR
STARTCHAR Ncaron
ENCODING 327
SWIDTH 812 0
DWIDTH 41 0
BBX 33 46 4 0
BITMAP
03F003E000
01F80FE000
00FE1FC000
007F3F8000
003FFF0000
001FFE0000
001FFC0000
000FF80000
0000000000
0000000000
FFC0003F80
FFE0003F80
FFF0003F80
FFF0003F80
FFF8003F80
FFF8003F80
FFFC003F80
FFFC003F80
FFFE003F80
FFFF003F80
FEFF003F80
FE7F803F80
FE7F803F80
FE3FC03F80
FE3FE03F80
FE1FE03F80
FE1FF03F80
FE0FF03F80
FE07F83F80
FE07FC3F80
FE03FC3F80
FE03FE3F80
FE01FE3F80
FE00FF3F80
FE00FF3F80
FE007FBF80
FE007FFF80
FE003FFF80
FE003FFF80
FE001FFF80
FE000FFF80
FE000FFF80
FE0007FF80
FE0007FF80
FE0003FF80
FE0001FF80
ENDCHAR
STARTCHAR ncaron
ENCODING 328
SWIDTH 657 0
DWIDTH 33 0
BBX 25 38 4 0
BITMAP
3F003E00
1F80FE00
0FE1FC00
07F3F800
03FFF000
01FFE000
01FFC000
00FFC000
00000000
00000000
000FE000
FC3FF800
FCFFFE00
FDFFFF00
FFFFFF00
FFFFFF80
FFE0FF80
FF807F80
FF807F80
FF003F80
FF003F80
FF003F80
FE003F80
FE003F80
FE003F80
FE003F80
FE003F80
FE003F80
FE003F80
FE003F80
FE003F80
FE003F80
FE003F80
FE003F80
FE003F80
FE003F80
FE003F80
FE003F80
ENDCHAR
STARTCHAR napostrophe
ENCODING 329
SWIDTH 778 0
DWIDTH 39 0
BBX 35 36 0 0
BITMAP
3FC0000000
3FC0000000
3F80000000
3F80000000
3F80000000
3F00000000
7F00000000
7E00000000
7E0003F800
7E3F0FFF00
FC3F3FFF80
FC3FFFFFC0
003FFFFFC0
003FFFFFE0
003FF83FE0
003FE01FE0
003FE01FE0
003FC00FE0
003FC00FE0
003FC00FE0
003FC00FE0
003FC00FE0
003F800FE0
003F800FE0
003F800FE0
003F800FE0
003F800FE0
003F800FE0
003F800FE0
003F800FE0
003F800FE0
003F800FE0
003F800FE0
003F800FE0
003F800FE0
003F800FE0
ENDCHAR
STARTCHAR Eng
ENCODING 330
SWIDTH 812 0
DWIDTH 41 0
BBX 33 46 4 -10
BITMAP
FFC0003F80
FFE0003F80
FFF0003F80
FFF8003F80
FFF8003F80
FFFC003F80
FFFE003F80
FFFF003F80
FFFF003F80
FEFF803F80
FEFFC03F80
FE7FC03F80
FE3FE03F80
FE3FF03F80
FE1FF83F80
FE0FF83F80
FE0FFC3F80
FE07FE3F80
FE03FE3F80
FE01FF3F80
FE01FFBF80
FE00FFFF80
FE007FFF80
FE007FFF80
FE003FFF80
FE001FFF80
FE000FFF80
FE000FFF80
FE0007FF80
FE0003FF80
FE0003FF80
FE0001FF80
FE0000FF80
FE0000FF80
FE00007F80
FE00003F80
0000003F00
0000003F00
0000007F00
000001FF00
0000FFFF00
0000FFFE00
0000FFFC00
0000FFF800
0000FFF000
0000FF8000
ENDCHAR
STARTCHAR eng
ENCODING 331
SWIDTH 657 0
DWIDTH 33 0
BBX 25 40 4 -12
BITMAP
000FE000
FC3FF800
FCFFFE00
FDFFFF00
FFFFFF00
FFFFFF80
FFE0FF80
FF807F80
FF807F80
FF003F80
FF003F80
FF003F80
FE003F80
FE003F80
FE003F80
FE003F80
FE003F80
FE003F80
FE003F80
FE003F80
FE003F80
FE003F80
FE003F80
FE003F80
FE003F80
FE003F80
FE003F80
FE003F80
00003F80
00003F80
00003F80
00003F80
00007F80
0000FF80
000FFF80
000FFF00
000FFF00
000FFE00
000FFC00
000FF000
ENDCHAR
STARTCHAR Omacron
ENCODING 332
SWIDTH 795 0
DWIDTH 40 0
BBX 34 43 3 0
BITMAP
007FFF8000
007FFF8000
007FFF8000
007FFF8000
007FFF8000
0000000000
0000000000
000FFC0000
007FFF8000
01FFFFE000
03FFFFF800
0FFFFFFC00
0FFFFFFC00
1FFC0FFE00
3FF003FF00
3FE001FF00
7FC000FF80
7F80007F80
7F80007F80
FF00007FC0
FF00003FC0
FF00003FC0
FF00003FC0
FF00003FC0
FF00003FC0
FF00003FC0
FF00003FC0
FF00003FC0
FF00003FC0
FF00003FC0
FF00007FC0
7F80007F80
7F80007F80
7FC000FF80
3FE001FF00
3FF003FF00
1FFC0FFE00
0FFFFFFC00
0FFFFFFC00
03FFFFF000
01FFFFE000
007FFF8000
000FFC0000
ENDCHAR
STARTCHAR omacron
ENCODING 333
SWIDTH 619 0
DWIDTH 31 0
BBX 27 35 2 0
BITMAP
07FFFC00
07FFFC00
07FFFC00
07FFFC00
07FFFC00
00000000
00000000
007FC000
01FFF000
07FFFC00
0FFFFE00
1FFFFF00
3FFFFF80
3FE0FF80
7FC07FC0
7F803FC0
7F001FC0
FF001FC0
FF001FE0
FF001FE0
FF001FE0
FF001FE0
FF001FE0
FF001FE0
7F001FC0
7F003FC0
7F803FC0
7FC07FC0
3FE0FF80
3FFFFF80
1FFFFF00
0FFFFE00
07FFFC00
01FFF000
007FC000
ENDCHAR
STARTCHAR Obreve
ENCODING 334
SWIDTH 795 0
DWIDTH 40 0
BBX 34 46 3 0
BITMAP
01F003C000
01F007C000
00FC0FC000
00FFFF8000
007FFF8000
003FFF0000
001FFC0000
0007F00000
0000000000
0000000000
000FFC0000
007FFF8000
01FFFFE000
03FFFFF800
0FFFFFFC00
0FFFFFFC00
1FFC0FFE00
3FF003FF00
3FE001FF00
7FC000FF80
7F80007F80
7F80007F80
FF00007FC0
FF00003FC0
FF00003FC0
FF00003FC0
FF00003FC0
FF00003FC0
FF00003FC0
FF00003FC0
FF00003FC0
FF00003FC0
FF00003FC0
FF00007FC0
7F80007F80
7F80007F80
7FC000FF80
3FE001FF00
3FF003FF00
1FFC0FFE00
0FFFFFFC00
0FFFFFFC00
03FFFFF000
01FFFFE000
007FFF8000
000FFC0000
ENDCHAR
STARTCHAR obreve
ENCODING 335
SWIDTH 619 0
DWIDTH 31 0
BBX 27 38 2 0
BITMAP
0F001E00
0F003E00
0FC0FC00
07FFFC00
07FFF800
03FFF000
01FFE000
007F8000
00000000
00000000
007FC000
01FFF000
07FFFC00
0FFFFE00
1FFFFF00
3FFFFF80
3FE0FF80
7FC07FC0
7F803FC0
7F001FC0
FF001FC0
FF001FE0
FF001FE0
FF001FE0
FF001FE0
FF001FE0
FF001FE0
7F001FC0
7F003FC0
7F803FC0
7FC07FC0
3FE0FF80
3FFFFF80
1FFFFF00
0FFFFE00
07FFFC00
01FFF000
007FC000
ENDCHAR
STARTCHAR Ohungarumlaut
ENCODING 336
SWIDTH 795 0
DWIDTH 40 0
BBX 34 46 3 0
BITMAP
0007F9FE00
000FF1FC00
000FE3F800
001FC7F000
001F87E000
003F0FC000
007C1F0000
00781E0000
0000000000
0000000000
000FFC0000
007FFF8000
01FFFFE000
03FFFFF800
0FFFFFFC00
0FFFFFFC00
1FFC0FFE00
3FF003FF00
3FE001FF00
7FC000FF80
7F80007F80
7F80007F80
FF00007FC0
FF00003FC0
FF00003FC0
FF00003FC0
FF00003FC0
FF00003FC0
FF00003FC0
FF00003FC0
FF00003FC0
FF00003FC0
FF00003FC0
FF00007FC0
7F80007F80
7F80007F80
7FC000FF80
3FE001FF00
3FF003FF00
1FFC0FFE00
0FFFFFFC00
0FFFFFFC00
03FFFFF000
01FFFFE000
007FFF8000
000FFC0000
ENDCHAR
STARTCHAR ohungarumlaut
ENCODING 337
SWIDTH 619 0
DWIDTH 31 0
BBX 27 38 2 0
BITMAP
007F9FE0
007F1FC0
00FE3F80
01FC7F00
01F87E00
03F0FC00
07E1F800
0781E000
00000000
00000000
007FC000
01FFF000
07FFFC00
0FFFFE00
1FFFFF00
3FFFFF80
3FE0FF80
7FC07FC0
7F803FC0
7F001FC0
FF001FC0
FF001FE0
FF001FE0
FF001FE0
FF001FE0
FF001FE0
FF001FE0
7F001FC0
7F003FC0
7F803FC0
7FC07FC0
3FE0FF80
3FFFFF80
1FFFFF00
0FFFFE00
07FFFC00
01FFF000
007FC000
ENDCHAR
STARTCHAR OE
ENCODING 338
SWIDTH 973 0
DWIDTH 49 0
BBX 43 36 3 0
BITMAP
001FFFFFFFE0
00FFFFFFFFE0
01FFFFFFFFE0
07FFFFFFFFE0
0FFFFFFFFFE0
1FFFFFFFFFE0
1FF80FF80000
3FE003F80000
3FC003F80000
7FC003F80000
7F8003F80000
7F8003F80000
FF0003F80000
FF0003F80000
FF0003FFFFC0
FF0003FFFFC0
FF0003FFFFC0
FF0003FFFFC0
FF0003FFFFC0
FF0003FFFFC0
FF0003F80000
FF0003F80000
FF0003F80000
FF0003F80000
7F8003F80000
7F8003F80000
7FC003F80000
3FC003F80000
3FE003F80000
1FF80FF80000
1FFFFFFFFFE0
0FFFFFFFFFE0
07FFFFFFFFE0
01FFFFFFFFE0
00FFFFFFFFE0
001FFFFFFFE0
ENDCHAR
STARTCHAR oe
ENCODING 339
SWIDTH 978 0
DWIDTH 49 0
BBX 45 28 2 0
BITMAP
007F800FF000
01FFF03FFE00
07FFF8FFFF80
0FFFFFFFFFC0
1FFFFFFFFFE0
3FFFFFFC1FE0
3FE0FFF80FF0
7FC07FF007F0
7F803FE007F0
7F001FE003F8
FF001FE003F8
FF001FFFFFF8
FF001FFFFFF8
FF001FFFFFF8
FF001FFFFFF8
FF001FFFFFF8
FF001FE00000
7F001FE00000
7F003FE00000
7F803FF00000
7FC07FF80020
3FE0FFFC01E0
3FFFFFFFFFE0
1FFFFFFFFFE0
0FFFFFFFFFE0
07FFFC7FFFE0
01FFF03FFFC0
007FC007FE00
ENDCHAR
STARTCHAR Racute
ENCODING 340
SWIDTH 660 0
DWIDTH 33 0
BBX 29 46 4 0
BITMAP
0007FC00
000FF800
000FE000
001FC000
003F8000
007F0000
00FE0000
00F80000
00000000
00000000
FFFF0000
FFFFF000
FFFFF800
FFFFFE00
FFFFFE00
FFFFFF00
FF03FF00
FF00FF80
FF007F80
FF007F80
FF007F80
FF007F80
FF007F80
FF007F80
FF00FF00
FF03FF00
FFFFFE00
FFFFFC00
FFFFF800
FFFFF000
FFFFE000
FFFFE000
FF0FF000
FF07F800
FF03F800
FF03FC00
FF01FE00
FF01FE00
FF00FF00
FF007F80
FF007F80
FF003FC0
FF003FE0
FF001FE0
FF000FF0
FF000FF8
ENDCHAR
STARTCHAR racute
ENCODING 341
SWIDTH 454 0
DWIDTH 23 0
BBX 18 38 4 0
BITMAP
003FC0
007F80
00FF00
01FE00
01FC00
03F000
07E000
0FC000
000000
000000
000FC0
FC3FC0
FC7FC0
FCFFC0
FFFFC0
FFFFC0
FFFF80
FFF000
FFC000
FF8000
FF0000
FF0000
FE0000
FE0000
FE0000
FE0000
FE0000
FE0000
FE0000
FE0000
FE0000
FE0000
FE0000
FE0000
FE0000
FE0000
FE0000
FE0000
ENDCHAR
STARTCHAR Rcommaaccent
ENCODING 342
SWIDTH 660 0
DWIDTH 33 0
BBX 29 47 4 -11
BITMAP
FFFF0000
FFFFF000
FFFFF800
FFFFFE00
FFFFFE00
FFFFFF00
FF03FF00
FF00FF80
FF007F80
FF007F80
FF007F80
FF007F80
FF007F80
FF007F80
FF00FF00
FF03FF00
FFFFFE00
FFFFFC00
FFFFF800
FFFFF000
FFFFE000
FFFFE000
FF0FF000
FF07F800
FF03F800
FF03FC00
FF01FE00
FF01FE00
FF00FF00
FF007F80
FF007F80
FF003FC0
FF003FE0
FF001FE0
FF000FF0
FF000FF8
00000000
00000000
00000000
003F8000
003F8000
003F0000
003F0000
003E0000
007E0000
007C0000
007C0000
ENDCHAR
STARTCHAR rcommaaccent
ENCODING 343
SWIDTH 454 0
DWIDTH 23 0
BBX 20 39 2 -11
BITMAP
0003F0
3F0FF0
3F1FF0
3F3FF0
3FFFF0
3FFFF0
3FFFE0
3FFC00
3FF000
3FE000
3FC000
3FC000
3F8000
3F8000
3F8000
3F8000
3F8000
3F8000
3F8000
3F8000
3F8000
3F8000
3F8000
3F8000
3F8000
3F8000
3F8000
3F8000
000000
000000
000000
3F8000
3F0000
3F0000
7E0000
7E0000
7C0000
7C0000
F80000
ENDCHAR
STARTCHAR Rcaron
ENCODING 344
SWIDTH 660 0
DWIDTH 33 0
BBX 29 46 4 0
BITMAP
3E007E00
3F80FC00
1FC3F800
0FE7F000
07FFE000
03FFC000
01FFC000
00FF8000
00000000
00000000
FFFF0000
FFFFF000
FFFFF800
FFFFFE00
FFFFFE00
FFFFFF00
FF03FF00
FF00FF80
FF007F80
FF007F80
FF007F80
FF007F80
FF007F80
FF007F80
FF00FF00
FF03FF00
FFFFFE00
FFFFFC00
FFFFF800
FFFFF000
FFFFE000
FFFFE000
FF0FF000
FF07F800
FF03F800
FF03FC00
FF01FE00
FF01FE00
FF00FF00
FF007F80
FF007F80
FF003FC0
FF003FE0
FF001FE0
FF000FF0
FF000FF8
ENDCHAR
STARTCHAR rcaron
ENCODING 345
SWIDTH 454 0
DWIDTH 23 0
BBX 21 38 2 0
BITMAP
FC01F8
7E03F0
3F0FE0
1FDFC0
1FFFC0
0FFF80
07FF00
03FE00
000000
000000
0003F0
3F0FF0
3F1FF0
3F3FF0
3FFFF0
3FFFF0
3FFFE0
3FFC00
3FF000
3FE000
3FC000
3FC000
3F8000
3F8000
3F8000
3F8000
3F8000
3F8000
3F8000
3F8000
3F8000
3F8000
3F8000
3F8000
3F8000
3F8000
3F8000
3F8000
ENDCHAR
STARTCHAR Sacute
ENCODING 346
SWIDTH 550 0
DWIDTH 28 0
BBX 24 46 2 0
BITMAP
0007FC
0007F8
000FF0
001FE0
003F80
007F00
007E00
00FC00
000000
000000
007FC0
03FFF8
0FFFFF
1FFFFE
3FFFFE
3FFFFC
7FC07C
7F800C
7F0000
7F0000
7F0000
7F8000
7FC000
7FE000
3FF800
1FFF00
1FFFC0
0FFFE0
03FFF8
00FFFC
003FFC
000FFE
0003FE
0001FF
0000FF
0000FF
00007F
8000FF
F000FF
FE03FE
FFFFFE
FFFFFC
FFFFF8
FFFFF0
3FFFC0
07FE00
ENDCHAR
STARTCHAR sacute
ENCODING 347
SWIDTH 497 0
DWIDTH 25 0
BBX 21 38 2 0
BITMAP
000FF0
001FE0
003FC0
007F80
007F00
00FC00
01F800
03F000
000000
000000
01FF00
0FFFE0
1FFFF8
3FFFF0
7FFFF0
7FFFF0
FF03E0
FF0060
FF0000
FF8000
7FF000
7FFC00
3FFF00
1FFFC0
07FFE0
01FFF0
007FF8
000FF8
0007F8
0003F8
C003F8
FC07F8
FFFFF8
FFFFF0
FFFFE0
FFFFC0
7FFF80
0FFC00
ENDCHAR
STARTCHAR Scircumflex
ENCODING 348
SWIDTH 550 0
DWIDTH 28 0
BBX 24 46 2 0
BITMAP
00FF80
01FFC0
03FFE0
07FFE0
07F7F0
0FC3F8
1F80FC
3F007E
000000
000000
007FC0
03FFF8
0FFFFF
1FFFFE
3FFFFE
3FFFFC
7FC07C
7F800C
7F0000
7F0000
7F0000
7F8000
7FC000
7FE000
3FF800
1FFF00
1FFFC0
0FFFE0
03FFF8
00FFFC
003FFC
000FFE
0003FE
0001FF
0000FF
0000FF
00007F
8000FF
F000FF
FE03FE
FFFFFE
FFFFFC
FFFFF8
FFFFF0
3FFFC0
07FE00
ENDCHAR
STARTCHAR scircumflex
ENCODING 349
SWIDTH 497 0
DWIDTH 25 0
BBX 21 38 2 0
BITMAP
03FE00
07FF00
07FF80
0FFFC0
1FDFE0
3F87F0
7E03F0
FC01F8
000000
000000
01FF00
0FFFE0
1FFFF8
3FFFF0
7FFFF0
7FFFF0
FF03E0
FF0060
FF0000
FF8000
7FF000
7FFC00
3FFF00
1FFFC0
07FFE0
01FFF0
007FF8
000FF8
0007F8
0003F8
C003F8
FC07F8
FFFFF8
FFFFF0
FFFFE0
FFFFC0
7FFF80
0FFC00
ENDCHAR
STARTCHAR Scedilla
ENCODING 350
SWIDTH 550 0
DWIDTH 28 0
BBX 24 48 2 -12
BITMAP
007FC0
03FFF8
0FFFFF
1FFFFE
3FFFFE
3FFFFC
7FC07C
7F800C
7F0000
7F0000
7F0000
7F8000
7FC000
7FE000
3FF800
1FFF00
1FFFC0
0FFFE0
03FFF8
00FFFC
003FFC
000FFE
0003FE
0001FF
0000FF
0000FF
00007F
8000FF
F000FF
FE03FE
FFFFFE
FFFFFC
FFFFF8
FFFFF0
3FFFC0
07FE00
00F800
00F800
01FC00
01FE00
007F00
001F80
001F80
003F80
03FF00
03FF00
03FE00
03F800
ENDCHAR
STARTCHAR scedilla
ENCODING 351
SWIDTH 497 0
DWIDTH 25 0
BBX 21 40 2 -12
BITMAP
01FF00
0FFFE0
1FFFF8
3FFFF0
7FFFF0
7FFFF0
FF03E0
FF0060
FF0000
FF8000
7FF000
7FFC00
3FFF00
1FFFC0
07FFE0
01FFF0
007FF8
000FF8
0007F8
0003F8
C003F8
FC07F8
FFFFF8
FFFFF0
FFFFE0
FFFFC0
7FFF80
0FFC00
01F000
01F000
03F800
03FC00
00FE00
007E00
003E00
087E00
0FFE00
0FFE00
0FFC00
0FF000
ENDCHAR
STARTCHAR Scaron
ENCODING 352
SWIDTH 550 0
DWIDTH 28 0
BBX 24 46 2 0
BITMAP
3F007E
1F80FC
0FC3F8
07F7F0
07FFE0
03FFE0
01FFC0
00FF80
000000
000000
007FC0
03FFF8
0FFFFF
1FFFFE
3FFFFE
3FFFFC
7FC07C
7F800C
7F0000
7F0000
7F0000
7F8000
7FC000
7FE000
3FF800
1FFF00
1FFFC0
0FFFE0
03FFF8
00FFFC
003FFC
000FFE
0003FE
0001FF
0000FF
0000FF
00007F
8000FF
F000FF
FE03FE
FFFFFE
FFFFFC
FFFFF8
FFFFF0
3FFFC0
07FE00
ENDCHAR
STARTCHAR scaron
ENCODING 353
SWIDTH 497 0
DWIDTH 25 0
BBX 22 38 2 0
BITMAP
FC00FC
7F03F8
3F87F0
1FCFE0
0FFFC0
07FF80
03FF00
03FF00
000000
000000
01FF00
0FFFE0
1FFFF8
3FFFF0
7FFFF0
7FFFF0
FF03E0
FF0060
FF0000
FF8000
7FF000
7FFC00
3FFF00
1FFFC0
07FFE0
01FFF0
007FF8
000FF8
0007F8
0003F8
C003F8
FC07F8
FFFFF8
FFFFF0
FFFFE0
FFFFC0
7FFF80
0FFC00
ENDCHAR
STARTCHAR Tcedilla
ENCODING 354
SWIDTH 579 0
DWIDTH 29 0
BBX 27 48 1 -12
BITMAP
FFFFFFE0
FFFFFFE0
FFFFFFE0
FFFFFFE0
FFFFFFE0
FFFFFFE0
003F8000
003F8000
003F8000
003F8000
003F8000
003F8000
003F8000
003F8000
003F8000
003F8000
003F8000
003F8000
003F8000
003F8000
003F8000
003F8000
003F8000
003F8000
003F8000
003F8000
003F8000
003F8000
003F8000
003F8000
003F8000
003F8000
003F8000
003F8000
003F8000
003F8000
001F0000
003E0000
003F0000
007FC000
000FE000
0007E000
0007E000
0087E000
00FFE000
00FFC000
00FFC000
00FE0000
ENDCHAR
STARTCHAR tcedilla
ENCODING 355
SWIDTH 434 0
DWIDTH 22 0
BBX 19 45 1 -12
BITMAP
03E000
03E000
03E000
07E000
07E000
0FE000
1FFFE0
3FFFE0
FFFFE0
FFFFE0
FFFFE0
FFFFE0
0FE000
0FE000
0FE000
0FE000
0FE000
0FE000
0FE000
0FE000
0FE000
0FE000
0FE000
0FE000
0FE000
0FE000
0FF020
0FFFE0
0FFFE0
07FFE0
03FFE0
01FFE0
007F80
007800
00F800
00FC00
01FF00
003F00
001F80
001F80
001F80
03FF80
03FF00
03FE00
03F800
ENDCHAR
STARTCHAR Tcaron
ENCODING 356
SWIDTH 579 0
DWIDTH 29 0
BBX 27 46 1 0
BITMAP
1F003F00
0FC07E00
0FE1FC00
07F3F800
03FFF000
01FFF000
00FFE000
007FC000
00000000
00000000
FFFFFFE0
FFFFFFE0
FFFFFFE0
FFFFFFE0
FFFFFFE0
FFFFFFE0
003F8000
003F8000
003F8000
003F8000
003F8000
003F8000
003F8000
003F8000
003F8000
003F8000
003F8000
003F8000
003F8000
003F8000
003F8000
003F8000
003F8000
003F8000
003F8000
003F8000
003F8000
003F8000
003F8000
003F8000
003F8000
003F8000
003F8000
003F8000
003F8000
003F8000
ENDCHAR
STARTCHAR tcaron
ENCODING 357
SWIDTH 434 0
DWIDTH 22 0
BBX 23 38 1 0
BITMAP
0000FE
0001FC
0001FC
0001F8
0001F8
03E1F0
03E3E0
03E3E0
07E000
07E000
0FE000
1FFFE0
3FFFE0
FFFFE0
FFFFE0
FFFFE0
FFFFE0
0FE000
0FE000
0FE000
0FE000
0FE000
0FE000
0FE000
0FE000
0FE000
0FE000
0FE000
0FE000
0FE000
0FE000
0FF020
0FFFE0
0FFFE0
07FFE0
03FFE0
01FFE0
007F80
ENDCHAR
STARTCHAR Tbar
ENCODING 358
SWIDTH 579 0
DWIDTH 29 0
BBX 27 36 1 0
BITMAP
FFFFFFE0
FFFFFFE0
FFFFFFE0
FFFFFFE0
FFFFFFE0
FFFFFFE0
003F8000
003F8000
003F8000
003F8000
003F8000
003F8000
003F8000
003F8000
003F8000
0FFFFE00
0FFFFE00
0FFFFE00
0FFFFE00
0FFFFE00
0FFFFE00
003F8000
003F8000
003F8000
003F8000
003F8000
003F8000
003F8000
003F8000
003F8000
003F8000
003F8000
003F8000
003F8000
003F8000
003F8000
ENDCHAR
STARTCHAR tbar
ENCODING 359
SWIDTH 434 0
DWIDTH 22 0
BBX 19 33 1 0
BITMAP
03E000
03E000
03E000
07E000
07E000
0FE000
1FFFE0
3FFFE0
FFFFE0
FFFFE0
FFFFE0
FFFFE0
0FE000
0FE000
0FE000
0FE000
7FFFC0
7FFFC0
7FFFC0
7FFFC0
7FFFC0
0FE000
0FE000
0FE000
0FE000
0FE000
0FF020
0FFFE0
0FFFE0
07FFE0
07FFE0
01FFE0
007F80
ENDCHAR
STARTCHAR Utilde
ENCODING 360
SWIDTH 755 0
DWIDTH 38 0
BBX 30 46 4 0
BITMAP
00780780
01FE0780
03FF8F80
03FFFF00
07FFFF00
07C7FE00
0781FC00
0780F800
00000000
00000000
FF0003FC
FF0003FC
FF0003FC
FF0003FC
FF0003FC
FF0003FC
FF0003FC
FF0003FC
FF0003FC
FF0003FC
FF0003FC
FF0003FC
FF0003FC
FF0003FC
FF0003FC
FF0003FC
FF0003FC
FF0003FC
FF0003FC
FF0003FC
FF0003FC
FF0003FC
FF0003FC
FF0003FC
FF0003FC
FF0003FC
7F8007F8
7F8007F8
7FC00FF8
3FF03FF0
3FFFFFF0
1FFFFFE0
0FFFFFC0
07FFFF80
01FFFE00
003FF000
ENDCHAR
STARTCHAR utilde
ENCODING 361
SWIDTH 657 0
DWIDTH 33 0
BBX 25 38 4 0
BITMAP
03E01C00
07F83C00
0FFC3C00
1FFFFC00
1FFFF800
1E3FF800
3C0FF000
3C03C000
00000000
00000000
00000000
FE003F80
FE003F80
FE003F80
FE003F80
FE003F80
FE003F80
FE003F80
FE003F80
FE003F80
FE003F80
FE003F80
FE003F80
FE003F80
FE003F80
FE003F80
FE007F80
FE007F80
FE007F80
FF007F80
FF00FF80
FF83FF80
FFFFFF80
7FFFFF80
7FFFDF80
3FFF9F80
1FFE1F80
03F81F80
ENDCHAR
STARTCHAR Umacron
ENCODING 362
SWIDTH 755 0
DWIDTH 38 0
BBX 30 43 4 0
BITMAP
01FFFE00
01FFFE00
01FFFE00
01FFFE00
01FFFE00
00000000
00000000
FF0003FC
FF0003FC
FF0003FC
FF0003FC
FF0003FC
FF0003FC
FF0003FC
FF0003FC
FF0003FC
FF0003FC
FF0003FC
FF0003FC
FF0003FC
FF0003FC
FF0003FC
FF0003FC
FF0003FC
FF0003FC
FF0003FC
FF0003FC
FF0003FC
FF0003FC
FF0003FC
FF0003FC
FF0003FC
FF0003FC
7F8007F8
7F8007F8
7FC00FF8
3FF03FF0
3FFFFFF0
1FFFFFE0
0FFFFFC0
07FFFF80
01FFFE00
003FF000
ENDCHAR
STARTCHAR umacron
ENCODING 363
SWIDTH 657 0
DWIDTH 33 0
BBX 25 35 4 0
BITMAP
0FFFF800
0FFFF800
0FFFF800
0FFFF800
0FFFF800
00000000
00000000
00000000
FE003F80
FE003F80
FE003F80
FE003F80
FE003F80
FE003F80
FE003F80
FE003F80
FE003F80
FE003F80
FE003F80
FE003F80
FE003F80
FE003F80
FE003F80
FE007F80
FE007F80
FE007F80
FF007F80
FF00FF80
FF83FF80
FFFFFF80
7FFFFF80
7FFFDF80
3FFF9F80
1FFE1F80
03F81F80
ENDCHAR
STARTCHAR Ubreve
ENCODING 364
SWIDTH 755 0
DWIDTH 38 0
BBX 30 46 4 0
BITMAP
07800F00
07C01F00
03F07F00
03FFFE00
01FFFE00
01FFFC00
007FF800
001FC000
00000000
00000000
FF0003FC
FF0003FC
FF0003FC
FF0003FC
FF0003FC
FF0003FC
FF0003FC
FF0003FC
FF0003FC
FF0003FC
FF0003FC
FF0003FC
FF0003FC
FF0003FC
FF0003FC
FF0003FC
FF0003FC
FF0003FC
FF0003FC
FF0003FC
FF0003FC
FF0003FC
FF0003FC
FF0003FC
FF0003FC
FF0003FC
7F8007F8
7F8007F8
7FC00FF8
3FF03FF0
3FFFFFF0
1FFFFFE0
0FFFFFC0
07FFFF80
01FFFE00
003FF000
ENDCHAR
STARTCHAR ubreve
ENCODING 365
SWIDTH 657 0
DWIDTH 33 0
BBX 25 38 4 0
BITMAP
1E007C00
1E007C00
1F81F800
1FFFF800
0FFFF000
07FFE000
03FFC000
00FF0000
00000000
00000000
00000000
FE003F80
FE003F80
FE003F80
FE003F80
FE003F80
FE003F80
FE003F80
FE003F80
FE003F80
FE003F80
FE003F80
FE003F80
FE003F80
FE003F80
FE003F80
FE007F80
FE007F80
FE007F80
FF007F80
FF00FF80
FF83FF80
FFFFFF80
7FFFFF80
7FFFDF80
3FFF9F80
1FFE1F80
03F81F80
ENDCHAR
STARTCHAR Uring
ENCODING 366
SWIDTH 755 0
DWIDTH 38 0
BBX 30 50 4 0
BITMAP
000FC000
001FE000
003FF000
007FF800
00787800
00787800
00787800
00787800
007FF800
003FF000
001FE000
000FC000
00000000
00000000
FF0003FC
FF0003FC
FF0003FC
FF0003FC
FF0003FC
FF0003FC
FF0003FC
FF0003FC
FF0003FC
FF0003FC
FF0003FC
FF0003FC
FF0003FC
FF0003FC
FF0003FC
FF0003FC
FF0003FC
FF0003FC
FF0003FC
FF0003FC
FF0003FC
FF0003FC
FF0003FC
FF0003FC
FF0003FC
FF0003FC
7F8007F8
7F8007F8
7FC00FF8
3FF03FF0
3FFFFFF0
1FFFFFE0
0FFFFFC0
07FFFF80
01FFFE00
003FF000
ENDCHAR
STARTCHAR uring
ENCODING 367
SWIDTH 657 0
DWIDTH 33 0
BBX 25 42 4 0
BITMAP
003E0000
00FF8000
01FF8000
01F7C000
03C3C000
03C1E000
03C1E000
03C3C000
01F7C000
01FFC000
00FF8000
003E0000
00000000
00000000
00000000
FE003F80
FE003F80
FE003F80
FE003F80
FE003F80
FE003F80
FE003F80
FE003F80
FE003F80
FE003F80
FE003F80
FE003F80
FE003F80
FE003F80
FE003F80
FE007F80
FE007F80
FE007F80
FF007F80
FF00FF80
FF83FF80
FFFFFF80
7FFFFF80
7FFFDF80
3FFF9F80
1FFE1F80
03F81F80
ENDCHAR
STARTCHAR Uhungarumlaut
ENCODING 368
SWIDTH 755 0
DWIDTH 38 0
BBX 30 46 4 0
BITMAP
001FE7F8
001FC7F0
003F8FE0
007F1FC0
007E1F80
00FC3F00
01F87E00
01E07800
00000000
00000000
FF0003FC
FF0003FC
FF0003FC
FF0003FC
FF0003FC
FF0003FC
FF0003FC
FF0003FC
FF0003FC
FF0003FC
FF0003FC
FF0003FC
FF0003FC
FF0003FC
FF0003FC
FF0003FC
FF0003FC
FF0003FC
FF0003FC
FF0003FC
FF0003FC
FF0003FC
FF0003FC
FF0003FC
FF0003FC
FF0003FC
7F8007F8
7F8007F8
7FC00FF8
3FF03FF0
3FFFFFF0
1FFFFFE0
0FFFFFC0
07FFFF80
01FFFE00
003FF000
ENDCHAR
STARTCHAR uhungarumlaut
ENCODING 369
SWIDTH 657 0
DWIDTH 33 0
BBX 26 38 4 0
BITMAP
007F1FC0
00FF3FC0
00FE3F80
01FC7F00
03F8FE00
03E0F800
07C1F000
0F83E000
00000000
00000000
00000000
FE003F80
FE003F80
FE003F80
FE003F80
FE003F80
FE003F80
FE003F80
FE003F80
FE003F80
FE003F80
FE003F80
FE003F80
FE003F80
FE003F80
FE003F80
FE007F80
FE007F80
FE007F80
FF007F80
FF00FF80
FF83FF80
FFFFFF80
7FFFFF80
7FFFDF80
3FFF9F80
1FFE1F80
03F81F80
ENDCHAR
STARTCHAR Uogonek
ENCODING 370
SWIDTH 755 0
DWIDTH 38 0
BBX 30 48 4 -12
BITMAP
FF0003FC
FF0003FC
FF0003FC
FF0003FC
FF0003FC
FF0003FC
FF0003FC
FF0003FC
FF0003FC
FF0003FC
FF0003FC
FF0003FC
FF0003FC
FF0003FC
FF0003FC
FF0003FC
FF0003FC
FF0003FC
FF0003FC
FF0003FC
FF0003FC
FF0003FC
FF0003FC
FF0003FC
FF0003FC
FF0003FC
7F8007F8
7F8007F8
7FC00FF8
3FF03FF0
3FFFFFF0
1FFFFFE0
0FFFFFC0
07FFFF80
01FFFE00
003FF000
0003E000
0007C000
000F8000
001F0000
001F0000
001F0000
003F0000
001FB000
001FF000
001FF000
000FF000
0003F000
ENDCHAR
STARTCHAR uogonek
ENCODING 371
SWIDTH 657 0
DWIDTH 33 0
BBX 25 39 4 -12
BITMAP
FE003F80
FE003F80
FE003F80
FE003F80
FE003F80
FE003F80
FE003F80
FE003F80
FE003F80
FE003F80
FE003F80
FE003F80
FE003F80
FE003F80
FE003F80
FE007F80
FE007F80
FE007F80
FF007F80
FF00FF80
FF83FF80
FFFFFF80
7FFFFF80
7FFFDF80
3FFF9F80
1FFE1F80
03F81F80
00003E00
00007C00
0000F800
0000F000
0001F000
0001F000
0001F000
0001FF00
0001FF00
0000FF00
0000FF00
00003F00
ENDCHAR
STARTCHAR Wcircumflex
ENCODING 372
SWIDTH 966 0
DWIDTH 48 0
BBX 48 46 0 0
BITMAP
00001FF80000
00001FF80000
00003FFC0000
00007FFE0000
0000FE7F0000
0001FC3F8000
0003F81FC000
0007E007E000
000000000000
000000000000
FF000FF000FF
FF000FF000FF
7F000FF000FE
7F000FF000FE
7F001FF800FE
7F801FF801FE
3F801FF801FC
3F801FF801FC
3F803FFC01FC
3FC03FFC03FC
1FC03FFC03F8
1FC03FFE03F8
1FC07E7E03F8
1FE07E7E07F8
0FE07E7E07F0
0FE0FE7F07F0
0FE0FE7F07F0
0FE0FC3F07F0
07F0FC3F0FE0
07F1FC3F8FE0
07F1FC3F8FE0
07F1F81F8FE0
03F9F81F9FC0
03F9F81F9FC0
03FBF81FDFC0
03FBF00FDFC0
01FBF00FDF80
01FBF00FDF80
01FFF00FFF80
01FFE007FF80
00FFE007FF00
00FFE007FF00
00FFE007FF00
00FFC003FF00
007FC003FE00
007FC003FE00
ENDCHAR
STARTCHAR wcircumflex
ENCODING 373
SWIDTH 855 0
DWIDTH 43 0
BBX 41 38 1 0
BITMAP
0000FF800000
0001FFC00000
0003FFC00000
0007FFE00000
000FE7F00000
001FC3F80000
003F81FC0000
003E007E0000
000000000000
000000000000
000000000000
FE00FF803F80
FE00FF803F80
FF00FF803F80
FF00FFC07F80
7F01FFC07F00
7F01FFC07F00
7F81F7C0FF00
3F83F7E0FE00
3F83F7E0FE00
3F83E7E0FE00
1FC3E3E1FC00
1FC7E3F1FC00
1FC7E3F1FC00
1FC7E3F1FC00
0FE7C1F3F800
0FE7C1F3F800
0FEFC1FBF800
07EFC1FBF000
07EF80FBF000
07EF80FFF000
07FF80FFF000
03FF80FFE000
03FF00FFE000
03FF007FE000
01FF007FC000
01FF007FC000
01FE007FC000
ENDCHAR
STARTCHAR Ycircumflex
ENCODING 374
SWIDTH 624 0
DWIDTH 31 0
BBX 31 46 0 0
BITMAP
001FF000
003FF800
007FFC00
00FFFC00
00FEFE00
01F87F00
03F01F80
07E00FC0
00000000
00000000
FF0001FE
7F8003FC
7F8003FC
3FC007F8
3FC007F8
1FE00FF0
1FE00FF0
0FF01FE0
0FF01FE0
07F83FC0
03F83F80
03FC7F80
01FC7F00
01FEFF00
00FEFE00
00FFFE00
007FFC00
007FFC00
003FF800
003FF800
001FF000
001FF000
000FE000
000FE000
000FE000
000FE000
000FE000
000FE000
000FE000
000FE000
000FE000
000FE000
000FE000
000FE000
000FE000
000FE000
ENDCHAR
STARTCHAR ycircumflex
ENCODING 375
SWIDTH 568 0
DWIDTH 28 0
BBX 28 50 0 -12
BITMAP
007FE000
007FE000
00FFF000
01FFF800
03F9FC00
07F0FE00
0FE07F00
1F801F80
00000000
00000000
00000000
FF000FF0
7F800FE0
7F801FE0
7F801FE0
3FC01FC0
3FC03FC0
1FC03FC0
1FE03F80
1FE07F80
0FE07F00
0FF07F00
07F0FF00
07F0FE00
07F8FE00
03F9FE00
03F9FC00
03F9FC00
01FDFC00
01FFF800
00FFF800
00FFF000
00FFF000
007FF000
007FE000
003FE000
003FE000
003FC000
003FC000
003F8000
003F8000
007F8000
00FF0000
01FF0000
3FFE0000
3FFE0000
3FFC0000
3FF80000
3FE00000
3F800000
ENDCHAR
STARTCHAR Ydieresis
ENCODING 376
SWIDTH 624 0
DWIDTH 31 0
BBX 31 46 0 0
BITMAP
00200800
00F83E00
01FC7F00
01FC7F00
01FC7F00
00FC3F00
00781E00
00000000
00000000
00000000
FF0001FE
7F8003FC
7F8003FC
3FC007F8
3FC007F8
1FE00FF0
1FE00FF0
0FF01FE0
0FF01FE0
07F83FC0
03F83F80
03FC7F80
01FC7F00
01FEFF00
00FEFE00
00FFFE00
007FFC00
007FFC00
003FF800
003FF800
001FF000
001FF000
000FE000
000FE000
000FE000
000FE000
000FE000
000FE000
000FE000
000FE000
000FE000
000FE000
000FE000
000FE000
000FE000
000FE000
ENDCHAR
STARTCHAR Zacute
ENCODING 377
SWIDTH 579 0
DWIDTH 29 0
BBX 27 46 1 0
BITMAP
0003FE00
0003FC00
0007F800
000FF000
001FC000
003F8000
003F0000
007E0000
00000000
00000000
7FFFFFC0
7FFFFFC0
7FFFFFC0
7FFFFFC0
7FFFFFC0
7FFFFFC0
00007F80
0000FF00
0000FF00
0001FE00
0003FC00
0003FC00
0007F800
000FF000
000FF000
001FE000
003FC000
003FC000
007F8000
00FF0000
00FF0000
01FE0000
03FC0000
07FC0000
07F80000
0FF00000
1FF00000
1FE00000
3FC00000
7FC00000
7FFFFFE0
FFFFFFE0
FFFFFFE0
FFFFFFE0
FFFFFFE0
FFFFFFE0
ENDCHAR
STARTCHAR zacute
ENCODING 378
SWIDTH 487 0
DWIDTH 24 0
BBX 22 38 1 0
BITMAP
0007FC
000FF8
001FE0
001FC0
003F80
007F00
00FC00
01F800
000000
000000
000000
7FFFF8
7FFFF8
7FFFF8
7FFFF8
7FFFF8
7FFFF8
000FF0
001FE0
001FE0
003FC0
007F80
00FF00
00FF00
01FE00
03FC00
07F800
07F800
0FF000
1FE000
3FC000
3FC000
7FFFFC
FFFFFC
FFFFFC
FFFFFC
FFFFFC
FFFFFC
ENDCHAR
STARTCHAR Zdotaccent
ENCODING 379
SWIDTH 579 0
DWIDTH 29 0
BBX 27 46 1 0
BITMAP
001F0000
003F8000
007F8000
007F8000
007F8000
003F8000
001F0000
00000000
00000000
00000000
7FFFFFC0
7FFFFFC0
7FFFFFC0
7FFFFFC0
7FFFFFC0
7FFFFFC0
00007F80
0000FF00
0000FF00
0001FE00
0003FC00
0003FC00
0007F800
000FF000
000FF000
001FE000
003FC000
003FC000
007F8000
00FF0000
00FF0000
01FE0000
03FC0000
07FC0000
07F80000
0FF00000
1FF00000
1FE00000
3FC00000
7FC00000
7FFFFFE0
FFFFFFE0
FFFFFFE0
FFFFFFE0
FFFFFFE0
FFFFFFE0
ENDCHAR
STARTCHAR zdotaccent
ENCODING 380
SWIDTH 487 0
DWIDTH 24 0
BBX 22 38 1 0
BITMAP
00FC00
01FE00
01FE00
01FE00
01FE00
01FE00
007800
000000
000000
000000
000000
7FFFF8
7FFFF8
7FFFF8
7FFFF8
7FFFF8
7FFFF8
000FF0
001FE0
001FE0
003FC0
007F80
00FF00
00FF00
01FE00
03FC00
07F800
07F800
0FF000
1FE000
3FC000
3FC000
7FFFFC
FFFFFC
FFFFFC
FFFFFC
FFFFFC
FFFFFC
ENDCHAR
STARTCHAR Zcaron
ENCODING 381
SWIDTH 579 0
DWIDTH 29 0
BBX 27 46 1 0
BITMAP
1F803F00
0FC07E00
07F0FC00
03FBFC00
01FFF800
01FFF000
00FFE000
007FC000
00000000
00000000
7FFFFFC0
7FFFFFC0
7FFFFFC0
7FFFFFC0
7FFFFFC0
7FFFFFC0
00007F80
0000FF00
0000FF00
0001FE00
0003FC00
0003FC00
0007F800
000FF000
000FF000
001FE000
003FC000
003FC000
007F8000
00FF0000
00FF0000
01FE0000
03FC0000
07FC0000
07F80000
0FF00000
1FF00000
1FE00000
3FC00000
7FC00000
7FFFFFE0
FFFFFFE0
FFFFFFE0
FFFFFFE0
FFFFFFE0
FFFFFFE0
ENDCHAR
STARTCHAR zcaron
ENCODING 382
SWIDTH 487 0
DWIDTH 24 0
BBX 22 38 1 0
BITMAP
7E00FC
3F01F8
1F87F0
0FEFE0
0FFFE0
07FFC0
03FF80
01FF00
000000
000000
000000
7FFFF8
7FFFF8
7FFFF8
7FFFF8
7FFFF8
7FFFF8
000FF0
001FE0
001FE0
003FC0
007F80
00FF00
00FF00
01FE00
03FC00
07F800
07F800
0FF000
1FE000
3FC000
3FC000
7FFFFC
FFFFFC
FFFFFC
FFFFFC
FFFFFC
FFFFFC
ENDCHAR
STARTCHAR longs
ENCODING 383
SWIDTH 382 0
DWIDTH 19 0
BBX 16 38 4 0
BITMAP
07FC
1FFF
3FFF
7FFE
7FFE
FFFE
FF02
FF00
FE00
FE00
FE00
FE00
FE00
FE00
FE00
FE00
FE00
FE00
FE00
FE00
FE00
FE00
FE00
FE00
FE00
FE00
FE00
FE00
FE00
FE00
FE00
FE00
FE00
FE00
FE00
FE00
FE00
FE00
ENDCHAR
STARTCHAR florin
ENCODING 402
SWIDTH 570 0
DWIDTH 29 0
BBX 21 48 5 -12
BITMAP
001FE0
007FF8
00FFF8
01FFF8
01FFF0
03FFF0
03FC10
03FC00
03F800
03F800
03F800
07FFE0
1FFFE0
3FFFE0
3FFFE0
3FFFE0
3FFFE0
03F800
03F800
03F800
03F800
03F800
03F800
03F800
03F800
03F800
03F800
03F800
03F800
03F800
03F800
03F800
03F800
03F800
03F800
03F800
03F800
03F800
03F800
03F800
07F800
07F800
FFF800
FFF800
FFF000
FFE000
FFC000
FF0000
ENDCHAR
STARTCHAR Ohorn
ENCODING 416
SWIDTH 825 0
DWIDTH 41 0
BBX 40 38 3 0
BITMAP
00000000FF
00000000FF
000FFC00FF
007FFF80FE
01FFFFE0FE
03FFFFF9FC
0FFFFFFFFC
0FFFFFFFF8
1FFC0FFFF8
3FF003FFE0
3FE001FFC0
7FC000FF80
7F80007F80
7F80007F80
FF00007FC0
FF00003FC0
FF00003FC0
FF00003FC0
FF00003FC0
FF00003FC0
FF00003FC0
FF00003FC0
FF00003FC0
FF00003FC0
FF00003FC0
FF00007FC0
7F80007F80
7F80007F80
7FC000FF80
3FE001FF00
3FF003FF00
1FFC0FFE00
0FFFFFFC00
0FFFFFFC00
03FFFFF000
01FFFFE000
007FFF8000
000FFC0000
ENDCHAR
STARTCHAR ohorn
ENCODING 417
SWIDTH 679 0
DWIDTH 34 0
BBX 34 32 2 0
BITMAP
0000001FC0
0000001FC0
0000003FC0
0000003FC0
007FC03F80
01FFF07F80
07FFFCFF00
0FFFFFFF00
1FFFFFFE00
3FFFFFF800
3FE0FFF000
7FC07FC000
7F803FC000
7F001FC000
FF001FC000
FF001FE000
FF001FE000
FF001FE000
FF001FE000
FF001FE000
FF001FE000
7F001FC000
7F003FC000
7F803FC000
7FC07FC000
3FE0FF8000
3FFFFF8000
1FFFFF0000
0FFFFE0000
07FFFC0000
01FFF00000
007FC00000
ENDCHAR
STARTCHAR Uhorn
ENCODING 431
SWIDTH 884 0
DWIDTH 44 0
BBX 41 38 4 0
BITMAP
000000007F80
000000007F80
FF0003FC7F00
FF0003FC7F00
FF0003FCFF00
FF0003FCFE00
FF0003FDFE00
FF0003FFFC00
FF0003FFF800
FF0003FFF000
FF0003FFC000
FF0003FC0000
FF0003FC0000
FF0003FC0000
FF0003FC0000
FF0003FC0000
FF0003FC0000
FF0003FC0000
FF0003FC0000
FF0003FC0000
FF0003FC0000
FF0003FC0000
FF0003FC0000
FF0003FC0000
FF0003FC0000
FF0003FC0000
FF0003FC0000
FF0003FC0000
7F0007F80000
7F8007F80000
7FC00FF80000
3FF03FF00000
3FFFFFF00000
1FFFFFE00000
0FFFFFC00000
07FFFF800000
01FFFE000000
003FF0000000
ENDCHAR
STARTCHAR uhorn
ENCODING 432
SWIDTH 759 0
DWIDTH 38 0
BBX 36 31 4 0
BITMAP
00000007F0
00000007F0
0000000FF0
0000000FF0
FE003F8FE0
FE003F9FE0
FE003FBFC0
FE003FFF80
FE003FFF00
FE003FFC00
FE003FF000
FE003F8000
FE003F8000
FE003F8000
FE003F8000
FE003F8000
FE003F8000
FE003F8000
FE003F8000
FE007F8000
FE007F8000
FE007F8000
FF007F8000
FF00FF8000
FF83FF8000
FFFFFF8000
7FFFFF8000
7FFFDF8000
3FFF9F8000
1FFE1F8000
03F81F8000
ENDCHAR
STARTCHAR uni01F0
ENCODING 496
SWIDTH 305 0
DWIDTH 15 0
BBX 21 50 -3 -12
BITMAP
FC01F8
7E03F0
3F0FE0
3FDFC0
1FFF80
0FFF80
07FF00
03FE00
000000
000000
000000
01FC00
01FC00
01FC00
01FC00
01FC00
01FC00
01FC00
01FC00
01FC00
01FC00
01FC00
01FC00
01FC00
01FC00
01FC00
01FC00
01FC00
01FC00
01FC00
01FC00
01FC00
01FC00
01FC00
01FC00
01FC00
01FC00
01FC00
01FC00
01FC00
01FC00
01FC00
03FC00
07FC00
FFFC00
FFF800
FFF800
FFF000
FFE000
FF0000
ENDCHAR
STARTCHAR Aringacute
ENCODING 506
SWIDTH 689 0
DWIDTH 35 0
BBX 35 48 0 0
BITMAP
00003FE000
00003FC000
00007F0000
0000FC0000
0001F80000
0000000000
0000000000
0003F80000
0007FC0000
000FFE0000
000F1E0000
001E0F0000
001E0F0000
001E0F0000
000F1E0000
000FFE0000
000FFE0000
000FFE0000
000FFE0000
001FFF0000
001FBF0000
003FBF8000
003FBF8000
003F1F8000
007F1FC000
007F1FC000
00FE0FE000
00FE0FE000
00FE07E000
01FC07F000
01FC07F000
03F803F800
03F803F800
03F803F800
07FFFFFC00
07FFFFFC00
0FFFFFFC00
0FFFFFFE00
0FFFFFFE00
1FFFFFFF00
1FE000FF00
1FC0007F00
3FC0007F80
3FC0007F80
7F80003FC0
7F80003FC0
7F80003FC0
FF00001FE0
ENDCHAR
STARTCHAR aringacute
ENCODING 507
SWIDTH 604 0
DWIDTH 30 0
BBX 24 49 2 0
BITMAP
0007FC
0007F8
000FE0
001FC0
003F00
000000
000000
000000
003F80
007FC0
00FFE0
01F1E0
01E1E0
01E0E0
01E1E0
01F1E0
00FFE0
007FC0
003F80
000000
000000
00FF80
07FFF0
1FFFF8
1FFFFC
1FFFFE
0FFFFF
0F81FF
0400FF
00007F
00007F
00007F
00FFFF
07FFFF
1FFFFF
3FFFFF
7FE07F
7F807F
FF007F
FF007F
FF00FF
FF01FF
FF83FF
FFFFFF
7FFFBF
7FFF3F
3FFF3F
1FFC1F
07F01F
ENDCHAR
STARTCHAR AEacute
ENCODING 508
SWIDTH 952 0
DWIDTH 48 0
BBX 45 46 0 0
BITMAP
00000003FE00
00000007F800
0000000FF000
0000000FE000
0000001FC000
0000003F8000
0000007E0000
000000FC0000
000000000000
000000000000
0000FFFFFFF8
0001FFFFFFF8
0001FFFFFFF8
0001FFFFFFF8
0003FFFFFFF8
0003FFFFFFF8
0007F0FE0000
0007F0FE0000
000FE0FE0000
000FE0FE0000
001FE0FE0000
001FC0FE0000
001FC0FE0000
003F80FE0000
003F80FFFFF0
007F80FFFFF0
007F00FFFFF0
00FF00FFFFF0
00FE00FFFFF0
01FE00FFFFF0
01FC00FE0000
03FFFFFE0000
03FFFFFE0000
03FFFFFE0000
07FFFFFE0000
07FFFFFE0000
0FFFFFFE0000
0FE000FE0000
1FE000FE0000
1FC000FE0000
3FC000FFFFF8
3FC000FFFFF8
3F8000FFFFF8
7F8000FFFFF8
7F0000FFFFF8
FF0000FFFFF8
ENDCHAR
STARTCHAR aeacute
ENCODING 509
SWIDTH 916 0
DWIDTH 46 0
BBX 42 38 2 0
BITMAP
000001FE0000
000003FC0000
000007F80000
000007F00000
00000FE00000
00001FC00000
00003F000000
00007E000000
000000000000
000000000000
00FF803FC000
07FFE0FFF000
1FFFFBFFFC00
1FFFFFFFFE00
1FFFFFFFFF00
0FFFFFE0FF00
0F81FFC07F80
0400FF803F80
00007F803F80
00007F001FC0
00007F001FC0
00FFFFFFFFC0
07FFFFFFFFC0
1FFFFFFFFFC0
3FFFFFFFFFC0
7FE07FFFFFC0
7F807F000000
FF007F000000
FF00FF800000
FF00FF800000
FF01FFC00100
FF83FFF00F00
FFFFFFFFFF00
7FFFFFFFFF00
7FFFE7FFFF00
3FFF83FFFF00
1FFF00FFFE00
07FC001FF000
ENDCHAR
STARTCHAR Oslashacute
ENCODING 510
SWIDTH 795 0
DWIDTH 40 0
BBX 34 48 3 -2
BITMAP
00003FE000
00007FC000
0000FF0000
0000FE0000
0001FC0000
0003F80000
0007E00000
000FC00000
0000000000
0000001800
000FFC3C00
007FFFBE00
01FFFFFE00
03FFFFFC00
0FFFFFFC00
0FFFFFFC00
1FFC0FFE00
3FF007FF00
3FE007FF00
7FC00FFF80
7F801FFF80
7F801F7F80
FF803F7FC0
FF007E3FC0
FF007C3FC0
FF00FC3FC0
FF01F83FC0
FF01F03FC0
FF03F03FC0
FF07E03FC0
FF07C03FC0
FF0FC03FC0
FF1F803FC0
FF1F007FC0
7FBF007F80
7FFE007F80
7FFC00FF80
3FFC01FF00
3FF803FF00
1FFC0FFE00
0FFFFFFC00
0FFFFFF800
0FFFFFF000
0FFFFFE000
1FFFFF8000
1F0FFC0000
0600000000
0200000000
ENDCHAR
STARTCHAR oslashacute
ENCODING 511
SWIDTH 619 0
DWIDTH 31 0
BBX 27 39 2 -1
BITMAP
0003FE00
0003FC00
0007F800
000FF000
001FE000
001F8000
003F0000
007E0000
00000000
00000000
007F8E00
01FFFF00
07FFFF00
0FFFFF00
1FFFFF00
3FFFFF80
3FE0FF80
7FC1FFC0
7F81FFC0
7F03FFC0
FF07FFC0
FF07DFE0
FF0FDFE0
FF1F9FE0
FF1F1FE0
FF3E1FE0
FF7E1FE0
7F7C1FC0
7FF83FC0
7FF83FC0
7FF07FC0
3FE0FF80
3FFFFF80
1FFFFF00
0FFFFE00
1FFFFC00
1FFFF000
1E7FC000
06000000
ENDCHAR
STARTCHAR Scommaaccent
ENCODING 536
SWIDTH 550 0
DWIDTH 28 0
BBX 24 47 2 -11
BITMAP
007FC0
03FFF8
0FFFFF
1FFFFE
3FFFFE
3FFFFC
7FC07C
7F800C
7F0000
7F0000
7F0000
7F8000
7FC000
7FE000
3FF800
1FFF00
1FFFC0
0FFFE0
03FFF8
00FFFC
003FFC
000FFE
0003FE
0001FF
0000FF
0000FF
00007F
8000FF
F000FF
FE03FE
FFFFFE
FFFFFC
FFFFF8
FFFFF0
3FFFC0
07FE00
000000
000000
000000
00FE00
00FC00
00FC00
01F800
01F800
01F000
01F000
03E000
ENDCHAR
STARTCHAR scommaaccent
ENCODING 537
SWIDTH 497 0
DWIDTH 25 0
BBX 21 39 2 -11
BITMAP
01FF00
0FFFE0
1FFFF8
3FFFF0
7FFFF0
7FFFF0
FF03E0
FF0060
FF0000
FF8000
7FF000
7FFC00
3FFF00
1FFFC0
07FFE0
01FFF0
007FF8
000FF8
0007F8
0003F8
C003F8
FC07F8
FFFFF8
FFFFF0
FFFFE0
FFFFC0
7FFF80
0FFC00
000000
000000
000000
01FC00
03F800
03F800
03F000
03F000
03E000
07C000
07C000
ENDCHAR
STARTCHAR Tcommaaccent
ENCODING 538
SWIDTH 579 0
DWIDTH 29 0
BBX 27 47 1 -11
BITMAP
FFFFFFE0
FFFFFFE0
FFFFFFE0
FFFFFFE0
FFFFFFE0
FFFFFFE0
003F8000
003F8000
003F8000
003F8000
003F8000
003F8000
003F8000
003F8000
003F8000
003F8000
003F8000
003F8000
003F8000
003F8000
003F8000
003F8000
003F8000
003F8000
003F8000
003F8000
003F8000
003F8000
003F8000
003F8000
003F8000
003F8000
003F8000
003F8000
003F8000
003F8000
00000000
00000000
00000000
003F8000
003F0000
003F0000
007E0000
007E0000
007C0000
007C0000
00780000
ENDCHAR
STARTCHAR tcommaaccent
ENCODING 539
SWIDTH 434 0
DWIDTH 22 0
BBX 19 44 1 -11
BITMAP
03E000
03E000
03E000
07E000
07E000
0FE000
1FFFE0
3FFFE0
FFFFE0
FFFFE0
FFFFE0
FFFFE0
0FE000
0FE000
0FE000
0FE000
0FE000
0FE000
0FE000
0FE000
0FE000
0FE000
0FE000
0FE000
0FE000
0FE000
0FF020
0FFFE0
0FFFE0
07FFE0
03FFE0
01FFE0
007F80
000000
000000
000000
00FE00
00FC00
01FC00
01F800
01F800
01F000
01F000
03E000
ENDCHAR
STARTCHAR dotlessj
ENCODING 567
SWIDTH 305 0
DWIDTH 15 0
BBX 14 39 -3 -12
BITMAP
01FC
01FC
01FC
01FC
01FC
01FC
01FC
01FC
01FC
01FC
01FC
01FC
01FC
01FC
01FC
01FC
01FC
01FC
01FC
01FC
01FC
01FC
01FC
01FC
01FC
01FC
01FC
01FC
01FC
01FC
01FC
03FC
07FC
FFFC
FFF8
FFF8
FFF0
FFE0
FF00
ENDCHAR
STARTCHAR uni02BC
ENCODING 700
SWIDTH 216 0
DWIDTH 11 0
BBX 9 12 1 24
BITMAP
3F80
3F80
3F80
7F00
7F00
7F00
7E00
7E00
FE00
FC00
FC00
F800
ENDCHAR
STARTCHAR circumflex
ENCODING 710
SWIDTH 606 0
DWIDTH 30 0
BBX 22 8 4 30
BITMAP
03FF00
03FF00
07FF80
0FFFC0
1FCFE0
3F87F0
7F03F8
FC00FC
ENDCHAR
STARTCHAR caron
ENCODING 711
SWIDTH 606 0
DWIDTH 30 0
BBX 22 8 4 30
BITMAP
FC00FC
7F03F8
3F87F0
1FCFE0
0FFFC0
07FF80
03FF00
03FF00
ENDCHAR
STARTCHAR macron
ENCODING 713
SWIDTH 606 0
DWIDTH 30 0
BBX 16 5 7 30
BITMAP
FFFF
FFFF
FFFF
FFFF
FFFF
ENDCHAR
STARTCHAR breve
ENCODING 728
SWIDTH 606 0
DWIDTH 30 0
BBX 20 8 5 30
BITMAP
F801F0
7801E0
7E07E0
7FFFE0
3FFFC0
1FFF80
0FFF00
03FC00
ENDCHAR
STARTCHAR dotaccent
ENCODING 729
SWIDTH 305 0
DWIDTH 15 0
BBX 8 7 4 31
BITMAP
7C
FE
FF
FF
FF
FE
7C
ENDCHAR
STARTCHAR ring
ENCODING 730
SWIDTH 577 0
DWIDTH 29 0
BBX 13 12 8 30
BITMAP
0F80
3FE0
7FF0
7DF0
F0F0
F078
F078
F0F0
7DF0
7FF0
3FE0
0F80
ENDCHAR
STARTCHAR ogonek
ENCODING 731
SWIDTH 206 0
DWIDTH 10 0
BBX 10 12 0 -12
BITMAP
0F00
1E00
3C00
7C00
7800
F800
F800
FFC0
7FC0
7FC0
3FC0
1FC0
ENDCHAR
STARTCHAR tilde
ENCODING 732
SWIDTH 606 0
DWIDTH 30 0
BBX 20 8 5 30
BITMAP
0F80F0
1FC0F0
3FF1F0
7FFFF0
7FFFE0
F8FFC0
F03FC0
F00F00
ENDCHAR
STARTCHAR hungarumlaut
ENCODING 733
SWIDTH 587 0
DWIDTH 29 0
BBX 22 8 4 30
BITMAP
0FF3FC
0FE3F8
1FC7F0
3F8FE0
3F0FC0
7E1F80
FC3F00
F03C00
ENDCHAR
STARTCHAR uni02F3
ENCODING 755
SWIDTH 333 0
DWIDTH 17 0
BBX 12 12 2 -15
BITMAP
0F80
3FC0
7FE0
7FF0
F0F0
F0F0
F0F0
F0F0
7FF0
7FE0
3FC0
1F80
ENDCHAR
STARTCHAR uni0300
ENCODING 768
SWIDTH 0 0
DWIDTH 0 0
BBX 14 8 -25 30
BITMAP
FF80
7FC0
1FC0
0FE0
07F0
03F8
01FC
007C
ENDCHAR
STARTCHAR uni0301
ENCODING 769
SWIDTH 0 0
DWIDTH 0 0
BBX 14 8 -20 30
BITMAP
07FC
07F8
0FF0
1FE0
3F80
3F00
7E00
FC00
ENDCHAR
STARTCHAR uni0303
ENCODING 771
SWIDTH 0 0
DWIDTH 0 0
BBX 20 8 -26 30
BITMAP
0F8070
1FE0F0
3FF1F0
7FFFF0
7FFFE0
F8FFE0
F03FC0
F00F00
ENDCHAR
STARTCHAR hook
ENCODING 777
SWIDTH 0 0
DWIDTH 0 0
BBX 11 12 -20 30
BITMAP
7F00
FFC0
FFE0
FFE0
87E0
03E0
07E0
07E0
3FC0
1F80
1E00
1E00
ENDCHAR
STARTCHAR uni030F
ENCODING 783
SWIDTH 0 0
DWIDTH 0 0
BBX 21 8 -28 30
BITMAP
FE3F80
7F3FC0
7F1FC0
3F8FE0
1FC7E0
07C3F0
03E1F8
01E078
ENDCHAR
STARTCHAR dotbelow
ENCODING 803
SWIDTH 0 0
DWIDTH 0 0
BBX 8 7 -20 -10
BITMAP
3E
7F
FF
FF
FF
7F
7E
ENDCHAR
STARTCHAR tonos
ENCODING 900
SWIDTH 577 0
DWIDTH 29 0
BBX 8 10 12 30
BITMAP
7F
7F
7F
7E
7E
FC
FC
F8
F8
F0
ENDCHAR
STARTCHAR dieresistonos
ENCODING 901
SWIDTH 577 0
DWIDTH 29 0
BBX 19 11 5 31
BITMAP
00FE00
00FC00
00FC00
00F800
00F800
F9F3E0
FDE7E0
FDE7E0
FC07E0
FC07E0
7803C0
ENDCHAR
STARTCHAR Alphatonos
ENCODING 902
SWIDTH 689 0
DWIDTH 35 0
BBX 36 37 -1 0
BITMAP
3F80000000
7F03FE0000
7F07FF0000
7E07FF0000
7E07FF0000
7C0FFF8000
FC0FFF8000
F80FDF8000
F81FDFC000
F01FDFC000
003F8FE000
003F8FE000
003F8FE000
007F07F000
007F07F000
007F07F000
00FE03F800
00FE03F800
00FE03F800
01FE01FC00
01FC01FC00
01FC01FC00
03FFFFFE00
03FFFFFE00
07FFFFFF00
07FFFFFF00
07FFFFFF00
0FFFFFFF80
0FF0007F80
0FE0003F80
1FE0003FC0
1FE0003FC0
1FE0001FC0
3FC0001FE0
3FC0001FE0
3FC0001FE0
7F80000FF0
ENDCHAR
STARTCHAR anoteleia
ENCODING 903
SWIDTH 285 0
DWIDTH 14 0
BBX 8 8 3 13
BITMAP
3E
7F
FF
FF
FF
FF
7F
3E
ENDCHAR
STARTCHAR Epsilontonos
ENCODING 904
SWIDTH 629 0
DWIDTH 32 0
BBX 31 37 -2 0
BITMAP
3F800000
7F3FFFFE
7F3FFFFE
7E3FFFFE
7E3FFFFE
7C3FFFFE
FC3FFFFE
F83FC000
F83FC000
F03FC000
003FC000
003FC000
003FC000
003FC000
003FC000
003FFFFC
003FFFFC
003FFFFC
003FFFFC
003FFFFC
003FFFFC
003FC000
003FC000
003FC000
003FC000
003FC000
003FC000
003FC000
003FC000
003FC000
003FC000
003FFFFE
003FFFFE
003FFFFE
003FFFFE
003FFFFE
003FFFFE
ENDCHAR
STARTCHAR Etatonos
ENCODING 905
SWIDTH 834 0
DWIDTH 42 0
BBX 39 37 -2 0
BITMAP
3F80000000
7F3FC001FE
7F3FC001FE
7E3FC001FE
7E3FC001FE
7C3FC001FE
FC3FC001FE
F83FC001FE
F83FC001FE
F03FC001FE
003FC001FE
003FC001FE
003FC001FE
003FC001FE
003FC001FE
003FFFFFFE
003FFFFFFE
003FFFFFFE
003FFFFFFE
003FFFFFFE
003FFFFFFE
003FC001FE
003FC001FE
003FC001FE
003FC001FE
003FC001FE
003FC001FE
003FC001FE
003FC001FE
003FC001FE
003FC001FE
003FC001FE
003FC001FE
003FC001FE
003FC001FE
003FC001FE
003FC001FE
ENDCHAR
STARTCHAR Iotatonos
ENCODING 906
SWIDTH 512 0
DWIDTH 26 0
BBX 20 37 -2 0
BITMAP
3F8000
7F07F0
7F07F0
7E07F0
7E07F0
7C07F0
FC07F0
F807F0
F807F0
F007F0
0007F0
0007F0
0007F0
0007F0
0007F0
0007F0
0007F0
0007F0
0007F0
0007F0
0007F0
0007F0
0007F0
0007F0
0007F0
0007F0
0007F0
0007F0
0007F0
0007F0
0007F0
0007F0
0007F0
0007F0
0007F0
0007F0
0007F0
ENDCHAR
STARTCHAR Omicrontonos
ENCODING 908
SWIDTH 835 0
DWIDTH 42 0
BBX 40 37 -1 0
BITMAP
3F80000000
7F003FF000
7F01FFFE00
7E07FFFF80
7E0FFFFFE0
7C3FFFFFF0
FC3FFFFFF0
F87FF03FF8
F8FFC00FFC
F0FF8007FC
01FF0003FE
01FE0001FE
01FE0001FE
03FC0001FF
03FC0000FF
03FC0000FF
03FC0000FF
03FC0000FF
03FC0000FF
03FC0000FF
03FC0000FF
03FC0000FF
03FC0000FF
03FC0000FF
03FC0001FF
01FE0001FE
01FE0001FE
01FF0003FE
00FF8007FC
00FFC00FFC
007FF03FF8
003FFFFFF0
003FFFFFF0
000FFFFFC0
0007FFFF80
0001FFFE00
00003FF000
ENDCHAR
STARTCHAR Upsilontonos
ENCODING 910
SWIDTH 764 0
DWIDTH 38 0
BBX 41 37 -3 0
BITMAP
3F8000000000
3FBFC0007F80
3F1FE000FF00
3F1FE000FF00
7E0FF001FE00
7E0FF001FE00
7C07F803FC00
7C07F803FC00
F803FC07F800
F803FC07F800
0001FE0FF000
0000FE0FE000
0000FF1FE000
00007F1FC000
00007FBFC000
00003FBF8000
00003FFF8000
00001FFF0000
00001FFF0000
00000FFE0000
00000FFE0000
000007FC0000
000007FC0000
000003F80000
000003F80000
000003F80000
000003F80000
000003F80000
000003F80000
000003F80000
000003F80000
000003F80000
000003F80000
000003F80000
000003F80000
000003F80000
000003F80000
ENDCHAR
STARTCHAR Omegatonos
ENCODING 911
SWIDTH 786 0
DWIDTH 39 0
BBX 41 37 -1 0
BITMAP
3F8000000000
7F003FF00000
7F01FFFE0000
7E07FFFF8000
7E1FFFFFC000
7C3FFFFFE000
FC7FFFFFF000
F8FFE03FF800
F8FF800FFC00
F1FF0007FC00
01FE0003FE00
03FE0001FE00
03FC0001FE00
03FC0001FE00
03FC0001FE00
03FC0000FF00
03FC0000FF00
03FC0000FE00
03FC0000FE00
03FC0000FE00
03FC0000FE00
01FC0001FE00
01FC0001FC00
01FC0001FC00
00FE0001FC00
00FE0003F800
007F0003F800
003F0007F000
003F800FE000
001FC01FC000
0007F07F8000
07FFF07FFF80
07FFF07FFF80
07FFF07FFF80
07FFF07FFF80
07FFF07FFF80
07FFF07FFF80
ENDCHAR
STARTCHAR iotadieresistonos
ENCODING 912
SWIDTH 407 0
DWIDTH 20 0
BBX 20 42 -1 0
BITMAP
00FE00
00FE00
00FC00
00F800
00F880
F8F3E0
FDF7E0
FDE7E0
FC07E0
FC07E0
7803C0
000000
000000
000000
000000
07F000
07F000
07F000
07F000
07F000
07F000
07F000
07F000
07F000
07F000
07F000
07F000
07F000
07F000
07F000
07F000
07F000
07F000
07F000
07F800
07FC10
07FFF0
03FFF0
03FFF0
01FFF0
00FFF0
003FC0
ENDCHAR
STARTCHAR Alpha
ENCODING 913
SWIDTH 689 0
DWIDTH 35 0
BBX 35 36 0 0
BITMAP
0007FC0000
000FFE0000
000FFE0000
000FFE0000
001FFF0000
001FFF0000
001FBF0000
003FBF8000
003FBF8000
007F1FC000
007F1FC000
007F1FC000
00FE0FE000
00FE0FE000
00FE0FE000
01FC07F000
01FC07F000
01FC07F000
03FC03F800
03F803F800
03F803F800
07FFFFFC00
07FFFFFC00
0FFFFFFE00
0FFFFFFE00
0FFFFFFE00
1FFFFFFF00
1FE000FF00
1FC0007F00
3FC0007F80
3FC0007F80
3FC0003F80
7F80003FC0
7F80003FC0
7F80003FC0
FF00001FE0
ENDCHAR
STARTCHAR Beta
ENCODING 914
SWIDTH 671 0
DWIDTH 34 0
BBX 27 36 4 0
BITMAP
FFFFC000
FFFFFC00
FFFFFE00
FFFFFF80
FFFFFF80
FFFFFFC0
FF00FFC0
FF003FC0
FF003FC0
FF001FC0
FF001FC0
FF003FC0
FF003FC0
FF00FF80
FFFFFF80
FFFFFF00
FFFFFC00
FFFFFE00
FFFFFF80
FFFFFFC0
FF00FFC0
FF003FE0
FF001FE0
FF001FE0
FF001FE0
FF001FE0
FF001FE0
FF001FE0
FF003FE0
FF00FFE0
FFFFFFC0
FFFFFF80
FFFFFF80
FFFFFE00
FFFFFC00
FFFFE000
ENDCHAR
STARTCHAR Gamma
ENCODING 915
SWIDTH 561 0
DWIDTH 28 0
BBX 23 36 4 0
BITMAP
FFFFFE
FFFFFE
FFFFFE
FFFFFE
FFFFFE
FFFFFE
FF0000
FF0000
FF0000
FF0000
FF0000
FF0000
FF0000
FF0000
FF0000
FF0000
FF0000
FF0000
FF0000
FF0000
FF0000
FF0000
FF0000
FF0000
FF0000
FF0000
FF0000
FF0000
FF0000
FF0000
FF0000
FF0000
FF0000
FF0000
FF0000
FF0000
ENDCHAR
STARTCHAR uni0394
ENCODING 916
SWIDTH 658 0
DWIDTH 33 0
BBX 31 36 1 0
BITMAP
001FF000
001FF000
003FF800
003FF800
003FF800
007FFC00
007EFC00
007EFC00
00FEFE00
00FEFE00
00FC7E00
01FC7F00
01FC7F00
01F83F00
03F83F80
03F83F80
03F03F80
07F01FC0
07F01FC0
07F01FC0
0FE00FE0
0FE00FE0
0FE00FE0
1FC007F0
1FC007F0
3FC007F0
3F8003F8
3F8003F8
7F8003F8
7F0001FC
7FFFFFFC
FFFFFFFE
FFFFFFFE
FFFFFFFE
FFFFFFFE
FFFFFFFE
ENDCHAR
STARTCHAR Epsilon
ENCODING 917
SWIDTH 560 0
DWIDTH 28 0
BBX 21 36 4 0
BITMAP
FFFFF8
FFFFF8
FFFFF8
FFFFF8
FFFFF8
FFFFF8
FF0000
FF0000
FF0000
FF0000
FF0000
FF0000
FF0000
FF0000
FFFFF0
FFFFF0
FFFFF0
FFFFF0
FFFFF0
FFFFF0
FF0000
FF0000
FF0000
FF0000
FF0000
FF0000
FF0000
FF0000
FF0000
FF0000
FFFFF8
FFFFF8
FFFFF8
FFFFF8
FFFFF8
FFFFF8
ENDCHAR
STARTCHAR Zeta
ENCODING 918
SWIDTH 579 0
DWIDTH 29 0
BBX 27 36 1 0
BITMAP
7FFFFFC0
7FFFFFC0
7FFFFFC0
7FFFFFC0
7FFFFFC0
7FFFFFC0
00007F80
0000FF00
0000FF00
0001FE00
0003FC00
0003FC00
0007F800
000FF000
000FF000
001FE000
003FC000
003FC000
007F8000
00FF0000
00FF0000
01FE0000
03FC0000
07FC0000
07F80000
0FF00000
1FF00000
1FE00000
3FC00000
7FC00000
7FFFFFE0
FFFFFFE0
FFFFFFE0
FFFFFFE0
FFFFFFE0
FFFFFFE0
ENDCHAR
STARTCHAR Eta
ENCODING 919
SWIDTH 765 0
DWIDTH 38 0
BBX 29 36 4 0
BITMAP
FF0003F8
FF0003F8
FF0003F8
FF0003F8
FF0003F8
FF0003F8
FF0003F8
FF0003F8
FF0003F8
FF0003F8
FF0003F8
FF0003F8
FF0003F8
FF0003F8
FFFFFFF8
FFFFFFF8
FFFFFFF8
FFFFFFF8
FFFFFFF8
FFFFFFF8
FF0003F8
FF0003F8
FF0003F8
FF0003F8
FF0003F8
FF0003F8
FF0003F8
FF0003F8
FF0003F8
FF0003F8
FF0003F8
FF0003F8
FF0003F8
FF0003F8
FF0003F8
FF0003F8
ENDCHAR
STARTCHAR Theta
ENCODING 920
SWIDTH 795 0
DWIDTH 40 0
BBX 34 36 3 0
BITMAP
000FFC0000
007FFF8000
01FFFFE000
03FFFFF800
0FFFFFFC00
0FFFFFFC00
1FFC0FFE00
3FF003FF00
3FE001FF00
7FC000FF80
7F80007F80
7F80007F80
FF00003FC0
FF00003FC0
FF00003FC0
FF1FFE3FC0
FF1FFE3FC0
FF1FFE3FC0
FF1FFE3FC0
FF1FFE3FC0
FF1FFE3FC0
FF00003FC0
FF00003FC0
FF00003FC0
7F80007F80
7F80007F80
7FC000FF80
3FE000FF00
3FF003FF00
1FFC0FFE00
0FFFFFFC00
0FFFFFFC00
03FFFFF000
01FFFFE000
007FFF8000
000FFC0000
ENDCHAR
STARTCHAR Iota
ENCODING 921
SWIDTH 331 0
DWIDTH 17 0
BBX 7 36 5 0
BITMAP
FE
FE
FE
FE
FE
FE
FE
FE
FE
FE
FE
FE
FE
FE
FE
FE
FE
FE
FE
FE
FE
FE
FE
FE
FE
FE
FE
FE
FE
FE
FE
FE
FE
FE
FE
FE
ENDCHAR
STARTCHAR Kappa
ENCODING 922
SWIDTH 664 0
DWIDTH 33 0
BBX 29 36 4 0
BITMAP
FF000FF8
FF001FF0
FF001FE0
FF003FC0
FF007F80
FF00FF80
FF01FF00
FF01FE00
FF03FC00
FF07FC00
FF0FF800
FF0FF000
FF1FE000
FF3FE000
FF7FC000
FF7F8000
FFFF8000
FFFFC000
FFFFC000
FFFFE000
FFFFE000
FFCFF000
FF8FF800
FF07F800
FF07FC00
FF03FE00
FF01FE00
FF01FF00
FF00FF00
FF00FF80
FF007FC0
FF003FC0
FF003FE0
FF001FE0
FF001FF0
FF000FF8
ENDCHAR
STARTCHAR Lambda
ENCODING 923
SWIDTH 649 0
DWIDTH 33 0
BBX 33 36 0 0
BITMAP
000FF80000
000FF80000
001FF80000
001FFC0000
001FFC0000
003FFE0000
003F7E0000
003F7E0000
007F7F0000
007F7F0000
007F3F0000
00FE3F8000
00FE3F8000
00FE3F8000
01FC1FC000
01FC1FC000
01FC1FC000
03FC0FE000
03F80FE000
03F80FE000
07F807F000
07F007F000
07F007F000
0FF007F800
0FE003F800
0FE003F800
1FE003FC00
1FC001FC00
1FC001FC00
3FC001FE00
3F8000FE00
3F8000FE00
7F8000FF00
7F00007F00
FF00007F00
FF00007F80
ENDCHAR
STARTCHAR Mu
ENCODING 924
SWIDTH 942 0
DWIDTH 47 0
BBX 39 36 4 0
BITMAP
FFE0000FFE
FFE0000FFE
FFF0001FFE
FFF0001FFE
FFF0001FFE
FFF0003FFE
FFF8003FFE
FFF8003FFE
FFF8007EFE
FEFC007EFE
FEFC007EFE
FEFC00FCFE
FEFE00FCFE
FE7E00FCFE
FE7E00F8FE
FE7F01F9FE
FE3F01F9FE
FE3F01F1FE
FE3F03F1FE
FE1F83F1FE
FE1F83E1FE
FE1F87E1FE
FE1FC7E1FE
FE0FC7E1FE
FE0FCFC1FE
FE0FEFC1FE
FE07EFC1FE
FE07FF81FE
FE07FF81FE
FE03FF81FE
FE03FF01FE
FE03FF01FE
FE03FF01FE
FE01FE01FE
FE01FE01FE
FE01FE01FE
ENDCHAR
STARTCHAR Nu
ENCODING 925
SWIDTH 812 0
DWIDTH 41 0
BBX 33 36 4 0
BITMAP
FFC0003F80
FFE0003F80
FFF0003F80
FFF0003F80
FFF8003F80
FFF8003F80
FFFC003F80
FFFC003F80
FFFE003F80
FFFF003F80
FEFF003F80
FE7F803F80
FE7F803F80
FE3FC03F80
FE3FE03F80
FE1FE03F80
FE1FF03F80
FE0FF03F80
FE07F83F80
FE07FC3F80
FE03FC3F80
FE03FE3F80
FE01FE3F80
FE00FF3F80
FE00FF3F80
FE007FBF80
FE007FFF80
FE003FFF80
FE003FFF80
FE001FFF80
FE000FFF80
FE000FFF80
FE0007FF80
FE0007FF80
FE0003FF80
FE0001FF80
ENDCHAR
STARTCHAR Xi
ENCODING 926
SWIDTH 570 0
DWIDTH 29 0
BBX 25 36 2 0
BITMAP
7FFFFF00
7FFFFF00
7FFFFF00
7FFFFF00
7FFFFF00
7FFFFF00
00000000
00000000
00000000
00000000
00000000
00000000
00000000
00000000
1FFFFC00
1FFFFC00
1FFFFC00
1FFFFC00
1FFFFC00
1FFFFC00
00000000
00000000
00000000
00000000
00000000
00000000
00000000
00000000
00000000
00000000
FFFFFF80
FFFFFF80
FFFFFF80
FFFFFF80
FFFFFF80
FFFFFF80
ENDCHAR
STARTCHAR Omicron
ENCODING 927
SWIDTH 795 0
DWIDTH 40 0
BBX 34 36 3 0
BITMAP
000FFC0000
007FFF8000
01FFFFE000
03FFFFF800
0FFFFFFC00
0FFFFFFC00
1FFC0FFE00
3FF003FF00
3FE001FF00
7FC000FF80
7F80007F80
7F80007F80
FF00007FC0
FF00003FC0
FF00003FC0
FF00003FC0
FF00003FC0
FF00003FC0
FF00003FC0
FF00003FC0
FF00003FC0
FF00003FC0
FF00003FC0
FF00007FC0
7F80007F80
7F80007F80
7FC000FF80
3FE001FF00
3FF003FF00
1FFC0FFE00
0FFFFFFC00
0FFFFFFC00
03FFFFF000
01FFFFE000
007FFF8000
000FFC0000
ENDCHAR
STARTCHAR Pi
ENCODING 928
SWIDTH 745 0
DWIDTH 37 0
BBX 28 36 4 0
BITMAP
FFFFFFF0
FFFFFFF0
FFFFFFF0
FFFFFFF0
FFFFFFF0
FFFFFFF0
FF0007F0
FF0007F0
FF0007F0
FF0007F0
FF0007F0
FF0007F0
FF0007F0
FF0007F0
FF0007F0
FF0007F0
FF0007F0
FF0007F0
FF0007F0
FF0007F0
FF0007F0
FF0007F0
FF0007F0
FF0007F0
FF0007F0
FF0007F0
FF0007F0
FF0007F0
FF0007F0
FF0007F0
FF0007F0
FF0007F0
FF0007F0
FF0007F0
FF0007F0
FF0007F0
ENDCHAR
STARTCHAR Rho
ENCODING 929
SWIDTH 627 0
DWIDTH 31 0
BBX 25 36 4 0
BITMAP
FFFF8000
FFFFE000
FFFFF800
FFFFFC00
FFFFFE00
FFFFFF00
FF03FF00
FF00FF00
FF007F80
FF007F80
FF007F80
FF007F80
FF007F80
FF007F80
FF00FF00
FF00FF00
FF03FF00
FFFFFE00
FFFFFE00
FFFFFC00
FFFFF800
FFFFE000
FFFF0000
FF000000
FF000000
FF000000
FF000000
FF000000
FF000000
FF000000
FF000000
FF000000
FF000000
FF000000
FF000000
FF000000
ENDCHAR
STARTCHAR Sigma
ENCODING 931
SWIDTH 592 0
DWIDTH 30 0
BBX 26 36 2 0
BITMAP
FFFFFF80
FFFFFF80
FFFFFF80
FFFFFF80
FFFFFF80
FFFFFF80
7F800000
3FC00000
1FE00000
0FF00000
07F80000
03FC0000
01FE0000
00FF0000
007F8000
003FC000
001FE000
001FE000
003FC000
003F8000
007F8000
00FF0000
01FE0000
03FC0000
07F80000
0FF00000
1FE00000
3FC00000
7F800000
7F000000
FFFFFFC0
FFFFFFC0
FFFFFFC0
FFFFFFC0
FFFFFFC0
FFFFFFC0
ENDCHAR
STARTCHAR Tau
ENCODING 932
SWIDTH 579 0
DWIDTH 29 0
BBX 27 36 1 0
BITMAP
FFFFFFE0
FFFFFFE0
FFFFFFE0
FFFFFFE0
FFFFFFE0
FFFFFFE0
003F8000
003F8000
003F8000
003F8000
003F8000
003F8000
003F8000
003F8000
003F8000
003F8000
003F8000
003F8000
003F8000
003F8000
003F8000
003F8000
003F8000
003F8000
003F8000
003F8000
003F8000
003F8000
003F8000
003F8000
003F8000
003F8000
003F8000
003F8000
003F8000
003F8000
ENDCHAR
STARTCHAR Upsilon
ENCODING 933
SWIDTH 624 0
DWIDTH 31 0
BBX 31 36 0 0
BITMAP
FF0001FE
7F8003FC
7F8003FC
3FC007F8
3FC007F8
1FE00FF0
1FE00FF0
0FF01FE0
0FF01FE0
07F83FC0
03F83F80
03FC7F80
01FC7F00
01FEFF00
00FEFE00
00FFFE00
007FFC00
007FFC00
003FF800
003FF800
001FF000
001FF000
000FE000
000FE000
000FE000
000FE000
000FE000
000FE000
000FE000
000FE000
000FE000
000FE000
000FE000
000FE000
000FE000
000FE000
ENDCHAR
STARTCHAR Phi
ENCODING 934
SWIDTH 859 0
DWIDTH 43 0
BBX 39 36 2 0
BITMAP
0000FE0000
0000FE0000
0000FE0000
0000FE0000
003FFFF800
00FFFFFE00
03FFFFFF80
0FFFFFFFE0
1FFFFFFFF0
1FFFFFFFF0
3FF0FE1FF8
7FC0FE07F8
7F80FE03FC
7F00FE01FC
FF00FE01FC
FF00FE01FE
FE00FE00FE
FE00FE00FE
FE00FE00FE
FF00FE01FE
7F00FE01FC
7F00FE01FC
7F80FE03FC
3FC0FE07F8
3FF0FE1FF8
1FFFFFFFF0
0FFFFFFFE0
07FFFFFFC0
03FFFFFF80
00FFFFFE00
001FFFF000
0000FE0000
0000FE0000
0000FE0000
0000FE0000
0000FE0000
ENDCHAR
STARTCHAR Chi
ENCODING 935
SWIDTH 666 0
DWIDTH 33 0
BBX 33 36 0 0
BITMAP
7F8000FF00
3FC001FE00
3FE001FE00
1FE003FC00
0FF007F800
0FF007F800
07F80FF000
07F80FF000
03FC1FE000
01FE1FC000
01FE3FC000
00FF7F8000
007F7F0000
007FFF0000
003FFE0000
003FFE0000
001FFC0000
000FF80000
001FFC0000
003FFC0000
003FFE0000
007FFF0000
00FFFF0000
00FF7F8000
01FE3F8000
01FC3FC000
03FC1FE000
07F81FE000
07F80FF000
0FF00FF800
1FE007F800
1FE003FC00
3FC003FE00
3FC001FE00
7F8001FF00
FF0000FF80
ENDCHAR
STARTCHAR Psi
ENCODING 936
SWIDTH 875 0
DWIDTH 44 0
BBX 38 36 3 0
BITMAP
FE00FC01FC
FE00FC01FC
FE00FC01FC
FE00FC01FC
FE00FC01FC
FE00FC01FC
FE00FC01FC
FE00FC01FC
FE00FC01FC
FE00FC01FC
FE00FC01FC
FE00FC01FC
FE00FC01FC
FE00FC01FC
FE00FC01FC
FE00FC01FC
FF00FC03FC
FF80FC07F8
7FE0FC1FF8
7FFFFFFFF8
3FFFFFFFF0
1FFFFFFFE0
0FFFFFFFC0
03FFFFFF00
007FFFF800
0000FC0000
0000FC0000
0000FC0000
0000FC0000
0000FC0000
0000FC0000
0000FC0000
0000FC0000
0000FC0000
0000FC0000
0000FC0000
ENDCHAR
STARTCHAR uni03A9
ENCODING 937
SWIDTH 786 0
DWIDTH 39 0
BBX 37 36 1 0
BITMAP
0003FE0000
003FFFE000
00FFFFF800
01FFFFFC00
03FFFFFE00
07FFFFFF00
0FFE03FF80
1FF800FFC0
1FF0007FC0
1FE0003FC0
3FE0003FE0
3FC0001FE0
3FC0001FE0
3FC0001FE0
3FC0001FE0
3F80000FE0
3F80000FE0
3F80000FE0
3FC0001FE0
3FC0001FE0
3FC0001FE0
1FC0001FC0
1FC0001FC0
0FE0003F80
0FE0003F80
07F0007F00
07F0007F00
03F800FE00
01FC01FC00
007F07F000
FFFF07FFF8
FFFF07FFF8
FFFF07FFF8
FFFF07FFF8
FFFF07FFF8
FFFF07FFF8
ENDCHAR
STARTCHAR Iotadieresis
ENCODING 938
SWIDTH 331 0
DWIDTH 17 0
BBX 17 45 0 0
BITMAP
7C1F00
FC3F80
FE3F80
FE3F80
FC3F00
781E00
000000
000000
000000
07F000
07F000
07F000
07F000
07F000
07F000
07F000
07F000
07F000
07F000
07F000
07F000
07F000
07F000
07F000
07F000
07F000
07F000
07F000
07F000
07F000
07F000
07F000
07F000
07F000
07F000
07F000
07F000
07F000
07F000
07F000
07F000
07F000
07F000
07F000
07F000
ENDCHAR
STARTCHAR Upsilondieresis
ENCODING 939
SWIDTH 624 0
DWIDTH 31 0
BBX 31 46 0 0
BITMAP
00200800
00F83E00
01FC7F00
01FC7F00
01FC7F00
00FC3F00
00781E00
00000000
00000000
00000000
FF0001FE
7F8003FC
7F8003FC
3FC007F8
3FC007F8
1FE00FF0
1FE00FF0
0FF01FE0
0FF01FE0
07F83FC0
03F83F80
03FC7F80
01FC7F00
01FEFF00
00FEFE00
00FFFE00
007FFC00
007FFC00
003FF800
003FF800
001FF000
001FF000
000FE000
000FE000
000FE000
000FE000
000FE000
000FE000
000FE000
000FE000
000FE000
000FE000
000FE000
000FE000
000FE000
000FE000
ENDCHAR
STARTCHAR alphatonos
ENCODING 940
SWIDTH 646 0
DWIDTH 32 0
BBX 29 40 2 0
BITMAP
0007F000
0007E000
000FE000
000FC000
000FC000
000FC000
001F8000
001F8000
001F0000
001E0000
00000000
00000000
00FE0000
03FF87E0
0FFFCFE0
1FFFEFC0
1FFFFFC0
3FFFFFC0
3FE1FFC0
7F807FC0
7F807FC0
7F003FC0
FF003F80
FF003F80
FF003F80
FF003F80
FF003F80
FF003F80
FF003F80
FF003F80
7F003F80
7F803F80
7F807FC0
7FE0FFC0
3FFFFFF8
3FFFFFF8
1FFFDFF8
0FFF8FF8
07FF07F8
01FC03F8
ENDCHAR
STARTCHAR epsilontonos
ENCODING 941
SWIDTH 555 0
DWIDTH 28 0
BBX 24 40 2 0
BITMAP
000FE0
000FE0
000FE0
000FC0
000FC0
001F80
001F80
001F00
001F00
003E00
000000
000000
00FFC0
07FFFC
0FFFFF
1FFFFF
3FFFFE
3FFFFE
7FC03C
7F0004
7F0000
3F0000
3FC000
1FFFE0
0FFFE0
01FFE0
0FFFE0
3FFFE0
7FC000
FF0000
FE0000
FE0000
FF0001
FFC01F
FFFFFF
7FFFFF
7FFFFF
1FFFFF
0FFFFE
01FFF0
ENDCHAR
STARTCHAR etatonos
ENCODING 942
SWIDTH 657 0
DWIDTH 33 0
BBX 25 52 4 -12
BITMAP
000FE000
000FE000
000FE000
000FC000
000FC000
001F8000
001F8000
001F0000
001F0000
003E0000
00000000
00000000
000FE000
FC3FF800
FCFFFE00
FDFFFF00
FFFFFF00
FFFFFF80
FFE0FF80
FF807F80
FF807F80
FF003F80
FF003F80
FF003F80
FE003F80
FE003F80
FE003F80
FE003F80
FE003F80
FE003F80
FE003F80
FE003F80
FE003F80
FE003F80
FE003F80
FE003F80
FE003F80
FE003F80
FE003F80
FE003F80
00003F80
00003F80
00003F80
00003F80
00003F80
00003F80
00003F80
00003F80
00003F80
00003F80
00003F80
00003F80
ENDCHAR
STARTCHAR iotatonos
ENCODING 943
SWIDTH 407 0
DWIDTH 20 0
BBX 15 40 4 0
BITMAP
0FE0
1FC0
1FC0
1F80
1F80
1F00
3F00
3E00
3E00
3C00
0000
0000
0000
FE00
FE00
FE00
FE00
FE00
FE00
FE00
FE00
FE00
FE00
FE00
FE00
FE00
FE00
FE00
FE00
FE00
FE00
FE00
FF00
FF82
FFFE
7FFE
7FFE
3FFE
1FFE
07F8
ENDCHAR
STARTCHAR upsilondieresistonos
ENCODING 944
SWIDTH 645 0
DWIDTH 32 0
BBX 26 42 3 0
BITMAP
000FE000
000FC000
000F8000
001F8000
021F0000
0F9F7C00
1F9E7E00
1FDC7E00
1FC07E00
0F807E00
0F003C00
00000000
00000000
00000000
00000000
FF007F80
FF007F80
FF003F80
FF003F80
FF003FC0
FF003FC0
FF003FC0
FF001FC0
FF001FC0
FF001FC0
FF001FC0
FF001FC0
FF001FC0
FF001FC0
FF001FC0
FF001FC0
7F003FC0
7F003FC0
7F803FC0
7F807F80
7FE0FF80
3FFFFF00
3FFFFF00
1FFFFE00
0FFFFC00
03FFF000
00FFC000
ENDCHAR
STARTCHAR alpha
ENCODING 945
SWIDTH 646 0
DWIDTH 32 0
BBX 29 28 2 0
BITMAP
00FE0000
03FF87E0
0FFFCFE0
1FFFEFC0
1FFFFFC0
3FFFFFC0
3FE1FFC0
7F807FC0
7F807FC0
7F003FC0
FF003F80
FF003F80
FF003F80
FF003F80
FF003F80
FF003F80
FF003F80
FF003F80
7F003F80
7F803F80
7F807FC0
7FE0FFC0
3FFFFFF8
3FFFFFF8
1FFFDFF8
0FFF8FF8
07FF07F8
01FC03F8
ENDCHAR
STARTCHAR beta
ENCODING 946
SWIDTH 660 0
DWIDTH 33 0
BBX 27 50 4 -12
BITMAP
00FF8000
03FFF000
0FFFFC00
1FFFFE00
3FFFFF00
7FFFFF80
7FC1FF80
FF807F80
FF007F80
FF003F80
FE003F80
FE003F80
FE007F80
FE007F00
FE01FF00
FE1FFE00
FE1FF800
FE1FC000
FE1FFC00
FE1FFF00
FE1FFF80
FE00FFC0
FE003FC0
FE001FE0
FE001FE0
FE001FE0
FE000FE0
FE001FE0
FE001FE0
FE001FE0
FF003FE0
FFC0FFC0
FFFFFFC0
FFFFFF80
FFFFFF80
FFFFFF00
FFFFFC00
FE3FE000
FE000000
FE000000
FE000000
FE000000
FE000000
FE000000
FE000000
FE000000
FE000000
FE000000
FE000000
FE000000
ENDCHAR
STARTCHAR gamma
ENCODING 947
SWIDTH 567 0
DWIDTH 28 0
BBX 28 39 0 -12
BITMAP
FF000FF0
7F000FE0
7F801FE0
7F801FE0
3F801FC0
3FC01FC0
1FC03FC0
1FC03F80
1FE03F80
0FE07F00
0FE07F00
0FF07F00
07F0FE00
07F0FE00
03F0FE00
03F9FC00
03F9FC00
01F9FC00
01FDF800
01FFF800
00FFF000
00FFF000
007FF000
007FE000
007FE000
003FE000
003FC000
003FC000
003F8000
007F8000
007F8000
007F8000
007F0000
00FF0000
00FF0000
00FF0000
00FF0000
00FF0000
00FF0000
ENDCHAR
STARTCHAR delta
ENCODING 948
SWIDTH 619 0
DWIDTH 31 0
BBX 27 38 2 0
BITMAP
001FF000
00FFFE00
03FFFFC0
07FFFFC0
07FFFFC0
0FFFFF80
0FF03F80
0FE00700
0FE00000
0FF00000
07F80000
07FE0000
03FF0000
01FFC000
00FFF000
003FFC00
01FFFE00
07FFFF00
0FFFFF80
1FF0FF80
3FE07FC0
7FC03FC0
7F803FC0
7F801FE0
FF001FE0
FF001FE0
FF001FE0
FF001FE0
FF001FE0
FF803FC0
7F803FC0
7FE0FFC0
3FFFFF80
3FFFFF00
1FFFFF00
0FFFFC00
03FFF800
007FC000
ENDCHAR
STARTCHAR epsilon
ENCODING 949
SWIDTH 555 0
DWIDTH 28 0
BBX 24 28 2 0
BITMAP
00FFC0
07FFFC
0FFFFF
1FFFFF
3FFFFE
3FFFFE
7FC03C
7F0004
7F0000
3F0000
3FC000
1FFFE0
0FFFE0
01FFE0
0FFFE0
3FFFE0
7FC000
FF0000
FE0000
FE0000
FF0001
FFC01F
FFFFFF
7FFFFF
7FFFFF
1FFFFF
0FFFFE
01FFF0
ENDCHAR
STARTCHAR zeta
ENCODING 950
SWIDTH 498 0
DWIDTH 25 0
BBX 23 47 2 -9
BITMAP
3FFFFE
3FFFFE
3FFFFE
3FFFFE
3FFFFE
3FFFFC
0007F8
000FF0
001FC0
003F80
007F00
00FE00
01FC00
03FC00
07F800
0FF000
0FE000
1FE000
3FC000
3FC000
7F8000
7F8000
7F0000
7F0000
FF0000
FF0000
FF0000
FF0000
FF0000
7F8000
7F8000
7FE000
3FFE00
3FFFC0
1FFFF0
07FFF8
03FFFC
007FFE
0003FE
0001FE
0001FE
0001FC
0001FC
0003FC
0003F8
0007F0
000FF0
ENDCHAR
STARTCHAR eta
ENCODING 951
SWIDTH 657 0
DWIDTH 33 0
BBX 25 40 4 -12
BITMAP
000FE000
FC3FF800
FCFFFE00
FDFFFF00
FFFFFF00
FFFFFF80
FFE0FF80
FF807F80
FF807F80
FF003F80
FF003F80
FF003F80
FE003F80
FE003F80
FE003F80
FE003F80
FE003F80
FE003F80
FE003F80
FE003F80
FE003F80
FE003F80
FE003F80
FE003F80
FE003F80
FE003F80
FE003F80
FE003F80
00003F80
00003F80
00003F80
00003F80
00003F80
00003F80
00003F80
00003F80
00003F80
00003F80
00003F80
00003F80
ENDCHAR
STARTCHAR theta
ENCODING 952
SWIDTH 618 0
DWIDTH 31 0
BBX 27 39 2 0
BITMAP
003F8000
01FFF000
03FFF800
07FFFC00
0FFFFE00
1FFFFF00
1FE0FF00
3FC07F80
3FC07F80
7F803F80
7F803FC0
7F003FC0
7F001FC0
7F001FC0
FF001FC0
FF001FE0
FF001FE0
FFFFFFE0
FFFFFFE0
FFFFFFE0
FFFFFFE0
FFFFFFE0
FFFFFFE0
FF001FE0
7F001FC0
7F001FC0
7F001FC0
7F001FC0
7F003FC0
3F803FC0
3F803F80
3FC07F80
1FE0FF00
1FFFFF00
0FFFFE00
07FFFC00
03FFF800
01FFF000
003FC000
ENDCHAR
STARTCHAR iota
ENCODING 953
SWIDTH 407 0
DWIDTH 20 0
BBX 15 27 4 0
BITMAP
FE00
FE00
FE00
FE00
FE00
FE00
FE00
FE00
FE00
FE00
FE00
FE00
FE00
FE00
FE00
FE00
FE00
FE00
FE00
FF00
FF82
FFFE
7FFE
7FFE
3FFE
1FFE
07F8
ENDCHAR
STARTCHAR kappa
ENCODING 954
SWIDTH 620 0
DWIDTH 31 0
BBX 27 27 4 0
BITMAP
FE003FC0
FE007F80
FE00FF00
FE01FE00
FE03FC00
FE03FC00
FE07F800
FE0FF000
FE1FE000
FE3FC000
FE7F8000
FEFF0000
FEFF0000
FFFF0000
FFFF8000
FFFFC000
FFFFE000
FFDFF000
FF0FF000
FE07F800
FE03FC00
FE03FE00
FE01FF00
FE00FF00
FE007F80
FE007FC0
FE003FE0
ENDCHAR
STARTCHAR lambda
ENCODING 955
SWIDTH 615 0
DWIDTH 31 0
BBX 31 38 0 0
BITMAP
1FE00000
1FF80000
1FFE0000
1FFE0000
1FFF0000
1FFF8000
00FF8000
003FC000
003FC000
001FC000
001FE000
000FE000
000FE000
001FF000
001FF000
003FF800
003FF800
007FF800
007FFC00
007FFC00
00FFFC00
00FFFE00
01FCFE00
01FCFF00
03FCFF00
03F87F00
07F87F80
07F07F80
0FF03F80
0FF03FC0
0FE03FE0
1FE01FE0
1FC01FFE
3FC00FFE
3F800FFE
7F8007FE
7F8003FE
FF0001FC
ENDCHAR
STARTCHAR uni03BC
ENCODING 956
SWIDTH 660 0
DWIDTH 33 0
BBX 25 39 4 -12
BITMAP
FE003F80
FE003F80
FE003F80
FE003F80
FE003F80
FE003F80
FE003F80
FE003F80
FE003F80
FE003F80
FE003F80
FE003F80
FE003F80
FE003F80
FE003F80
FE007F80
FE007F80
FF007F80
FF007F80
FF00FF80
FFC3FF80
FFFFFF80
FFFFFF80
FFFFDF80
FFFF9F80
FEFF1F80
FE7E1F80
FE000000
FE000000
FE000000
FE000000
FE000000
FE000000
FE000000
FE000000
FE000000
FE000000
FE000000
FE000000
ENDCHAR
STARTCHAR nu
ENCODING 957
SWIDTH 595 0
DWIDTH 30 0
BBX 28 27 0 0
BITMAP
FF000FF0
7F000FF0
7F800FF0
7F800FF0
3F800FF0
3FC00FF0
1FC00FF0
1FE00FF0
1FE00FE0
0FE00FE0
0FF00FE0
07F01FE0
07F01FC0
07F81FC0
03F83FC0
03F83F80
03FC3F80
01FC7F00
01FCFF00
00FEFE00
00FFFE00
00FFFC00
007FF800
007FF000
003FF000
003FE000
003FC000
ENDCHAR
STARTCHAR xi
ENCODING 958
SWIDTH 498 0
DWIDTH 25 0
BBX 23 47 2 -9
BITMAP
3FFFF8
3FFFF8
3FFFF8
3FFFF8
3FFFF8
01FE00
07F800
0FE000
1FC000
3FC000
3F8000
3F8000
3F8000
3FC000
3FC000
1FF000
0FFFF0
07FFF0
01FFF0
07FFF0
0FFFF0
1FF000
3FC000
7F8000
7F0000
FF0000
FF0000
FF0000
FF0000
FF0000
7F8000
7FE000
3FFE00
3FFFC0
1FFFF0
07FFF8
03FFFC
003FFE
0003FE
0001FE
0001FE
0001FC
0001FC
0003FC
0003F8
0007F0
000FF0
ENDCHAR
STARTCHAR omicron
ENCODING 959
SWIDTH 619 0
DWIDTH 31 0
BBX 27 28 2 0
BITMAP
007FC000
01FFF000
07FFFC00
0FFFFE00
1FFFFF00
3FFFFF80
3FE0FF80
7FC07FC0
7F803FC0
7F001FC0
FF001FC0
FF001FE0
FF001FE0
FF001FE0
FF001FE0
FF001FE0
FF001FE0
7F001FC0
7F003FC0
7F803FC0
7FC07FC0
3FE0FF80
3FFFFF80
1FFFFF00
0FFFFE00
07FFFC00
01FFF000
007FC000
ENDCHAR
STARTCHAR pi
ENCODING 960
SWIDTH 738 0
DWIDTH 37 0
BBX 34 27 1 0
BITMAP
1FFFFFFFC0
7FFFFFFFC0
FFFFFFFFC0
FFFFFFFFC0
FFFFFFFFC0
FFFFFFFFC0
07F807F000
07F807F000
07F807F000
07F807F000
07F807F000
07F807F000
07F807F000
07F807F000
07F807F000
07F807F000
07F807F000
07F807F000
07F807F000
07F807F800
07F807F840
07F807FFC0
07F807FFC0
07F803FFC0
07F803FFC0
07F801FFC0
07F8007F00
ENDCHAR
STARTCHAR rho
ENCODING 961
SWIDTH 618 0
DWIDTH 31 0
BBX 26 40 3 -12
BITMAP
007F8000
03FFE000
07FFF800
0FFFFC00
1FFFFE00
3FFFFF00
7FC1FF00
7F807F80
7F007F80
FF003F80
FF003F80
FF003FC0
FE003FC0
FE003FC0
FE003FC0
FE003FC0
FE003FC0
FE003F80
FE003F80
FE007F80
FF007F80
FFC1FF00
FFFFFF00
FFFFFE00
FFFFFE00
FFFFFC00
FEFFF000
FE1FC000
FE000000
FE000000
FE000000
FE000000
FE000000
FE000000
FE000000
FE000000
FE000000
FE000000
FE000000
FE000000
ENDCHAR
STARTCHAR sigma1
ENCODING 962
SWIDTH 498 0
DWIDTH 25 0
BBX 23 37 2 -9
BITMAP
007FC0
01FFFC
07FFFE
0FFFFC
1FFFFC
3FFFF8
3FE078
7FC008
7F8000
7F8000
7F0000
7F0000
FF0000
FF0000
FF0000
FF0000
FF0000
FF0000
FF0000
7F8000
7FC000
3FF800
3FFF80
1FFFE0
0FFFF8
03FFFC
00FFFC
000FFE
0001FE
0001FE
0001FE
0001FC
0001FC
0003F8
0003F8
0007F0
000FF0
ENDCHAR
STARTCHAR sigma
ENCODING 963
SWIDTH 652 0
DWIDTH 33 0
BBX 30 27 2 0
BITMAP
001FFFFC
01FFFFFC
07FFFFFC
0FFFFFFC
1FFFFFFC
3FFFFFFC
3FF07E00
7FC03F00
7F803F80
7F801FC0
FF001FC0
FF000FE0
FF000FE0
FF000FE0
FF000FE0
FF000FE0
FF000FE0
7F801FE0
7F801FE0
7FC03FE0
3FE07FC0
3FFFFFC0
1FFFFF80
0FFFFF00
07FFFE00
01FFF800
007FC000
ENDCHAR
STARTCHAR tau
ENCODING 964
SWIDTH 538 0
DWIDTH 27 0
BBX 24 27 1 0
BITMAP
1FFFFF
3FFFFF
FFFFFF
FFFFFF
FFFFFF
FFFFFF
01FC00
01FC00
01FC00
01FC00
01FC00
01FC00
01FC00
01FC00
01FC00
01FC00
01FC00
01FC00
01FC00
01FE00
01FF04
01FFFC
00FFFC
00FFFC
007FFC
003FFC
000FF0
ENDCHAR
STARTCHAR upsilon
ENCODING 965
SWIDTH 645 0
DWIDTH 32 0
BBX 26 27 3 0
BITMAP
FF007F80
FF007F80
FF003F80
FF003F80
FF003FC0
FF003FC0
FF003FC0
FF001FC0
FF001FC0
FF001FC0
FF001FC0
FF001FC0
FF001FC0
FF001FC0
FF001FC0
FF001FC0
7F003FC0
7F003FC0
7F803FC0
7F807F80
7FE0FF80
3FFFFF00
3FFFFF00
1FFFFE00
0FFFFC00
03FFF000
00FFC000
ENDCHAR
STARTCHAR phi
ENCODING 966
SWIDTH 791 0
DWIDTH 40 0
BBX 36 40 2 -12
BITMAP
06000FF000
07003FFC00
0FC07FFF00
1FE0FFFF80
1FE1FFFF80
3FC1FFFFC0
3F83FC3FC0
7F83F81FE0
7F03F80FE0
7F03F80FE0
7F03F80FF0
FE03F80FF0
FE03F807F0
FE03F807F0
FE03F807F0
FE03F80FF0
FE03F80FE0
7F03F80FE0
7F03F81FE0
7F83F83FC0
3FC3F87FC0
3FF3F9FF80
1FFFFFFF80
0FFFFFFF00
07FFFFFC00
03FFFFF800
00FFFFE000
001FFF0000
0003F80000
0003F80000
0003F80000
0003F80000
0003F80000
0003F80000
0003F80000
0003F80000
0003F80000
0003F80000
0003F80000
0003F80000
ENDCHAR
STARTCHAR chi
ENCODING 967
SWIDTH 591 0
DWIDTH 30 0
BBX 31 40 -1 -12
BITMAP
1FC00000
3FF000FE
3FF801FC
3FF803FC
3FFC03F8
3FFC07F8
01FE07F0
00FE0FE0
007E1FE0
007F1FC0
007F3FC0
003F3F80
003FFF00
003FFF00
001FFE00
001FFE00
000FFC00
000FF800
000FF800
000FF000
001FF800
001FF800
003FF800
007FFC00
007FFC00
00FEFE00
00FEFE00
01FCFE00
01FC7F00
03F87F00
07F87F80
07F03F80
0FF03FC0
0FE03FE0
1FE01FFE
3FC01FFE
3FC00FFE
7F8007FE
7F8003FE
FF0001FE
ENDCHAR
STARTCHAR psi
ENCODING 968
SWIDTH 836 0
DWIDTH 42 0
BBX 36 50 3 -12
BITMAP
0001FC0000
0001FC0000
0001FC0000
0001FC0000
0001FC0000
0001FC0000
0001FC0000
0001FC0000
0001FC0000
0001FC0000
0001FC0000
FF01FC0FE0
FF01FC0FE0
FF01FC0FE0
FF01FC0FE0
FF01FC07F0
FF01FC07F0
FF01FC07F0
FF01FC07F0
FF01FC07F0
FF01FC07F0
FF01FC07F0
FF01FC07F0
FF01FC07F0
FF01FC07F0
FF01FC07F0
7F01FC07F0
7F01FC07F0
7F01FC07F0
7F81FC0FF0
7FC1FC1FE0
3FF1FCFFE0
1FFFFFFFC0
1FFFFFFF80
0FFFFFFF00
07FFFFFE00
01FFFFF800
003FFF8000
0001FC0000
0001FC0000
0001FC0000
0001FC0000
0001FC0000
0001FC0000
0001FC0000
0001FC0000
0001FC0000
0001FC0000
0001FC0000
0001FC0000
ENDCHAR
STARTCHAR omega
ENCODING 969
SWIDTH 862 0
DWIDTH 43 0
BBX 37 27 3 0
BITMAP
3F80000FE0
3F80000FE0
7F000007F0
7F000007F0
7F000007F0
7E000007F0
FE000003F8
FE000003F8
FE01FC03F8
FE01FC03F8
FE01FC03F8
FE01FC03F8
FE01FC03F8
FE01FC03F8
FE01FC03F8
FE01FC03F8
FE01FC03F8
FE01FC03F8
FE01FC03F8
FF03FE07F8
7F87FF0FF0
7FFFFFFFF0
3FFFDFFFE0
1FFF9FFFC0
1FFF8FFF80
07FF07FF00
01FC01FC00
ENDCHAR
STARTCHAR iotadieresis
ENCODING 970
SWIDTH 407 0
DWIDTH 20 0
BBX 19 38 0 0
BITMAP
100400
7C1F00
FE3F80
FE3F80
FE3F80
7E1F80
3C0F00
000000
000000
000000
000000
0FE000
0FE000
0FE000
0FE000
0FE000
0FE000
0FE000
0FE000
0FE000
0FE000
0FE000
0FE000
0FE000
0FE000
0FE000
0FE000
0FE000
0FE000
0FE000
0FF000
0FF820
0FFFE0
07FFE0
07FFE0
03FFE0
01FFE0
007F80
ENDCHAR
STARTCHAR upsilondieresis
ENCODING 971
SWIDTH 645 0
DWIDTH 32 0
BBX 26 37 3 0
BITMAP
07E1F800
07E1F800
07F1FC00
07E1FC00
07E1F800
03C0F000
00000000
00000000
00000000
00000000
FF007F80
FF007F80
FF003F80
FF003F80
FF003FC0
FF003FC0
FF003FC0
FF001FC0
FF001FC0
FF001FC0
FF001FC0
FF001FC0
FF001FC0
FF001FC0
FF001FC0
FF001FC0
7F003FC0
7F003FC0
7F803FC0
7F807F80
7FE0FF80
3FFFFF00
3FFFFF00
1FFFFE00
0FFFFC00
03FFF000
00FFC000
ENDCHAR
STARTCHAR omicrontonos
ENCODING 972
SWIDTH 619 0
DWIDTH 31 0
BBX 27 40 2 0
BITMAP
0007F000
0007F000
0007E000
0007E000
000FC000
000FC000
000F8000
000F8000
001F0000
001F0000
00000000
00000000
007FC000
01FFF000
07FFFC00
0FFFFE00
1FFFFF00
3FFFFF80
3FE0FF80
7FC07FC0
7F803FC0
7F001FC0
FF001FC0
FF001FE0
FF001FE0
FF001FE0
FF001FE0
FF001FE0
FF001FE0
7F001FC0
7F003FC0
7F803FC0
7FC07FC0
3FE0FF80
3FFFFF80
1FFFFF00
0FFFFE00
07FFFC00
01FFF000
007FC000
ENDCHAR
STARTCHAR upsilontonos
ENCODING 973
SWIDTH 645 0
DWIDTH 32 0
BBX 26 40 3 0
BITMAP
000FE000
000FE000
000FE000
000FC000
000FC000
001F8000
001F8000
001F0000
001F0000
003E0000
00000000
00000000
00000000
FF007F80
FF007F80
FF003F80
FF003F80
FF003FC0
FF003FC0
FF003FC0
FF001FC0
FF001FC0
FF001FC0
FF001FC0
FF001FC0
FF001FC0
FF001FC0
FF001FC0
FF001FC0
7F003FC0
7F003FC0
7F803FC0
7F807F80
7FE0FF80
3FFFFF00
3FFFFF00
1FFFFE00
0FFFFC00
03FFF000
00FFC000
ENDCHAR
STARTCHAR omegatonos
ENCODING 974
SWIDTH 862 0
DWIDTH 43 0
BBX 37 40 3 0
BITMAP
00003F8000
00003F8000
00003F0000
00007F0000
00007E0000
00007E0000
00007C0000
00007C0000
0000F80000
0000F80000
0000000000
0000000000
0000000000
3F80000FE0
3F80000FE0
7F000007F0
7F000007F0
7F000007F0
7E000007F0
FE000003F8
FE000003F8
FE01FC03F8
FE01FC03F8
FE01FC03F8
FE01FC03F8
FE01FC03F8
FE01FC03F8
FE01FC03F8
FE01FC03F8
FE01FC03F8
FE01FC03F8
FE01FC03F8
FF03FE07F8
7F87FF0FF0
7FFFFFFFF0
3FFFDFFFE0
1FFF9FFFC0
1FFF8FFF80
07FF07FF00
01FC01FC00
ENDCHAR
STARTCHAR uni03D1
ENCODING 977
SWIDTH 731 0
DWIDTH 37 0
BBX 34 38 1 0
BITMAP
0007F80000
003FFF0000
007FFF8000
00FFFFC000
01FFFFE000
01FFFFF000
01FE1FF800
03FC07F800
03FC03F800
03FC03FC00
01FC01FC00
01FE01FC00
01FF01FE00
00FFE1FE00
00FFFFFFC0
007FFFFFC0
003FFFFFC0
000FFFFFC0
0FC3FFFFC0
7FE03FFFC0
FFF000FE00
7FF000FE00
7FF000FE00
7FF000FE00
07F000FE00
07F001FE00
07F001FE00
07F001FE00
07F001FC00
07F003FC00
07F007FC00
07FC1FF800
07FFFFF800
03FFFFF000
03FFFFE000
01FFFFC000
007FFF0000
001FF80000
ENDCHAR
STARTCHAR uni03D2
ENCODING 978
SWIDTH 630 0
DWIDTH 32 0
BBX 32 36 0 0
BITMAP
FF00007E
7F8001FF
7F8001FF
3FC003FF
3FC007FF
1FE007FF
0FE00FF8
0FF01FF0
07F01FE0
07F83FC0
03FC3FC0
03FC7F80
01FE7F00
01FEFF00
00FFFE00
00FFFE00
007FFC00
003FFC00
003FF800
001FF800
001FF000
000FF000
000FF000
000FF000
000FF000
000FF000
000FF000
000FF000
000FF000
000FF000
000FF000
000FF000
000FF000
000FF000
000FF000
000FF000
ENDCHAR
STARTCHAR uni03D6
ENCODING 982
SWIDTH 999 0
DWIDTH 50 0
BBX 48 27 1 0
BITMAP
0FFFFFFFFFFF
3FFFFFFFFFFF
7FFFFFFFFFFF
FFFFFFFFFFFF
FFFFFFFFFFFF
FFFFFFFFFFFF
03F800001FC0
03F800001FC0
03F800001FC0
03F000000FC0
07F000000FE0
07F000000FE0
07F007E00FE0
07F007E00FE0
07F007E00FE0
07F007E00FE0
07F007E00FE0
07F00FF00FE0
07F80FF01FE0
03F80FF01FC0
03FC1FF83FC0
03FFFFFFFFC0
01FFFFFFFF80
00FFFE7FFF80
00FFFC3FFF00
003FF81FFC00
000FE007F000
ENDCHAR
STARTCHAR uni0400
ENCODING 1024
SWIDTH 560 0
DWIDTH 28 0
BBX 21 46 4 0
BITMAP
7F8000
3FC000
1FE000
0FF000
07F000
03F800
00FC00
007E00
000000
000000
FFFFF8
FFFFF8
FFFFF8
FFFFF8
FFFFF8
FFFFF8
FF0000
FF0000
FF0000
FF0000
FF0000
FF0000
FF0000
FF0000
FFFFF0
FFFFF0
FFFFF0
FFFFF0
FFFFF0
FFFFF0
FF0000
FF0000
FF0000
FF0000
FF0000
FF0000
FF0000
FF0000
FF0000
FF0000
FFFFF8
FFFFF8
FFFFF8
FFFFF8
FFFFF8
FFFFF8
ENDCHAR
STARTCHAR afii10023
ENCODING 1025
SWIDTH 560 0
DWIDTH 28 0
BBX 21 45 4 0
BITMAP
1F07C0
1F87E0
3F8FE0
3F8FE0
1F87E0
0F03C0
000000
000000
000000
FFFFF8
FFFFF8
FFFFF8
FFFFF8
FFFFF8
FFFFF8
FF0000
FF0000
FF0000
FF0000
FF0000
FF0000
FF0000
FF0000
FFFFF0
FFFFF0
FFFFF0
FFFFF0
FFFFF0
FFFFF0
FF0000
FF0000
FF0000
FF0000
FF0000
FF0000
FF0000
FF0000
FF0000
FF0000
FFFFF8
FFFFF8
FFFFF8
FFFFF8
FFFFF8
FFFFF8
ENDCHAR
STARTCHAR afii10051
ENCODING 1026
SWIDTH 805 0
DWIDTH 40 0
BBX 36 36 1 0
BITMAP
FFFFFFE000
FFFFFFE000
FFFFFFE000
FFFFFFE000
FFFFFFE000
FFFFFFE000
007F000000
007F000000
007F000000
007F000000
007F000000
007F000000
007F000000
007FFFF800
007FFFFF00
007FFFFF80
007FFFFFC0
007FFFFFE0
007FFFFFF0
007F001FF0
007F000FF0
007F0007F0
007F0007F0
007F0007F0
007F0007F0
007F0007F0
007F0007F0
007F0007F0
007F000FF0
007F020FF0
007F03FFF0
007F03FFE0
007F03FFE0
007F03FFC0
007F03FF80
007F01FC00
ENDCHAR
STARTCHAR afii10052
ENCODING 1027
SWIDTH 561 0
DWIDTH 28 0
BBX 23 46 4 0
BITMAP
0007F8
000FF0
001FE0
003FC0
003F80
007E00
00FC00
01F800
000000
000000
FFFFFE
FFFFFE
FFFFFE
FFFFFE
FFFFFE
FFFFFE
FF0000
FF0000
FF0000
FF0000
FF0000
FF0000
FF0000
FF0000
FF0000
FF0000
FF0000
FF0000
FF0000
FF0000
FF0000
FF0000
FF0000
FF0000
FF0000
FF0000
FF0000
FF0000
FF0000
FF0000
FF0000
FF0000
FF0000
FF0000
FF0000
FF0000
ENDCHAR
STARTCHAR afii10053
ENCODING 1028
SWIDTH 676 0
DWIDTH 34 0
BBX 29 36 3 0
BITMAP
0007FE00
003FFFE0
00FFFFF8
03FFFFF8
07FFFFF0
0FFFFFF0
1FFC07E0
1FF000E0
3FE00000
3FC00000
7F800000
7F800000
7F000000
FF000000
FF000000
FFFFFE00
FFFFFE00
FFFFFE00
FFFFFE00
FFFFFE00
FFFFFE00
FF000000
FF000000
FF000000
7F800000
7F800000
7FC00000
3FC00000
3FF00010
1FFC01F0
0FFFFFF0
0FFFFFF0
03FFFFF0
01FFFFF0
007FFFE0
000FFE00
ENDCHAR
STARTCHAR afii10054
ENCODING 1029
SWIDTH 550 0
DWIDTH 28 0
BBX 24 36 2 0
BITMAP
007FC0
03FFF8
0FFFFF
1FFFFE
3FFFFE
3FFFFC
7FC07C
7F800C
7F0000
7F0000
7F0000
7F8000
7FC000
7FE000
3FF800
1FFF00
1FFFC0
0FFFE0
03FFF8
00FFFC
003FFC
000FFE
0003FE
0001FF
0000FF
0000FF
00007F
8000FF
F000FF
FE03FE
FFFFFE
FFFFFC
FFFFF8
FFFFF0
3FFFC0
07FE00
ENDCHAR
STARTCHAR afii10055
ENCODING 1030
SWIDTH 331 0
DWIDTH 17 0
BBX 7 36 5 0
BITMAP
FE
FE
FE
FE
FE
FE
FE
FE
FE
FE
FE
FE
FE
FE
FE
FE
FE
FE
FE
FE
FE
FE
FE
FE
FE
FE
FE
FE
FE
FE
FE
FE
FE
FE
FE
FE
ENDCHAR
STARTCHAR afii10056
ENCODING 1031
SWIDTH 331 0
DWIDTH 17 0
BBX 17 45 0 0
BITMAP
7C1F00
FC3F80
FE3F80
FE3F80
FC3F00
781E00
000000
000000
000000
07F000
07F000
07F000
07F000
07F000
07F000
07F000
07F000
07F000
07F000
07F000
07F000
07F000
07F000
07F000
07F000
07F000
07F000
07F000
07F000
07F000
07F000
07F000
07F000
07F000
07F000
07F000
07F000
07F000
07F000
07F000
07F000
07F000
07F000
07F000
07F000
ENDCHAR
STARTCHAR afii10057
ENCODING 1032
SWIDTH 331 0
DWIDTH 17 0
BBX 16 46 -4 -10
BITMAP
00FF
00FF
00FF
00FF
00FF
00FF
00FF
00FF
00FF
00FF
00FF
00FF
00FF
00FF
00FF
00FF
00FF
00FF
00FF
00FF
00FF
00FF
00FF
00FF
00FF
00FF
00FF
00FF
00FF
00FF
00FF
00FF
00FF
00FF
00FF
00FF
00FF
00FF
01FE
03FE
FFFE
FFFC
FFF8
FFF0
FFE0
FF80
ENDCHAR
STARTCHAR afii10058
ENCODING 1033
SWIDTH 999 0
DWIDTH 50 0
BBX 48 36 0 0
BITMAP
003FFFFE0000
003FFFFE0000
003FFFFE0000
003FFFFE0000
003FFFFE0000
007FFFFE0000
007F00FE0000
007F00FE0000
007F00FE0000
007F00FE0000
007F00FE0000
007F00FE0000
007F00FE0000
00FF00FE0000
00FE00FFFE00
00FE00FFFFC0
00FE00FFFFF0
00FE00FFFFF8
00FE00FFFFFC
01FE00FFFFFC
01FE00FE07FE
01FC00FE01FE
01FC00FE00FF
01FC00FE00FF
03FC00FE00FF
03FC00FE00FF
03F800FE00FF
03F800FE01FF
07F800FE01FE
0FF800FE07FE
FFF000FFFFFC
FFF000FFFFFC
FFE000FFFFF8
FFE000FFFFF0
FF8000FFFFC0
FF0000FFFE00
ENDCHAR
STARTCHAR afii10059
ENCODING 1034
SWIDTH 1001 0
DWIDTH 50 0
BBX 44 36 4 0
BITMAP
FF000FE00000
FF000FE00000
FF000FE00000
FF000FE00000
FF000FE00000
FF000FE00000
FF000FE00000
FF000FE00000
FF000FE00000
FF000FE00000
FF000FE00000
FF000FE00000
FF000FE00000
FF000FE00000
FFFFFFFFE000
FFFFFFFFFC00
FFFFFFFFFF00
FFFFFFFFFF80
FFFFFFFFFFC0
FFFFFFFFFFC0
FF000FE07FE0
FF000FE01FE0
FF000FE00FF0
FF000FE00FF0
FF000FE00FF0
FF000FE00FF0
FF000FE00FF0
FF000FE01FF0
FF000FE01FE0
FF000FE07FE0
FF000FFFFFE0
FF000FFFFFC0
FF000FFFFF80
FF000FFFFF00
FF000FFFFC00
FF000FFFE000
ENDCHAR
STARTCHAR afii10060
ENCODING 1035
SWIDTH 805 0
DWIDTH 40 0
BBX 36 36 1 0
BITMAP
FFFFFFE000
FFFFFFE000
FFFFFFE000
FFFFFFE000
FFFFFFE000
FFFFFFE000
007F000000
007F000000
007F000000
007F000000
007F000000
007F000000
007F000000
007FFFFC00
007FFFFF00
007FFFFF80
007FFFFFC0
007FFFFFE0
007FFFFFF0
007F001FF0
007F000FF0
007F0007F0
007F0007F0
007F0007F0
007F0007F0
007F0007F0
007F0007F0
007F0007F0
007F0007F0
007F0007F0
007F0007F0
007F0007F0
007F0007F0
007F0007F0
007F0007F0
007F0007F0
ENDCHAR
STARTCHAR afii10061
ENCODING 1036
SWIDTH 671 0
DWIDTH 34 0
BBX 30 46 4 0
BITMAP
0001FF00
0001FE00
0003FC00
0007F800
000FF000
000FC000
001F8000
003F0000
00000000
00000000
FF0007F8
FF000FF0
FF001FE0
FF001FE0
FF003FC0
FF007F80
FF00FF00
FF00FF00
FF01FE00
FF03FC00
FF07F800
FF07F000
FF0FF000
FF1FE000
FF3FC000
FF3F8000
FF7F8000
FFFF0000
FF7F8000
FF7FC000
FF3FC000
FF1FE000
FF0FF000
FF0FF800
FF07F800
FF03FC00
FF03FE00
FF01FF00
FF00FF00
FF007F80
FF007FC0
FF003FE0
FF001FE0
FF000FF0
FF000FF8
FF0007FC
ENDCHAR
STARTCHAR uni040D
ENCODING 1037
SWIDTH 823 0
DWIDTH 41 0
BBX 32 46 4 0
BITMAP
03FE0000
01FE0000
00FF0000
007F8000
001FC000
000FC000
0007E000
0003F000
00000000
00000000
FE0001FF
FE0001FF
FE0003FF
FE0007FF
FE0007FF
FE000FFF
FE000FFF
FE001FFF
FE003FFF
FE003FBF
FE007FBF
FE007F3F
FE00FF3F
FE01FE3F
FE01FC3F
FE03FC3F
FE03F83F
FE07F83F
FE0FF03F
FE0FE03F
FE1FE03F
FE1FC03F
FE3FC03F
FE7F803F
FE7F003F
FEFF003F
FEFE003F
FFFE003F
FFFC003F
FFF8003F
FFF8003F
FFF0003F
FFF0003F
FFE0003F
FFC0003F
FFC0003F
ENDCHAR
STARTCHAR afii10062
ENCODING 1038
SWIDTH 652 0
DWIDTH 33 0
BBX 33 47 0 0
BITMAP
07F003F800
07F003F000
07F007F000
03F80FF000
03FC1FE000
01FFFFE000
01FFFFC000
007FFF0000
000FF80000
0000000000
0000000000
FF00007F80
7F80007F00
7F8000FF00
3FC000FE00
3FC001FE00
1FC001FE00
1FE001FC00
0FE003FC00
0FF003F800
07F007F800
07F807F000
03F807F000
03FC0FE000
01FC0FE000
01FE1FE000
00FE1FC000
00FF1FC000
007F3F8000
007F3F8000
003FFF0000
003FFF0000
001FFE0000
001FFE0000
000FFE0000
000FFC0000
0007FC0000
000FF80000
000FF80000
001FF00000
203FF00000
3FFFE00000
3FFFC00000
3FFF800000
3FFF000000
3FFE000000
3FF0000000
ENDCHAR
STARTCHAR afii10145
ENCODING 1039
SWIDTH 745 0
DWIDTH 37 0
BBX 28 46 4 -10
BITMAP
FF0007F0
FF0007F0
FF0007F0
FF0007F0
FF0007F0
FF0007F0
FF0007F0
FF0007F0
FF0007F0
FF0007F0
FF0007F0
FF0007F0
FF0007F0
FF0007F0
FF0007F0
FF0007F0
FF0007F0
FF0007F0
FF0007F0
FF0007F0
FF0007F0
FF0007F0
FF0007F0
FF0007F0
FF0007F0
FF0007F0
FF0007F0
FF0007F0
FF0007F0
FF0007F0
FFFFFFF0
FFFFFFF0
FFFFFFF0
FFFFFFF0
FFFFFFF0
FFFFFFF0
001FC000
001FC000
001FC000
001FC000
001FC000
001FC000
001FC000
001FC000
001FC000
001FC000
ENDCHAR
STARTCHAR afii10017
ENCODING 1040
SWIDTH 689 0
DWIDTH 35 0
BBX 35 36 0 0
BITMAP
0007FC0000
000FFE0000
000FFE0000
000FFE0000
001FFF0000
001FFF0000
001FBF0000
003FBF8000
003FBF8000
007F1FC000
007F1FC000
007F1FC000
00FE0FE000
00FE0FE000
00FE0FE000
01FC07F000
01FC07F000
01FC07F000
03FC03F800
03F803F800
03F803F800
07FFFFFC00
07FFFFFC00
0FFFFFFE00
0FFFFFFE00
0FFFFFFE00
1FFFFFFF00
1FE000FF00
1FC0007F00
3FC0007F80
3FC0007F80
3FC0003F80
7F80003FC0
7F80003FC0
7F80003FC0
FF00001FE0
ENDCHAR
STARTCHAR afii10018
ENCODING 1041
SWIDTH 638 0
DWIDTH 32 0
BBX 26 36 4 0
BITMAP
FFFFFE00
FFFFFE00
FFFFFE00
FFFFFE00
FFFFFE00
FFFFFE00
FF000000
FF000000
FF000000
FF000000
FF000000
FF000000
FF000000
FF000000
FFFF0000
FFFFF000
FFFFF800
FFFFFE00
FFFFFF00
FFFFFF00
FF01FF80
FF007F80
FF003FC0
FF003FC0
FF003FC0
FF003FC0
FF003FC0
FF007FC0
FF007F80
FF01FF80
FFFFFF00
FFFFFF00
FFFFFE00
FFFFFC00
FFFFF000
FFFF0000
ENDCHAR
STARTCHAR afii10019
ENCODING 1042
SWIDTH 671 0
DWIDTH 34 0
BBX 27 36 4 0
BITMAP
FFFFC000
FFFFFC00
FFFFFE00
FFFFFF80
FFFFFF80
FFFFFFC0
FF00FFC0
FF003FC0
FF003FC0
FF001FC0
FF001FC0
FF003FC0
FF003FC0
FF00FF80
FFFFFF80
FFFFFF00
FFFFFC00
FFFFFE00
FFFFFF80
FFFFFFC0
FF00FFC0
FF003FE0
FF001FE0
FF001FE0
FF001FE0
FF001FE0
FF001FE0
FF001FE0
FF003FE0
FF00FFE0
FFFFFFC0
FFFFFF80
FFFFFF80
FFFFFE00
FFFFFC00
FFFFE000
ENDCHAR
STARTCHAR afii10020
ENCODING 1043
SWIDTH 561 0
DWIDTH 28 0
BBX 23 36 4 0
BITMAP
FFFFFE
FFFFFE
FFFFFE
FFFFFE
FFFFFE
FFFFFE
FF0000
FF0000
FF0000
FF0000
FF0000
FF0000
FF0000
FF0000
FF0000
FF0000
FF0000
FF0000
FF0000
FF0000
FF0000
FF0000
FF0000
FF0000
FF0000
FF0000
FF0000
FF0000
FF0000
FF0000
FF0000
FF0000
FF0000
FF0000
FF0000
FF0000
ENDCHAR
STARTCHAR afii10021
ENCODING 1044
SWIDTH 764 0
DWIDTH 38 0
BBX 37 46 0 -10
BITMAP
001FFFFF00
001FFFFF00
001FFFFF00
001FFFFF00
001FFFFF00
001FFFFF00
001F807F00
003F807F00
003F807F00
003F807F00
003F807F00
003F807F00
007F007F00
007F007F00
007F007F00
007F007F00
00FE007F00
00FE007F00
00FE007F00
01FE007F00
01FC007F00
01FC007F00
03FC007F00
03F8007F00
07F8007F00
07F8007F00
07F0007F00
0FF0007F00
0FF0007F00
1FE0007F00
FFFFFFFFF8
FFFFFFFFF8
FFFFFFFFF8
FFFFFFFFF8
FFFFFFFFF8
FFFFFFFFF8
FF000003F8
FF000003F8
FF000003F8
FF000003F8
FF000003F8
FF000003F8
FF000003F8
FF000003F8
FF000003F8
FF000003F8
ENDCHAR
STARTCHAR afii10022
ENCODING 1045
SWIDTH 560 0
DWIDTH 28 0
BBX 21 36 4 0
BITMAP
FFFFF8
FFFFF8
FFFFF8
FFFFF8
FFFFF8
FFFFF8
FF0000
FF0000
FF0000
FF0000
FF0000
FF0000
FF0000
FF0000
FFFFF0
FFFFF0
FFFFF0
FFFFF0
FFFFF0
FFFFF0
FF0000
FF0000
FF0000
FF0000
FF0000
FF0000
FF0000
FF0000
FF0000
FF0000
FFFFF8
FFFFF8
FFFFF8
FFFFF8
FFFFF8
FFFFF8
ENDCHAR
STARTCHAR afii10024
ENCODING 1046
SWIDTH 942 0
DWIDTH 47 0
BBX 47 36 0 0
BITMAP
7F800FE003FC
3F800FE007F8
3FC00FE007F8
1FE00FE00FF0
0FE00FE00FE0
0FF00FE01FE0
07F80FE03FC0
03F80FE03F80
01FC0FE07F00
01FE0FE0FF00
00FE0FE0FE00
007F0FE1FC00
007F8FE3FC00
003F8FE3F800
001FCFE7F000
001FEFEFF000
000FEFEFE000
000FFFFFE000
000FFFEFE000
001FEFEFF000
003FCFE7F800
003FCFE7F800
007F8FE3FC00
00FF0FE1FE00
00FF0FE1FE00
01FE0FE0FF00
03FC0FE07F80
03FC0FE07F80
07F80FE03FC0
0FF00FE01FE0
0FF00FE01FE0
1FE00FE00FF0
3FC00FE007F8
3FC00FE007F8
7F800FE003FC
FF000FE001FE
ENDCHAR
STARTCHAR afii10025
ENCODING 1047
SWIDTH 647 0
DWIDTH 32 0
BBX 27 36 3 0
BITMAP
00FFC000
0FFFF800
3FFFFE00
FFFFFF00
FFFFFF80
FFFFFF80
7F00FFC0
38007FC0
20003FC0
00003FC0
00003FC0
00003F80
00007F80
0003FF00
07FFFE00
07FFF800
07FFC000
07FFF000
07FFFE00
07FFFF00
0003FF80
00007FC0
00003FC0
00001FE0
00001FE0
00001FE0
00001FE0
00001FE0
C0007FC0
FC01FFC0
FFFFFF80
FFFFFF80
FFFFFF00
FFFFFC00
7FFFF000
07FF8000
ENDCHAR
STARTCHAR afii10026
ENCODING 1048
SWIDTH 823 0
DWIDTH 41 0
BBX 32 36 4 0
BITMAP
FE0001FF
FE0001FF
FE0003FF
FE0007FF
FE0007FF
FE000FFF
FE000FFF
FE001FFF
FE003FFF
FE003FBF
FE007FBF
FE007F3F
FE00FF3F
FE01FE3F
FE01FC3F
FE03FC3F
FE03F83F
FE07F83F
FE0FF03F
FE0FE03F
FE1FE03F
FE1FC03F
FE3FC03F
FE7F803F
FE7F003F
FEFF003F
FEFE003F
FFFE003F
FFFC003F
FFF8003F
FFF8003F
FFF0003F
FFF0003F
FFE0003F
FFC0003F
FFC0003F
ENDCHAR
STARTCHAR afii10027
ENCODING 1049
SWIDTH 823 0
DWIDTH 41 0
BBX 32 47 4 0
BITMAP
07E003F0
07F007F0
07F007F0
07F00FF0
03FC1FE0
03FFFFC0
01FFFF80
007FFF00
001FF800
00000000
00000000
FE0001FF
FE0001FF
FE0003FF
FE0007FF
FE0007FF
FE000FFF
FE000FFF
FE001FFF
FE003FFF
FE003FBF
FE007FBF
FE007F3F
FE00FF3F
FE01FE3F
FE01FC3F
FE03FC3F
FE03F83F
FE07F83F
FE0FF03F
FE0FE03F
FE1FE03F
FE1FC03F
FE3FC03F
FE7F803F
FE7F003F
FEFF003F
FEFE003F
FFFE003F
FFFC003F
FFF8003F
FFF8003F
FFF0003F
FFF0003F
FFE0003F
FFC0003F
FFC0003F
ENDCHAR
STARTCHAR afii10028
ENCODING 1050
SWIDTH 671 0
DWIDTH 34 0
BBX 30 36 4 0
BITMAP
FF0007F8
FF000FF0
FF001FE0
FF001FE0
FF003FC0
FF007F80
FF00FF00
FF00FF00
FF01FE00
FF03FC00
FF07F800
FF07F000
FF0FF000
FF1FE000
FF3FC000
FF3F8000
FF7F8000
FFFF0000
FF7F8000
FF7FC000
FF3FC000
FF1FE000
FF0FF000
FF0FF800
FF07F800
FF03FC00
FF03FE00
FF01FF00
FF00FF00
FF007F80
FF007FC0
FF003FE0
FF001FE0
FF000FF0
FF000FF8
FF0007FC
ENDCHAR
STARTCHAR afii10029
ENCODING 1051
SWIDTH 745 0
DWIDTH 37 0
BBX 32 36 0 0
BITMAP
003FFFFF
003FFFFF
003FFFFF
003FFFFF
003FFFFF
007FFFFF
007F007F
007F007F
007F007F
007F007F
007F007F
007F007F
00FF007F
00FE007F
00FE007F
00FE007F
00FE007F
00FE007F
01FE007F
01FE007F
01FC007F
01FC007F
01FC007F
01FC007F
03FC007F
03FC007F
03F8007F
03F8007F
07F8007F
0FF8007F
FFF0007F
FFF0007F
FFE0007F
FFC0007F
FF80007F
FE00007F
ENDCHAR
STARTCHAR afii10030
ENCODING 1052
SWIDTH 942 0
DWIDTH 47 0
BBX 39 36 4 0
BITMAP
FFE0000FFE
FFE0000FFE
FFF0001FFE
FFF0001FFE
FFF0001FFE
FFF0003FFE
FFF8003FFE
FFF8003FFE
FFF8007EFE
FEFC007EFE
FEFC007EFE
FEFC00FCFE
FEFE00FCFE
FE7E00FCFE
FE7E00F8FE
FE7F01F9FE
FE3F01F9FE
FE3F01F1FE
FE3F03F1FE
FE1F83F1FE
FE1F83E1FE
FE1F87E1FE
FE1FC7E1FE
FE0FC7E1FE
FE0FCFC1FE
FE0FEFC1FE
FE07EFC1FE
FE07FF81FE
FE07FF81FE
FE03FF81FE
FE03FF01FE
FE03FF01FE
FE03FF01FE
FE01FE01FE
FE01FE01FE
FE01FE01FE
ENDCHAR
STARTCHAR afii10031
ENCODING 1053
SWIDTH 765 0
DWIDTH 38 0
BBX 29 36 4 0
BITMAP
FF0003F8
FF0003F8
FF0003F8
FF0003F8
FF0003F8
FF0003F8
FF0003F8
FF0003F8
FF0003F8
FF0003F8
FF0003F8
FF0003F8
FF0003F8
FF0003F8
FFFFFFF8
FFFFFFF8
FFFFFFF8
FFFFFFF8
FFFFFFF8
FFFFFFF8
FF0003F8
FF0003F8
FF0003F8
FF0003F8
FF0003F8
FF0003F8
FF0003F8
FF0003F8
FF0003F8
FF0003F8
FF0003F8
FF0003F8
FF0003F8
FF0003F8
FF0003F8
FF0003F8
ENDCHAR
STARTCHAR afii10032
ENCODING 1054
SWIDTH 795 0
DWIDTH 40 0
BBX 34 36 3 0
BITMAP
000FFC0000
007FFF8000
01FFFFE000
03FFFFF800
0FFFFFFC00
0FFFFFFC00
1FFC0FFE00
3FF003FF00
3FE001FF00
7FC000FF80
7F80007F80
7F80007F80
FF00007FC0
FF00003FC0
FF00003FC0
FF00003FC0
FF00003FC0
FF00003FC0
FF00003FC0
FF00003FC0
FF00003FC0
FF00003FC0
FF00003FC0
FF00007FC0
7F80007F80
7F80007F80
7FC000FF80
3FE001FF00
3FF003FF00
1FFC0FFE00
0FFFFFFC00
0FFFFFFC00
03FFFFF000
01FFFFE000
007FFF8000
000FFC0000
ENDCHAR
STARTCHAR afii10033
ENCODING 1055
SWIDTH 745 0
DWIDTH 37 0
BBX 28 36 4 0
BITMAP
FFFFFFF0
FFFFFFF0
FFFFFFF0
FFFFFFF0
FFFFFFF0
FFFFFFF0
FF0007F0
FF0007F0
FF0007F0
FF0007F0
FF0007F0
FF0007F0
FF0007F0
FF0007F0
FF0007F0
FF0007F0
FF0007F0
FF0007F0
FF0007F0
FF0007F0
FF0007F0
FF0007F0
FF0007F0
FF0007F0
FF0007F0
FF0007F0
FF0007F0
FF0007F0
FF0007F0
FF0007F0
FF0007F0
FF0007F0
FF0007F0
FF0007F0
FF0007F0
FF0007F0
ENDCHAR
STARTCHAR afii10034
ENCODING 1056
SWIDTH 627 0
DWIDTH 31 0
BBX 25 36 4 0
BITMAP
FFFF8000
FFFFE000
FFFFF800
FFFFFC00
FFFFFE00
FFFFFF00
FF03FF00
FF00FF00
FF007F80
FF007F80
FF007F80
FF007F80
FF007F80
FF007F80
FF00FF00
FF00FF00
FF03FF00
FFFFFE00
FFFFFE00
FFFFFC00
FFFFF800
FFFFE000
FFFF0000
FF000000
FF000000
FF000000
FF000000
FF000000
FF000000
FF000000
FF000000
FF000000
FF000000
FF000000
FF000000
FF000000
ENDCHAR
STARTCHAR afii10035
ENCODING 1057
SWIDTH 637 0
DWIDTH 32 0
BBX 27 36 3 0
BITMAP
000FF800
007FFF80
01FFFFE0
03FFFFE0
07FFFFC0
0FFFFFC0
1FFC0FC0
3FF00180
3FE00000
7FC00000
7F800000
7F800000
FF000000
FF000000
FF000000
FF000000
FF000000
FF000000
FF000000
FF000000
FF000000
FF000000
FF000000
FF000000
7F800000
7F800000
7FC00000
3FC00000
3FE00040
1FF807C0
1FFFFFC0
0FFFFFC0
07FFFFC0
03FFFFC0
00FFFF80
001FF800
ENDCHAR
STARTCHAR afii10036
ENCODING 1058
SWIDTH 579 0
DWIDTH 29 0
BBX 27 36 1 0
BITMAP
FFFFFFE0
FFFFFFE0
FFFFFFE0
FFFFFFE0
FFFFFFE0
FFFFFFE0
003F8000
003F8000
003F8000
003F8000
003F8000
003F8000
003F8000
003F8000
003F8000
003F8000
003F8000
003F8000
003F8000
003F8000
003F8000
003F8000
003F8000
003F8000
003F8000
003F8000
003F8000
003F8000
003F8000
003F8000
003F8000
003F8000
003F8000
003F8000
003F8000
003F8000
ENDCHAR
STARTCHAR afii10037
ENCODING 1059
SWIDTH 652 0
DWIDTH 33 0
BBX 33 36 0 0
BITMAP
FF00007F80
7F80007F00
7F8000FF00
3FC000FE00
3FC001FE00
1FC001FE00
1FE001FC00
0FE003FC00
0FF003F800
07F007F800
07F807F000
03F807F000
03FC0FE000
01FC0FE000
01FE1FE000
00FE1FC000
00FF1FC000
007F3F8000
007F3F8000
003FFF0000
003FFF0000
001FFE0000
001FFE0000
000FFE0000
000FFC0000
0007FC0000
000FF80000
000FF80000
001FF00000
203FF00000
3FFFE00000
3FFFC00000
3FFF800000
3FFF000000
3FFE000000
3FF0000000
ENDCHAR
STARTCHAR afii10038
ENCODING 1060
SWIDTH 859 0
DWIDTH 43 0
BBX 39 36 2 0
BITMAP
0000FE0000
0000FE0000
0000FE0000
0000FE0000
003FFFF800
00FFFFFE00
03FFFFFF80
0FFFFFFFE0
1FFFFFFFF0
1FFFFFFFF0
3FF0FE1FF8
7FC0FE07F8
7F80FE03FC
7F00FE01FC
FF00FE01FC
FF00FE01FE
FE00FE00FE
FE00FE00FE
FE00FE00FE
FF00FE01FE
7F00FE01FC
7F00FE01FC
7F80FE03FC
3FC0FE07F8
3FF0FE1FF8
1FFFFFFFF0
0FFFFFFFE0
07FFFFFFC0
03FFFFFF80
00FFFFFE00
001FFFF000
0000FE0000
0000FE0000
0000FE0000
0000FE0000
0000FE0000
ENDCHAR
STARTCHAR afii10039
ENCODING 1061
SWIDTH 666 0
DWIDTH 33 0
BBX 33 36 0 0
BITMAP
7F8000FF00
3FC001FE00
3FE001FE00
1FE003FC00
0FF007F800
0FF007F800
07F80FF000
07F80FF000
03FC1FE000
01FE1FC000
01FE3FC000
00FF7F8000
007F7F0000
007FFF0000
003FFE0000
003FFE0000
001FFC0000
000FF80000
001FFC0000
003FFC0000
003FFE0000
007FFF0000
00FFFF0000
00FF7F8000
01FE3F8000
01FC3FC000
03FC1FE000
07F81FE000
07F80FF000
0FF00FF800
1FE007F800
1FE003FC00
3FC003FE00
3FC001FE00
7F8001FF00
FF0000FF80
ENDCHAR
STARTCHAR afii10040
ENCODING 1062
SWIDTH 780 0
DWIDTH 39 0
BBX 34 46 4 -10
BITMAP
FF0007F800
FF0007F800
FF0007F800
FF0007F800
FF0007F800
FF0007F800
FF0007F800
FF0007F800
FF0007F800
FF0007F800
FF0007F800
FF0007F800
FF0007F800
FF0007F800
FF0007F800
FF0007F800
FF0007F800
FF0007F800
FF0007F800
FF0007F800
FF0007F800
FF0007F800
FF0007F800
FF0007F800
FF0007F800
FF0007F800
FF0007F800
FF0007F800
FF0007F800
FF0007F800
FFFFFFFFC0
FFFFFFFFC0
FFFFFFFFC0
FFFFFFFFC0
FFFFFFFFC0
FFFFFFFFC0
0000001FC0
0000001FC0
0000001FC0
0000001FC0
0000001FC0
0000001FC0
0000001FC0
0000001FC0
0000001FC0
0000001FC0
ENDCHAR
STARTCHAR afii10041
ENCODING 1063
SWIDTH 728 0
DWIDTH 36 0
BBX 29 36 3 0
BITMAP
FE0007F8
FE0007F8
FE0007F8
FE0007F8
FE0007F8
FE0007F8
FE0007F8
FE0007F8
FE0007F8
FE0007F8
FE0007F8
FE0007F8
FE0007F8
FE0007F8
FE0007F8
FF0007F8
FF000FF8
FFC07FF8
FFFFFFF8
7FFFFFF8
7FFFFFF8
3FFFFFF8
0FFFE7F8
03FE07F8
000007F8
000007F8
000007F8
000007F8
000007F8
000007F8
000007F8
000007F8
000007F8
000007F8
000007F8
000007F8
ENDCHAR
STARTCHAR afii10042
ENCODING 1064
SWIDTH 1078 0
DWIDTH 54 0
BBX 45 36 4 0
BITMAP
FF001FE003F8
FF001FE003F8
FF001FE003F8
FF001FE003F8
FF001FE003F8
FF001FE003F8
FF001FE003F8
FF001FE003F8
FF001FE003F8
FF001FE003F8
FF001FE003F8
FF001FE003F8
FF001FE003F8
FF001FE003F8
FF001FE003F8
FF001FE003F8
FF001FE003F8
FF001FE003F8
FF001FE003F8
FF001FE003F8
FF001FE003F8
FF001FE003F8
FF001FE003F8
FF001FE003F8
FF001FE003F8
FF001FE003F8
FF001FE003F8
FF001FE003F8
FF001FE003F8
FF001FE003F8
FFFFFFFFFFF8
FFFFFFFFFFF8
FFFFFFFFFFF8
FFFFFFFFFFF8
FFFFFFFFFFF8
FFFFFFFFFFF8
ENDCHAR
STARTCHAR afii10043
ENCODING 1065
SWIDTH 1113 0
DWIDTH 56 0
BBX 51 46 4 -10
BITMAP
FF001FE003F800
FF001FE003F800
FF001FE003F800
FF001FE003F800
FF001FE003F800
FF001FE003F800
FF001FE003F800
FF001FE003F800
FF001FE003F800
FF001FE003F800
FF001FE003F800
FF001FE003F800
FF001FE003F800
FF001FE003F800
FF001FE003F800
FF001FE003F800
FF001FE003F800
FF001FE003F800
FF001FE003F800
FF001FE003F800
FF001FE003F800
FF001FE003F800
FF001FE003F800
FF001FE003F800
FF001FE003F800
FF001FE003F800
FF001FE003F800
FF001FE003F800
FF001FE003F800
FF001FE003F800
FFFFFFFFFFFFE0
FFFFFFFFFFFFE0
FFFFFFFFFFFFE0
FFFFFFFFFFFFE0
FFFFFFFFFFFFE0
FFFFFFFFFFFFE0
00000000001FE0
00000000001FE0
00000000001FE0
00000000001FE0
00000000001FE0
00000000001FE0
00000000001FE0
00000000001FE0
00000000001FE0
00000000001FE0
ENDCHAR
STARTCHAR afii10044
ENCODING 1066
SWIDTH 727 0
DWIDTH 36 0
BBX 34 36 0 0
BITMAP
FFFF000000
FFFF000000
FFFF000000
FFFF000000
FFFF000000
FFFF000000
007F000000
007F000000
007F000000
007F000000
007F000000
007F000000
007F000000
007F000000
007FFF8000
007FFFF000
007FFFFC00
007FFFFE00
007FFFFF00
007FFFFF00
007F01FF80
007F007F80
007F003FC0
007F003FC0
007F003FC0
007F003FC0
007F003FC0
007F007FC0
007F007F80
007F01FF80
007FFFFF00
007FFFFF00
007FFFFE00
007FFFFC00
007FFFF000
007FFF8000
ENDCHAR
STARTCHAR afii10045
ENCODING 1067
SWIDTH 905 0
DWIDTH 45 0
BBX 37 36 4 0
BITMAP
FF000007F8
FF000007F8
FF000007F8
FF000007F8
FF000007F8
FF000007F8
FF000007F8
FF000007F8
FF000007F8
FF000007F8
FF000007F8
FF000007F8
FF000007F8
FF000007F8
FFFF0007F8
FFFFE007F8
FFFFF807F8
FFFFFC07F8
FFFFFE07F8
FFFFFE07F8
FF03FF07F8
FF00FF07F8
FF007F87F8
FF007F87F8
FF007F87F8
FF007F87F8
FF007F87F8
FF00FF87F8
FF00FF07F8
FF03FF07F8
FFFFFE07F8
FFFFFE07F8
FFFFFC07F8
FFFFF807F8
FFFFE007F8
FFFF0007F8
ENDCHAR
STARTCHAR afii10046
ENCODING 1068
SWIDTH 638 0
DWIDTH 32 0
BBX 26 36 4 0
BITMAP
FF000000
FF000000
FF000000
FF000000
FF000000
FF000000
FF000000
FF000000
FF000000
FF000000
FF000000
FF000000
FF000000
FF000000
FFFF0000
FFFFF000
FFFFF800
FFFFFE00
FFFFFF00
FFFFFF00
FF01FF80
FF007F80
FF003FC0
FF003FC0
FF003FC0
FF003FC0
FF003FC0
FF007FC0
FF007F80
FF01FF80
FFFFFF00
FFFFFF00
FFFFFE00
FFFFFC00
FFFFF000
FFFF0000
ENDCHAR
STARTCHAR afii10047
ENCODING 1069
SWIDTH 663 0
DWIDTH 33 0
BBX 28 36 2 0
BITMAP
03FF0000
3FFFE000
FFFFF800
FFFFFC00
7FFFFF00
7FFFFF00
7E03FF80
30007FC0
00003FC0
00003FE0
00001FE0
00001FE0
00000FF0
00000FF0
00000FF0
07FFFFF0
07FFFFF0
07FFFFF0
07FFFFF0
07FFFFF0
07FFFFF0
00000FF0
00000FF0
00000FF0
00001FE0
00001FE0
00001FE0
00003FC0
C000FFC0
FC03FF80
FFFFFF00
FFFFFF00
FFFFFC00
FFFFF800
7FFFE000
07FF0000
ENDCHAR
STARTCHAR afii10048
ENCODING 1070
SWIDTH 1069 0
DWIDTH 53 0
BBX 46 36 4 0
BITMAP
FF00003FE000
FF0001FFFC00
FF0007FFFF00
FF000FFFFF80
FF001FFFFFC0
FF003FFFFFE0
FF007FF07FE0
FF007FC01FF0
FF00FF800FF0
FF00FF0007F8
FF00FF0007F8
FF01FE0007F8
FF01FE0003FC
FF01FE0003FC
FFFFFE0003FC
FFFFFE0003FC
FFFFFE0003FC
FFFFFE0003FC
FFFFFE0003FC
FFFFFE0003FC
FF01FE0003FC
FF01FE0003FC
FF01FE0003FC
FF01FE0003FC
FF01FE0007F8
FF00FF0007F8
FF00FF0007F8
FF00FF800FF0
FF007FC01FF0
FF007FF07FE0
FF003FFFFFE0
FF001FFFFFC0
FF000FFFFF80
FF0007FFFF00
FF0001FFFC00
FF00003FE000
ENDCHAR
STARTCHAR afii10049
ENCODING 1071
SWIDTH 665 0
DWIDTH 33 0
BBX 29 36 0 0
BITMAP
000FFFF8
007FFFF8
01FFFFF8
03FFFFF8
07FFFFF8
07FFFFF8
0FFC07F8
0FF007F8
0FF007F8
0FE007F8
0FE007F8
0FE007F8
0FE007F8
0FF007F8
0FF807F8
07FC07F8
07FFFFF8
03FFFFF8
01FFFFF8
007FFFF8
007FFFF8
007FFFF8
00FF07F8
00FE07F8
01FE07F8
03FC07F8
03FC07F8
07F807F8
0FF807F8
0FF007F8
1FE007F8
1FE007F8
3FC007F8
7FC007F8
7F8007F8
FF0007F8
ENDCHAR
STARTCHAR afii10065
ENCODING 1072
SWIDTH 604 0
DWIDTH 30 0
BBX 24 28 2 0
BITMAP
00FF80
07FFF0
1FFFF8
1FFFFC
1FFFFE
0FFFFF
0F81FF
0400FF
00007F
00007F
00007F
00FFFF
07FFFF
1FFFFF
3FFFFF
7FE07F
7F807F
FF007F
FF007F
FF00FF
FF01FF
FF83FF
FFFFFF
7FFFBF
7FFF3F
3FFF3F
1FFC1F
07F01F
ENDCHAR
STARTCHAR afii10066
ENCODING 1073
SWIDTH 622 0
DWIDTH 31 0
BBX 27 38 2 0
BITMAP
000003C0
0001FFC0
001FFFC0
007FFFC0
01FFFFE0
03FFFFE0
07FFFE00
0FFF8000
1FF80000
1FE00000
3FC00000
3F800000
7F800000
7F07F000
7F1FFC00
7F3FFE00
7F7FFF00
FFFFFF80
FFFFFFC0
FFF07FC0
FFC03FC0
FF803FC0
FF001FE0
FF001FE0
FF001FE0
FF001FE0
7F001FE0
7F001FE0
7F801FC0
7F803FC0
3FC03FC0
3FF0FF80
1FFFFF80
0FFFFF00
0FFFFE00
03FFFC00
01FFF000
007FC000
ENDCHAR
STARTCHAR afii10067
ENCODING 1074
SWIDTH 639 0
DWIDTH 32 0
BBX 26 27 4 0
BITMAP
FFFFE000
FFFFFC00
FFFFFE00
FFFFFF00
FFFFFF80
FE00FF80
FE007F80
FE003F80
FE003F80
FE007F80
FE00FF00
FFFFFE00
FFFFFC00
FFFFF000
FFFFFE00
FFFFFF00
FE007F80
FE003FC0
FE003FC0
FE003FC0
FE003FC0
FE00FFC0
FFFFFF80
FFFFFF80
FFFFFF00
FFFFFC00
FFFFE000
ENDCHAR
STARTCHAR afii10068
ENCODING 1075
SWIDTH 478 0
DWIDTH 24 0
BBX 19 27 4 0
BITMAP
FFFFE0
FFFFE0
FFFFE0
FFFFE0
FFFFE0
FFFFE0
FE0000
FE0000
FE0000
FE0000
FE0000
FE0000
FE0000
FE0000
FE0000
FE0000
FE0000
FE0000
FE0000
FE0000
FE0000
FE0000
FE0000
FE0000
FE0000
FE0000
FE0000
ENDCHAR
STARTCHAR afii10069
ENCODING 1076
SWIDTH 664 0
DWIDTH 33 0
BBX 31 37 1 -10
BITMAP
00FFFFE0
00FFFFE0
00FFFFE0
00FFFFE0
01FFFFE0
01FFFFE0
01FC0FE0
01FC0FE0
01FC0FE0
01FC0FE0
03FC0FE0
03F80FE0
03F80FE0
07F80FE0
07F80FE0
07F00FE0
0FF00FE0
0FE00FE0
1FE00FE0
1FE00FE0
3FC00FE0
FFFFFFFE
FFFFFFFE
FFFFFFFE
FFFFFFFE
FFFFFFFE
FFFFFFFE
FC00007E
FC00007E
FC00007E
FC00007E
FC00007E
FC00007E
FC00007E
FC00007E
FC00007E
FC00007E
ENDCHAR
STARTCHAR afii10070
ENCODING 1077
SWIDTH 590 0
DWIDTH 30 0
BBX 26 28 2 0
BITMAP
007FC000
01FFF000
07FFFC00
0FFFFE00
1FFFFF00
3FE0FF00
3FC07F80
7F803F80
7F003F80
7F001FC0
7F001FC0
FFFFFFC0
FFFFFFC0
FFFFFFC0
FFFFFFC0
FFFFFFC0
FF000000
7F000000
7F000000
7F800000
7FC00100
3FF00F00
3FFFFF00
1FFFFF00
0FFFFF00
07FFFF00
01FFFE00
003FF000
ENDCHAR
STARTCHAR afii10072
ENCODING 1078
SWIDTH 873 0
DWIDTH 44 0
BBX 44 27 0 0
BITMAP
7F803F801FE0
3FC03F803FC0
1FE03F807F80
0FE03F807F00
07F03F80FE00
07F83F81FE00
03FC3F83FC00
01FC3F83F800
00FE3F87F000
00FF3F8FF000
007FBF9FE000
003FBF9FC000
001FFFBF8000
001FFFFF8000
003FFFBFC000
007FBF9FE000
00FF3F8FF000
00FE3F87F000
01FE3F87F800
03FC3F83FC00
07F83F81FE00
0FF03F80FF00
0FE03F807F00
1FE03F807F80
3FC03F803FC0
7F803F801FE0
FF003F800FF0
ENDCHAR
STARTCHAR afii10073
ENCODING 1079
SWIDTH 555 0
DWIDTH 28 0
BBX 24 28 2 0
BITMAP
03FF80
3FFFE0
FFFFF8
7FFFFC
7FFFFE
7FFFFE
3E01FE
2000FE
00007E
0000FE
0003FC
03FFF8
03FFF0
03FFC0
03FFF8
03FFFC
0003FE
0000FF
00007F
00007F
8000FF
F803FF
FFFFFE
FFFFFE
FFFFFC
FFFFF8
7FFFE0
0FFF00
ENDCHAR
STARTCHAR afii10074
ENCODING 1080
SWIDTH 720 0
DWIDTH 36 0
BBX 28 27 4 0
BITMAP
FE001FF0
FE003FF0
FE007FF0
FE007FF0
FE00FFF0
FE01FFF0
FE01FFF0
FE03FFF0
FE07FFF0
FE07F7F0
FE0FF7F0
FE1FE7F0
FE1FC7F0
FE3FC7F0
FE7F87F0
FE7F07F0
FEFF07F0
FFFE07F0
FFFC07F0
FFFC07F0
FFF807F0
FFF807F0
FFF007F0
FFE007F0
FFE007F0
FFC007F0
FF8007F0
ENDCHAR
STARTCHAR afii10075
ENCODING 1081
SWIDTH 720 0
DWIDTH 36 0
BBX 28 39 4 0
BITMAP
3F801FC0
3F801FC0
1F801F80
1FC03F80
1FF0FF80
0FFFFF00
07FFFE00
03FFFC00
007FE000
00000000
00000000
00000000
FE001FF0
FE003FF0
FE007FF0
FE007FF0
FE00FFF0
FE01FFF0
FE01FFF0
FE03FFF0
FE07FFF0
FE07F7F0
FE0FF7F0
FE1FE7F0
FE1FC7F0
FE3FC7F0
FE7F87F0
FE7F07F0
FEFF07F0
FFFE07F0
FFFC07F0
FFFC07F0
FFF807F0
FFF807F0
FFF007F0
FFE007F0
FFE007F0
FFC007F0
FF8007F0
ENDCHAR
STARTCHAR afii10076
ENCODING 1082
SWIDTH 619 0
DWIDTH 31 0
BBX 27 27 4 0
BITMAP
FE007FC0
FE007F80
FE00FF00
FE01FE00
FE03FC00
FE07F800
FE07F800
FE0FF000
FE1FE000
FE3FC000
FE7F8000
FE7F0000
FEFF0000
FFFF0000
FEFF8000
FE7F8000
FE3FC000
FE1FE000
FE0FF000
FE0FF800
FE07FC00
FE03FC00
FE01FE00
FE00FF00
FE007F80
FE007FC0
FE003FE0
ENDCHAR
STARTCHAR afii10077
ENCODING 1083
SWIDTH 645 0
DWIDTH 32 0
BBX 28 27 0 0
BITMAP
00FFFFF0
01FFFFF0
01FFFFF0
01FFFFF0
01FFFFF0
01FFFFF0
01FC07F0
01FC07F0
01FC07F0
01FC07F0
01F807F0
03F807F0
03F807F0
03F807F0
03F807F0
03F807F0
03F807F0
07F007F0
07F007F0
0FF007F0
0FF007F0
FFE007F0
FFE007F0
FFC007F0
FFC007F0
FF8007F0
7E0007F0
ENDCHAR
STARTCHAR afii10078
ENCODING 1084
SWIDTH 844 0
DWIDTH 42 0
BBX 34 27 4 0
BITMAP
FFC000FFC0
FFE001FFC0
FFE001FFC0
FFF001FFC0
FFF003FFC0
FFF003FFC0
FFF807FFC0
FFF807FFC0
FEFC0FDFC0
FEFC0FDFC0
FEFC0FDFC0
FEFE1FDFC0
FE7E1F9FC0
FE7E1F9FC0
FE7F3F9FC0
FE3F3F1FC0
FE3F3F1FC0
FE1F7E1FC0
FE1FFE1FC0
FE1FFE1FC0
FE0FFC1FC0
FE0FFC1FC0
FE07F81FC0
FE07F81FC0
FE07F81FC0
FE03F01FC0
FE03F01FC0
ENDCHAR
STARTCHAR afii10079
ENCODING 1085
SWIDTH 662 0
DWIDTH 33 0
BBX 25 27 4 0
BITMAP
FE003F80
FE003F80
FE003F80
FE003F80
FE003F80
FE003F80
FE003F80
FE003F80
FE003F80
FE003F80
FFFFFF80
FFFFFF80
FFFFFF80
FFFFFF80
FFFFFF80
FFFFFF80
FE003F80
FE003F80
FE003F80
FE003F80
FE003F80
FE003F80
FE003F80
FE003F80
FE003F80
FE003F80
FE003F80
ENDCHAR
STARTCHAR afii10080
ENCODING 1086
SWIDTH 619 0
DWIDTH 31 0
BBX 27 28 2 0
BITMAP
007FC000
01FFF000
07FFFC00
0FFFFE00
1FFFFF00
3FFFFF80
3FE0FF80
7FC07FC0
7F803FC0
7F001FC0
FF001FC0
FF001FE0
FF001FE0
FF001FE0
FF001FE0
FF001FE0
FF001FE0
7F001FC0
7F003FC0
7F803FC0
7FC07FC0
3FE0FF80
3FFFFF80
1FFFFF00
0FFFFE00
07FFFC00
01FFF000
007FC000
ENDCHAR
STARTCHAR afii10081
ENCODING 1087
SWIDTH 651 0
DWIDTH 33 0
BBX 25 27 4 0
BITMAP
FFFFFF80
FFFFFF80
FFFFFF80
FFFFFF80
FFFFFF80
FFFFFF80
FE003F80
FE003F80
FE003F80
FE003F80
FE003F80
FE003F80
FE003F80
FE003F80
FE003F80
FE003F80
FE003F80
FE003F80
FE003F80
FE003F80
FE003F80
FE003F80
FE003F80
FE003F80
FE003F80
FE003F80
FE003F80
ENDCHAR
STARTCHAR afii10082
ENCODING 1088
SWIDTH 632 0
DWIDTH 32 0
BBX 26 40 4 -12
BITMAP
000FE000
FC3FF800
FE7FFC00
FEFFFE00
FFFFFE00
FFFFFF00
FFC1FF00
FF80FF80
FF007F80
FF003F80
FF003F80
FE003FC0
FE003FC0
FE003FC0
FE003FC0
FE003FC0
FF003FC0
FF003F80
FF003F80
FF007F80
FF80FF80
FFC1FF00
FFFFFF00
FFFFFE00
FFFFFE00
FEFFFC00
FE3FF800
FE0FC000
FE000000
FE000000
FE000000
FE000000
FE000000
FE000000
FE000000
FE000000
FE000000
FE000000
FE000000
FE000000
ENDCHAR
STARTCHAR afii10083
ENCODING 1089
SWIDTH 514 0
DWIDTH 26 0
BBX 22 28 2 0
BITMAP
007FE0
01FFFC
07FFFC
0FFFFC
1FFFF8
3FFFF8
3FE078
7FC000
7F8000
7F8000
7F0000
FF0000
FF0000
FF0000
FF0000
FF0000
FF0000
FF0000
7F0000
7F8000
7FC00C
3FE03C
3FFFFC
1FFFFC
1FFFFC
0FFFFC
03FFF8
007FC0
ENDCHAR
STARTCHAR afii10084
ENCODING 1090
SWIDTH 553 0
DWIDTH 28 0
BBX 26 27 1 0
BITMAP
FFFFFFC0
FFFFFFC0
FFFFFFC0
FFFFFFC0
FFFFFFC0
FFFFFFC0
007F8000
007F8000
007F8000
007F8000
007F8000
007F8000
007F8000
007F8000
007F8000
007F8000
007F8000
007F8000
007F8000
007F8000
007F8000
007F8000
007F8000
007F8000
007F8000
007F8000
007F8000
ENDCHAR
STARTCHAR afii10085
ENCODING 1091
SWIDTH 568 0
DWIDTH 28 0
BBX 28 39 0 -12
BITMAP
FF000FF0
7F800FE0
7F801FE0
7F801FE0
3FC01FC0
3FC03FC0
1FC03FC0
1FE03F80
1FE07F80
0FE07F00
0FF07F00
07F0FF00
07F0FE00
07F8FE00
03F9FE00
03F9FC00
03F9FC00
01FDFC00
01FFF800
00FFF800
00FFF000
00FFF000
007FF000
007FE000
003FE000
003FE000
003FC000
003FC000
003F8000
003F8000
007F8000
00FF0000
01FF0000
3FFE0000
3FFE0000
3FFC0000
3FF80000
3FE00000
3F800000
ENDCHAR
STARTCHAR afii10086
ENCODING 1092
SWIDTH 813 0
DWIDTH 41 0
BBX 37 50 2 -12
BITMAP
0001FC0000
0001FC0000
0001FC0000
0001FC0000
0001FC0000
0001FC0000
0001FC0000
0001FC0000
0001FC0000
0001FC0000
0001FC0000
001FFF8000
00FFFFF800
03FFFFFE00
07FFFFFF00
1FFFFFFF80
1FFFFFFFC0
3FF9FCFFE0
7FE1FC3FE0
7FC1FC1FF0
7F81FC0FF0
FF01FC0FF0
FF01FC07F8
FF01FC07F8
FF01FC07F8
FF01FC07F8
FF01FC07F8
7F01FC07F0
7F81FC0FF0
7FC1FC1FF0
3FE1FC3FE0
3FF9FCFFE0
1FFFFFFFC0
0FFFFFFF80
07FFFFFF00
01FFFFFE00
00FFFFF800
000FFFC000
0001FC0000
0001FC0000
0001FC0000
0001FC0000
0001FC0000
0001FC0000
0001FC0000
0001FC0000
0001FC0000
0001FC0000
0001FC0000
0001FC0000
ENDCHAR
STARTCHAR afii10087
ENCODING 1093
SWIDTH 578 0
DWIDTH 29 0
BBX 27 27 1 0
BITMAP
FF001FE0
7F803FC0
7FC07FC0
3FC07F80
1FE0FF00
1FF1FF00
0FF1FE00
07FBFC00
07FBFC00
03FFF800
01FFF000
01FFF000
00FFE000
00FFE000
00FFE000
01FFF000
03FFF800
03FFF800
07FBFC00
0FF1FE00
0FF1FE00
1FE0FF00
3FE0FF80
3FC07F80
7F803FC0
FF803FE0
FF001FE0
ENDCHAR
STARTCHAR afii10088
ENCODING 1094
SWIDTH 687 0
DWIDTH 34 0
BBX 29 37 4 -10
BITMAP
FE003F80
FE003F80
FE003F80
FE003F80
FE003F80
FE003F80
FE003F80
FE003F80
FE003F80
FE003F80
FE003F80
FE003F80
FE003F80
FE003F80
FE003F80
FE003F80
FE003F80
FE003F80
FE003F80
FE003F80
FE003F80
FFFFFFF8
FFFFFFF8
FFFFFFF8
FFFFFFF8
FFFFFFF8
FFFFFFF8
000001F8
000001F8
000001F8
000001F8
000001F8
000001F8
000001F8
000001F8
000001F8
000001F8
ENDCHAR
ENDFONT
